<svg xmlns="http://www.w3.org/2000/svg" xmlns:xlink="http://www.w3.org/1999/xlink" width="252.784" height="185" viewBox="0 0 252.784 185">
  <defs>
    <clipPath id="clip-path">
      <ellipse id="Ellipse_130" data-name="Ellipse 130" cx="116" cy="16" rx="116" ry="16" transform="translate(16.536 166.454)" fill="rgba(1,157,169,0.15)"/>
    </clipPath>
    <linearGradient id="linear-gradient" x1="0.5" x2="0.5" y2="1" gradientUnits="objectBoundingBox">
      <stop offset="0" stop-color="#efefef"/>
      <stop offset="1" stop-color="#efefef"/>
    </linearGradient>
  </defs>
  <g id="illustration" transform="translate(-6.18 -13.454)">
    <g id="Mask_Group_5" data-name="Mask Group 5" clip-path="url(#clip-path)">
      <path id="Path_2682" data-name="Path 2682" d="M347.819,254.379c-4.029-12.591-14.66-36.445-22.49-44.953-5.864-6.374-8.383,1.387-15.927,0a18.645,18.645,0,0,0-13.412,2.073c-5.5,3.373-9.547,10.182-13.641,16.463a198.977,198.977,0,0,1-28.909,35.187c-5.2,4.976-105.959,2.565.506,81,35.708.727,59.1,13.353,93.031,15.416,1.77.108,9.282-28.711,9.3-32.238C356.367,302.47,355.039,276.944,347.819,254.379Zm-34.673,6.763c-11.637.078-21.109.326-21.109.326s32.746-.4,21.109-.326Z" transform="translate(-100.274 -173.113)" fill="url(#linear-gradient)"/>
      <path id="Path_2683" data-name="Path 2683" d="M134.055,249.377c7.22-20.189,21.349-37.412,38.417-40.219a20.56,20.56,0,0,1,13.412,1.855c5.5,3.018,9.547,9.11,13.641,14.73a183.93,183.93,0,0,0,28.909,31.482c5.2,4.452,10.782,8.606,16.958,9.745,12.384,2.284,24.633-8.633,30.28-23.061,3.528-9.013,5.158-19.595,8.01-28.97,3.285-.008,7.2-.007,11.408.019,11.637.069,21.109.292,21.109.292s-11.259-19.279-21.067-12.136a100.965,100.965,0,0,1-9.434,6.035,34.2,34.2,0,0,1,6.85-11.18c5.865-6.079,13.807-7.785,21.317-7.332a35.3,35.3,0,0,1,22.25,9.164c11.414,10.617,16.128,29.306,20.162,46.72l-9.751,6.319c-4.183-4.674-10.3-9.3-15.937-5.193a119.962,119.962,0,0,1-21.075,11.885s9.4-.11,21.032-.041c1.954.012,3.846.028,5.643.046l-105.6,72.284c-35.708.65-60.076,29.9-94.007,31.746-1.77.1-12.112-38.485-12.125-41.641C124.362,299.685,126.836,269.566,134.055,249.377Zm34.673,6.051c11.637.069,21.109.292,21.109.292s-11.259-19.279-21.067-12.136A119.965,119.965,0,0,1,147.7,255.468s9.4-.11,21.033-.041Z" transform="translate(-118.274 -177.113)" fill="url(#linear-gradient)"/>
    </g>
    <path id="Path_2512" data-name="Path 2512" d="M347.819,254.379c-4.029-12.591-14.66-36.445-22.49-44.953-5.864-6.374-8.383,1.387-15.927,0a18.645,18.645,0,0,0-13.412,2.073c-5.5,3.373-9.547,10.182-13.641,16.463a198.977,198.977,0,0,1-28.909,35.187c-5.2,4.976-105.959,3.565.506,82,35.708.727,59.1,12.353,93.031,14.416,1.77.108,9.282-28.711,9.3-32.238C356.367,302.47,355.039,276.944,347.819,254.379Zm-34.673,6.763c-11.637.078-21.109.326-21.109.326s32.746-.4,21.109-.326Z" transform="translate(-100.274 -173.113)" fill="url(#linear-gradient)"/>
    <path id="Path_2545" data-name="Path 2545" d="M134.055,249.377c7.22-20.189,21.349-37.412,38.417-40.219a20.56,20.56,0,0,1,13.412,1.855c5.5,3.018,9.547,9.11,13.641,14.73a183.93,183.93,0,0,0,28.909,31.482c5.2,4.452,10.782,8.606,16.958,9.745,12.384,2.284,24.633-8.633,30.28-23.061,3.528-9.013,5.158-19.595,8.01-28.97,3.285-.008,7.2-.007,11.408.019,11.637.069,21.109.292,21.109.292s-11.259-19.279-21.067-12.136a100.965,100.965,0,0,1-9.434,6.035,34.2,34.2,0,0,1,6.85-11.18c5.865-6.079,13.807-7.785,21.317-7.332a35.3,35.3,0,0,1,22.25,9.164c11.414,10.617,16.128,29.306,20.162,46.72l-9.751,6.319c-4.183-4.674-10.3-9.3-15.937-5.193a119.962,119.962,0,0,1-21.075,11.885s9.4-.11,21.032-.041c1.954.012,3.846.028,5.643.046L264.579,345.6c-35.709.65-94.067,16.122-128,17.968-1.77.1-12.112-38.485-12.125-41.641C124.362,299.685,126.836,269.566,134.055,249.377Zm34.673,6.051c11.637.069,21.109.292,21.109.292s-11.259-19.279-21.067-12.136A119.965,119.965,0,0,1,147.7,255.468s9.4-.11,21.033-.041Z" transform="translate(-118.274 -177.113)" fill="url(#linear-gradient)"/>
    <path id="Path_2684" data-name="Path 2684" d="M116,0c64.065,0,114.939,20.965,114.985,21.209s-229.7,0-229.7,0S51.935,0,116,0Z" transform="translate(16.536 165.214)" fill="#e5e5e5"/>
    <path id="Path_2513" data-name="Path 2513" d="M875.236,564.485c0-7.6-4.707-13.766-10.514-13.766-3.65,0-6.864,2.436-8.749,6.132a6.294,6.294,0,0,0-2.009-.33,6.845,6.845,0,0,0-4.708,1.987c-1.7-4.609-5.3-7.789-9.474-7.789-3.9,0-7.3,2.782-9.116,6.911a6.536,6.536,0,0,0-3.6-1.109c-4.456,0-8.069,4.73-8.069,10.565a12.978,12.978,0,0,0,1.271,5.689h52.845a16.643,16.643,0,0,0,2.12-8.289Z" transform="translate(-616.273 -422.191)" fill="#019da9" opacity="0.3"/>
    <path id="Path_2514" data-name="Path 2514" d="M311.7,587.887H82v-.65H311.475Z" transform="translate(-64.184 -401.345)" fill="#2f2e41"/>
    <path id="Path_2515" data-name="Path 2515" d="M249.429,463.917,0,463.887l-.117-.654,249.547-.031Z" transform="translate(7.467 -312.654)" fill="#2f2e41"/>
    <g id="Group_270" data-name="Group 270" transform="translate(-0.297 -6.121)">
      <path id="Path_2516" data-name="Path 2516" d="M483.63,412.411s2.049-15.029,5.465-10.93,0,10.247,0,10.247l-2.733,3.416-2.733-2.049Z" transform="translate(-345.669 -320.891)" fill="#ffb8b8"/>
      <path id="Path_2518" data-name="Path 2518" d="M454.252,438.082s6.831-7.515,8.2-6.148,5.465,2.049,4.782,4.782S452.2,448.329,452.2,448.329Z" transform="translate(-324.488 -341.779)" opacity="0.1"/>
      <path id="Path_2519" data-name="Path 2519" d="M338.976,449.038V454.5s-.683,12.3,3.416,11.613,2.049-10.93,2.049-10.93l-.683-6.148Z" transform="translate(-248.151 -353.419)" fill="#ffb8b8"/>
      <path id="Path_2520" data-name="Path 2520" d="M278.984,570.557s-6.148,9.564-8.2,10.247-12.98,6.831-14.346,12.98l-9.564,12.3,4.782,6.148S273.519,589,279.667,586.952s12.3-12.3,12.3-12.3Z" transform="translate(-186.11 -435.316)" fill="#ffb8b8"/>
      <path id="Path_2521" data-name="Path 2521" d="M447.509,522.369s12.98,2.049,10.93,10.247-21.86,25.276-21.86,25.276l-.683,4.1-7.515,1.366-3.416-3.416.683-2.049s8.2-7.515,8.881-10.247,8.2-13.663,11.613-14.346l-4.782-2.732Z" transform="translate(-306.132 -402.84)" fill="#ffb8b8"/>
      <path id="Path_2522" data-name="Path 2522" d="M236.218,672.287s2.733-4.1-1.366-3.416-6.831,1.366-6.831,4.1,3.416,21.86,7.515,20.494.683-7.515.683-7.515,2.049-5.465,3.416-6.148,1.366-4.1,0-4.1S235.535,673.653,236.218,672.287Z" transform="translate(-173.402 -501.522)" fill="#2f2e41"/>
      <path id="Path_2523" data-name="Path 2523" d="M419.7,630.274s0-3.416-2.733,0-4.1,6.148-1.366,8.2,12.3,6.831,12.3,6.831,10.247,2.049,8.881-2.733c0,0-6.831-3.416-6.831-6.148s0-7.515-2.049-6.148S419.7,632.324,419.7,630.274Z" transform="translate(-298.817 -474.539)" fill="#2f2e41"/>
      <path id="Path_2524" data-name="Path 2524" d="M353.492,476.275s-9.564,1.366-8.881,15.029c0,0-12.3,12.3-8.881,16.4s10.93,11.613,13.663,9.564,10.93-17.762,10.93-17.762,19.128,6.831,22.544,3.416S389.7,491.3,389.7,491.3l-17.079-8.881Z" transform="translate(-245.588 -371.775)" fill="#2f2e41"/>
      <circle id="Ellipse_114" data-name="Ellipse 114" cx="8.198" cy="8.198" r="8.198" transform="translate(126.348 49.166)" fill="#ffb8b8"/>
      <path id="Path_2525" data-name="Path 2525" d="M441.345,333.8s-4.782,7.515-6.148,8.2,9.564,7.514,9.564,7.514,0-8.881,3.416-10.93Z" transform="translate(-312.948 -275.758)" fill="#ffb8b8"/>
      <path id="Path_2526" data-name="Path 2526" d="M406.65,354.672s-10.93-3.416-12.98,2.049-6.831,15.712-6.148,22.544,2.049,5.465,0,7.515-3.416.683-2.733,3.416,1.366,2.733.683,4.1,8.2,6.148,15.712,6.831l7.515.683s0-12.3,1.366-15.029,4.1-8.2,4.1-10.247V371.11a20.74,20.74,0,0,0-2.733-10.29h0S407.333,354.672,406.65,354.672Z" transform="translate(-278.936 -289.111)" fill="#019da9"/>
      <path id="Path_2527" data-name="Path 2527" d="M363.265,365.232s-25.276,2.049-28.009,8.881-4.1,20.494-1.366,20.494,6.148,1.366,6.831,0,3.416-15.029,4.1-15.029S366,377.529,366,377.529,374.878,366.6,363.265,365.232Z" transform="translate(-243.748 -296.938)" fill="#019da9"/>
      <path id="Path_2528" data-name="Path 2528" d="M454.516,310.405s2.175-3.781,4.895-.5,7.143-2.751,6.464-4.038-3.077.058-7.187-1.286-12.026-4.08-13.352,4.848,1.832,7.992,1.832,7.992,1.447-7.911,2.756-5.639l1.308,2.272,1.135.279Z" transform="translate(-319.641 -255.074)" fill="#2f2e41"/>
      <path id="Path_2517" data-name="Path 2517" d="M454.252,438.082s6.831-7.515,8.2-6.148,5.465,2.049,4.782,4.782S452.2,448.329,452.2,448.329Z" transform="translate(-324.488 -341.779)" fill="#019da9"/>
    </g>
    <path id="Path_2511" data-name="Path 2511" d="M1008.387,668.5c0-10.456-5.306-18.933-11.851-18.933-4.114,0-7.737,3.35-9.862,8.434a5.945,5.945,0,0,0-2.265-.454,7.1,7.1,0,0,0-5.307,2.733c-1.915-6.339-5.977-10.713-10.678-10.713-4.4,0-8.229,3.826-10.275,9.5a6.474,6.474,0,0,0-4.056-1.525c-5.023,0-9.095,6.505-9.095,14.53a21.179,21.179,0,0,0,1.433,7.824H1006A26.935,26.935,0,0,0,1008.387,668.5Z" transform="translate(-777.314 -493.907)" fill="#019da9"/>
    <g id="Group_265" data-name="Group 265" transform="translate(-60)">
      <rect id="Rectangle_880" data-name="Rectangle 880" width="17.802" height="2.064" transform="translate(250.456 143.966)" fill="#2f2e41"/>
      <ellipse id="Ellipse_120" data-name="Ellipse 120" cx="1.548" cy="6.192" rx="1.548" ry="6.192" transform="translate(266.71 138.807)" fill="#2f2e41"/>
      <ellipse id="Ellipse_121" data-name="Ellipse 121" cx="1.548" cy="6.192" rx="1.548" ry="6.192" transform="translate(248.908 138.807)" fill="#2f2e41"/>
    </g>
    <path id="Path_2544" data-name="Path 2544" d="M137.236,564.485c0-7.6-4.707-13.766-10.514-13.766-3.65,0-6.864,2.436-8.749,6.132a6.293,6.293,0,0,0-2.009-.33,6.845,6.845,0,0,0-4.708,1.987c-1.7-4.609-5.3-7.789-9.474-7.789-3.9,0-7.3,2.782-9.116,6.911a6.536,6.536,0,0,0-3.6-1.109c-4.456,0-8.069,4.73-8.069,10.565a12.979,12.979,0,0,0,1.271,5.689h52.845a16.644,16.644,0,0,0,2.12-8.289Z" transform="translate(-74.173 -422.191)" fill="#019da9" opacity="0.3"/>
  </g>
</svg>
