<svg xmlns="http://www.w3.org/2000/svg" xmlns:xlink="http://www.w3.org/1999/xlink" width="271.78" height="181.899" viewBox="0 0 271.78 181.899">
  <defs>
    <clipPath id="clip-path">
      <path id="Path_2546" data-name="Path 2546" d="M137.815,94.44c17.423-.609,34.016-6.228,49.852-12.382s31.542-12.974,48.547-16.234c10.95-2.1,23.46-2.392,32.273,3.475,8.48,5.643,11.222,15.385,12.694,24.422,1.109,6.8,1.76,13.96-1.276,20.325-2.109,4.421-5.853,8.136-8.443,12.37-9.016,14.729-2.647,32.9,7.122,47.281,4.581,6.747,9.893,13.184,13.427,20.367s5.168,15.413,2.076,22.74c-3.067,7.261-10.368,12.717-18.28,16.553-16.069,7.785-35,10.023-53.468,11.288-40.874,2.8-81.964,1.585-122.947.373-15.166-.448-30.4-.9-45.318-3.248-8.287-1.3-16.841-3.369-22.856-8.36-7.636-6.334-9.528-17.06-4.411-25,8.582-13.323,32.318-16.631,38.312-30.931,3.3-7.87-.09-16.638-4.888-23.936-10.294-15.659-27.548-29.4-28.458-47.295-.623-12.293,7.671-24.6,20.5-30.431,13.446-6.1,32.082-5.329,42,4.763C104.483,90.977,122.43,94.975,137.815,94.44Z" transform="translate(-41.719 -76.349)" fill="#f70" opacity="0.1"/>
    </clipPath>
    <linearGradient id="linear-gradient" x1="0.5" y1="1" x2="0.5" gradientUnits="objectBoundingBox">
      <stop offset="0" stop-color="gray" stop-opacity="0.251"/>
      <stop offset="0.54" stop-color="gray" stop-opacity="0.122"/>
      <stop offset="1" stop-color="gray" stop-opacity="0.102"/>
    </linearGradient>
  </defs>
  <g id="illustration" transform="translate(17.779 11.899)">
    <g id="Mask_Group_4" data-name="Mask Group 4" clip-path="url(#clip-path)">
      <path id="Path_2680" data-name="Path 2680" d="M343.292,783.918c0,3.073-10.149,5.876-26.827,7.995H159.985c-16.676-2.119-26.825-4.922-26.825-7.995,0-2.34,5.888-4.525,16.068-6.371h0l.287-.052c2.873-.515,6.085-1,9.594-1.461l.267-.035h0q4.177-.54,8.887-1.02l.3-.029q1.817-.186,3.709-.36h0l.486-.043c9.183-.828,19.622-1.5,30.942-1.947h.013q2.378-.093,4.807-.174,2.7-.093,5.468-.166c1.408-.039,2.833-.072,4.263-.1h.033c6.452-.143,13.117-.217,19.934-.217,16.855,0,32.786.453,46.9,1.258h.04c2.17.124,4.3.255,6.379.4l1.768.122q3.516.248,6.852.526h0C326.309,776.42,343.292,779.943,343.292,783.918Z" transform="translate(-125.498 -621.742)" fill="#fff1e5"/>
    </g>
    <path id="Path_2681" data-name="Path 2681" d="M137.815,94.44c17.423-.609,26.016,2.772,41.852-3.382s31.542-12.974,48.547-16.234c10.95-2.1,23.46-2.392,32.273,3.475,8.48,5.643,19.222,6.385,20.694,15.422,1.109,6.8,1.76,13.96-1.276,20.325-2.109,4.421-5.853,8.136-8.443,12.37-9.016,14.729-2.647,32.9,7.122,47.281,4.581,6.747,9.893,13.184,13.427,20.367s5.168,15.413,2.076,22.74c-3.067,7.261-10.368,12.717-18.28,16.553-16.069,7.785-35,10.023-53.468,11.288-40.874,2.8-81.964,1.585-122.947.373-15.166-.448-30.4-.9-45.318-3.248-8.287-1.3-16.841-3.369-22.856-8.36-7.636-6.334-9.528-17.06-4.411-25,8.582-13.323,32.318-16.631,38.312-30.931,3.3-7.87-.09-16.638-4.888-23.936-10.294-15.659-27.548-29.4-28.458-47.295-.623-12.293,7.671-22.6,20.5-28.431,13.446-6.1,32.082-7.329,42,2.763C104.483,90.977,122.43,94.975,137.815,94.44Z" transform="translate(-41.719 -76.349)" fill="#f70" opacity="0.1"/>
    <g id="Group_267" data-name="Group 267" transform="translate(98.15 94.536)" opacity="0.5">
      <path id="Path_2547" data-name="Path 2547" d="M463.23,402.58l6.86.141,1.122,1.54v5.321l-1.4.98H463.23l-1.4-1.54V403.98Z" transform="translate(-427.829 -402.574)" fill="#019da9"/>
      <path id="Path_2548" data-name="Path 2548" d="M490.54,467.847s6.3.98,6.86,0l-.141-.7L490.54,467Z" transform="translate(-454.995 -467)" fill="#fff" opacity="0.2"/>
      <path id="Path_2549" data-name="Path 2549" d="M489.619,542.086l-1.119,1.122v5.331l1.119,1.1s4.06,1.4,6.721.279l1.261-1.259v-5.331l-1.122-1.261Z" transform="translate(-454.778 -526.678)" fill="#019da9"/>
      <path id="Path_2550" data-name="Path 2550" d="M494.251,543.411s4.9,1.12,6.58,0V542.15h-6.86Z" transform="translate(-459.129 -526.742)" fill="#fff" opacity="0.2"/>
      <path id="Path_2551" data-name="Path 2551" d="M502.85,501.61v7.574a1.136,1.136,0,0,0,1.189,1.074h0a1.136,1.136,0,0,0,1.189-1.074V501.61a1.15,1.15,0,0,0-1.329-1.068h0A1.119,1.119,0,0,0,502.85,501.61Z" transform="translate(-465.347 -493.659)" fill="#019da9"/>
      <path id="Path_2552" data-name="Path 2552" d="M516.82,403.64l6.86.139,1.122,1.54v5.321l-1.4.98H516.82l-1.4-1.54v-5.042Z" transform="translate(-492.407 -403.417)" fill="#019da9"/>
      <path id="Path_2553" data-name="Path 2553" d="M544.14,468.929s6.3.98,6.86,0l-.139-.7-6.721-.139Z" transform="translate(-519.585 -467.866)" fill="#fff" opacity="0.2"/>
      <path id="Path_2554" data-name="Path 2554" d="M543.189,543.2l-1.119,1.122v5.331l1.119,1.109s4.062,1.4,6.721.279l1.261-1.259v-5.321L550.05,543.2Z" transform="translate(-519.332 -527.576)" fill="#019da9"/>
      <path id="Path_2555" data-name="Path 2555" d="M547.837,544.461s4.9,1.119,6.58,0V543.2H547.56Z" transform="translate(-523.702 -527.576)" fill="#fff" opacity="0.2"/>
      <path id="Path_2556" data-name="Path 2556" d="M556.39,502.66v7.574a1.138,1.138,0,0,0,1.189,1.074h0a1.138,1.138,0,0,0,1.191-1.074V502.66a1.151,1.151,0,0,0-1.331-1.068h0A1.119,1.119,0,0,0,556.39,502.66Z" transform="translate(-529.867 -494.494)" fill="#019da9"/>
      <path id="Path_2557" data-name="Path 2557" d="M591.672,423.39l5.649.117.923,1.267v4.38l-1.152.808h-5.419l-1.152-1.269v-4.15Z" transform="translate(-581.246 -419.117)" fill="#019da9"/>
      <path id="Path_2558" data-name="Path 2558" d="M618.4,488.533s5.185.806,5.647,0l-.115-.576-5.536-.117Z" transform="translate(-607.861 -483.567)" fill="#fff" opacity="0.2"/>
      <path id="Path_2559" data-name="Path 2559" d="M617.613,549.68l-.923.923v4.38l.923.923s3.342,1.152,5.536.23l1.037-1.037v-4.38l-.923-1.037Z" transform="translate(-607.646 -532.728)" fill="#019da9"/>
      <path id="Path_2560" data-name="Path 2560" d="M621.44,550.717s4.035.923,5.417,0V549.68H621.21Z" transform="translate(-611.243 -532.728)" fill="#fff" opacity="0.2"/>
      <path id="Path_2561" data-name="Path 2561" d="M628.52,516.285v6.235a.935.935,0,0,0,.98.884h0a.933.933,0,0,0,.978-.884v-6.235a.947.947,0,0,0-1.093-.88h0a.923.923,0,0,0-.865.88Z" transform="translate(-616.363 -505.471)" fill="#019da9"/>
      <path id="Path_2562" data-name="Path 2562" d="M635.792,424.26l5.649.115.921,1.267v4.382l-1.152.806h-5.417l-1.152-1.267v-4.15Z" transform="translate(-634.41 -419.809)" fill="#019da9"/>
      <path id="Path_2563" data-name="Path 2563" d="M662.512,489.4s5.187.808,5.649,0l-.115-.576-5.536-.115Z" transform="translate(-661.015 -484.259)" fill="#fff" opacity="0.2"/>
      <path id="Path_2564" data-name="Path 2564" d="M661.74,550.55l-.921.921v4.38l.921.923s3.344,1.152,5.536.232l1.035-1.031v-4.386l-.923-1.037Z" transform="translate(-660.82 -533.419)" fill="#019da9"/>
      <path id="Path_2565" data-name="Path 2565" d="M665.552,551.587s4.033.921,5.417,0V550.55H665.32Z" transform="translate(-664.399 -533.419)" fill="#fff" opacity="0.2"/>
      <path id="Path_2566" data-name="Path 2566" d="M672.63,517.174v6.233a.935.935,0,0,0,.98.884h0a.935.935,0,0,0,.98-.884v-6.233a.949.949,0,0,0-1.095-.878h0A.921.921,0,0,0,672.63,517.174Z" transform="translate(-669.519 -506.184)" fill="#019da9"/>
    </g>
    <path id="Path_2567" data-name="Path 2567" d="M79.476,252.773a3.461,3.461,0,0,1,2.132-1.564,7.792,7.792,0,0,1,2.682-.168,23.582,23.582,0,0,1,4.291.707,4.472,4.472,0,0,1,2.364,1.23c.016.02.035.045.053.066.9.236,1.794.6,2.665.894a25.019,25.019,0,0,0,2.665.724,15.789,15.789,0,0,1-3.3-2.327,9.328,9.328,0,0,1-1.23-1.468,4.882,4.882,0,0,1-2.05.137,7.4,7.4,0,0,1-3.553-2.2l-3.356-3.088a6.808,6.808,0,0,1-1.435-1.64,6.418,6.418,0,0,1-.537-2.985c-.016-1.407,0-2.813.041-4.218l-1.062.82a9.4,9.4,0,0,0-.931-5.036,5.618,5.618,0,0,1-.863-2.319,3.51,3.51,0,0,1,2.225-2.87,13.19,13.19,0,0,0,3.338-1.81c1.382-1.3,1.64-3.379,2.323-5.163a20.519,20.519,0,0,1,1.435-2.823l1.329-2.317a32.844,32.844,0,0,1,2.231-3.525,32.331,32.331,0,0,1,4.851-4.812l8.989-7.744a84.471,84.471,0,0,1,6.744-5.419c4.8-3.344,10.207-5.64,15.583-7.914a9.868,9.868,0,0,1,4.226-1.087,4.833,4.833,0,0,1,2.961,1.267,17.684,17.684,0,0,0,2.255-.857l.057-.027c-.016-.121-.035-.24-.047-.361-.018-.16-.029-.32-.041-.482a3.762,3.762,0,0,1-1.16-.379,1.392,1.392,0,0,1-.478-.371,1.7,1.7,0,0,1-.244-.908,40.719,40.719,0,0,1-.152-6.438,13.621,13.621,0,0,1,1.845-6.1,3.169,3.169,0,0,1,1.4-1.353c.82-.328,1.769-.023,2.645-.17,1.515-.256,2.46-1.739,3.557-2.831a8.628,8.628,0,0,1,10.721-.943,31.342,31.342,0,0,1,3.268,3.022,7.252,7.252,0,0,0,3.814,2.136,1.858,1.858,0,0,1,.773.205,1.592,1.592,0,0,1,.549.888,15.7,15.7,0,0,1,.929,3.566c.014-.074.027-.148.039-.221a6.954,6.954,0,0,1,.035,1.355,3.955,3.955,0,0,1-.488,1.64,2.225,2.225,0,0,1-1.122,1.07,3.055,3.055,0,0,1-1.081.174H161.2c.059.158.117.316.17.476a13.122,13.122,0,0,1,.687,4.205,12.892,12.892,0,0,1-12.8,12.991,12.753,12.753,0,0,1-2.532-.267c-.277.088-.554.178-.82.275a15.376,15.376,0,0,0-1.6.631c-.221.1-1.117.627-2.2,1.3h0l.074.154a8.148,8.148,0,0,1,2.356,7.879c-.783,3.049-3.352,5.663-3.094,8.8a5.373,5.373,0,0,1,.055,1.343,3.255,3.255,0,0,1-.937,1.571c-.361.4-.736.783-1.117,1.16.031,2,.205,4,.394,6,.016.174.02.351.023.529a3.691,3.691,0,0,1-.886,2.352,3.814,3.814,0,0,0-.72,2.776,19.155,19.155,0,0,0,1.3,3.957c2.063,5.911-.472,12.577.955,18.681a26.517,26.517,0,0,1,1.025,4.511,8.471,8.471,0,0,0,.267,2.87,5.384,5.384,0,0,0,1.626,1.878q1.343,1.15,2.616,2.378a36.215,36.215,0,0,1,3.965-1.866,7.114,7.114,0,0,1,.677-.234,29.23,29.23,0,0,1,5.524-3.564c1.575-.912,3.076-1.938,4.585-2.963a25.64,25.64,0,0,0,4.115-3.242c.615-.64,1.163-1.345,1.825-1.929a15.521,15.521,0,0,1,1.845-1.32,74.151,74.151,0,0,0,8.3-6.243c1.995-1.73,3.627-3.959,5.759-5.511a6.608,6.608,0,0,1,4.425-1.64,4.221,4.221,0,0,1,1.458.449,3.812,3.812,0,0,1,1.337-.3,6.826,6.826,0,0,1,3.609,1.343q9.842,5.981,19.991,11.429c1.366.734,2.739,1.462,4.043,2.3a27.461,27.461,0,0,1,6.672,6.083c.344.437.779.933,1.327.867a1.185,1.185,0,0,0,.424-.152,5.337,5.337,0,0,0,1.845-2.18,6.933,6.933,0,0,1,1.251-1.724h0a3.641,3.641,0,0,1,.439-.82c-.728-1.8-1.355-3.635-1.938-5.487-.3-.972-.6-1.95-.984-2.893-.955-2.333-2.479-4.447-3.018-6.916-.129-.6-.205-1.21-.305-1.813a12.838,12.838,0,1,1,9.28-1.765v.072a9.068,9.068,0,0,0,.121,1.23,15.571,15.571,0,0,0,1.409,3.918c.39.839.779,1.681,1.183,2.518a2.335,2.335,0,0,0,.56-.189,1.694,1.694,0,0,0,.629-.988,35.363,35.363,0,0,1,2.126-4.974,8.612,8.612,0,0,1,1.23-1.888,10.37,10.37,0,0,1,3.2-2.077c.205-.1.4-.205.593-.3a5.062,5.062,0,0,1,.533-.346,13.474,13.474,0,0,0,2.807-1.681c.6-.566,1.007-1.3,1.564-1.9a9.985,9.985,0,0,1,3.455-2.112,4.583,4.583,0,0,1,2.036-.533,2.44,2.44,0,0,1,.3.033,4.718,4.718,0,0,1,.5.115,2.744,2.744,0,0,0,.455-.3,4.5,4.5,0,0,0,1.3-2.53,11.826,11.826,0,0,0,.588-4.792,7.259,7.259,0,0,0-.18-.82c-.064-.1-.125-.205-.18-.318a10.7,10.7,0,0,1-5.6-16.5c.1-.144.205-.283.322-.422l-.123-.068a2.93,2.93,0,0,1-.867-3.584,6.465,6.465,0,0,1,2.77-2.791c.164-.1.33-.195.5-.289l.144-.078c.127-.07.252-.137.379-.205l.15-.076c.15-.076.3-.148.449-.217l.068-.033c.187-.084.373-.166.562-.244h0c.182-.076.365-.146.549-.205l.076-.029c.174-.064.351-.123.527-.18l.039-.012a13.784,13.784,0,0,1,3.99-.673,23.069,23.069,0,0,1,7.637,1.5,13.159,13.159,0,0,1,5.058,3.793,4.879,4.879,0,0,1,.845.139,8.49,8.49,0,0,1,3.02,1.6,9.636,9.636,0,0,1,2.009,1.993,8.6,8.6,0,0,1,1.355,3.233c.777,3.635-.178,7.381-.882,11.035s-1.109,7.635.615,10.914c.65,1.23,1.573,2.3,2.255,3.506a5.321,5.321,0,0,1,.763,4c-.478,1.626-2.05,2.649-2.87,4.125a5.056,5.056,0,0,0,.56,5.536c.055.066.111.131.17.205a2.052,2.052,0,0,0,.221.221,4.642,4.642,0,0,1-3.9-.765,6.915,6.915,0,0,1-2.3-2.212c-1.466-2.407-.808-5.52-1.325-8.3-.679-3.643-3.418-6.893-3.041-10.582.254-2.475,1.87-4.544,3.139-6.672a26.393,26.393,0,0,0,2.112-4.494l.07-.205h0a6.6,6.6,0,0,0,.465-3.281,4.588,4.588,0,0,0-.32-1.04V206a8.048,8.048,0,0,1-.7,3.1c-1.281,2.665-4.365,3.9-6.323,6.057-.082.09-.16.182-.238.277-.023.025-.043.051-.064.078l-.166.205-.07.1c-.051.072-.1.144-.15.217l-.064.092c-.066.1-.131.205-.193.318a4.883,4.883,0,0,1-1.214-1.845,1.931,1.931,0,0,1-.043-.189c-.016.016-.031.035-.047.053-.039.219-.07.439-.1.66h0a4.456,4.456,0,0,1-.1.941,41.407,41.407,0,0,0,.1,5.964c.07,1.056-.205,2.624.467,3.412l.021.023a1.083,1.083,0,0,0,.129.127h0c.115.119.232.236.34.359a14.273,14.273,0,0,1,3.227,9.608A33.067,33.067,0,0,1,268.4,246.96a32.034,32.034,0,0,1-1.755,3.9,6.8,6.8,0,0,1-1.355,1.823,8.168,8.168,0,0,1-1.968,1.175c-.172.082-.347.162-.519.246l-.441.205-3.356,1.6c-.615.9-1.21,1.833-1.81,2.764-.086.131-.17.267-.258.4-.656,1.025-1.316,2.05-1.989,3.047l-5.657,8.378a7.06,7.06,0,0,1-1.415,1.685,2.889,2.889,0,0,1-.529.33,2.764,2.764,0,0,1-.293.121.935.935,0,0,1,.15.634,1.072,1.072,0,0,1-.41.535c-1.279,1.058-2.7,2.173-3.1,3.8-.285,1.158,0,2.4-.256,3.563-.47,2.1-2.547,3.373-4.511,4.181A25.271,25.271,0,0,1,224.956,287a20.406,20.406,0,0,1-12.148-6.971c-.931-1.144-1.724-2.393-2.608-3.574a29.919,29.919,0,0,0-1.991-2.391,16.43,16.43,0,0,1-2.175-1.2,42,42,0,0,1-4.1-3.412c-1.007-.878-2.061-1.706-2.985-2.665a31.243,31.243,0,0,1-2.323-2.87q-2.46-3.26-5.083-6.391a10.127,10.127,0,0,0-3.231-2.87l-.059-.025a7.4,7.4,0,0,1-1.394,2.491c-2.112,3.281-4.322,6.657-7.586,8.749a24.247,24.247,0,0,1-5.827,2.485c-5.126,1.62-10.334,2.891-15.546,4.164-.172-.328-.34-.632-.529-.927a2.825,2.825,0,0,0-.226.271c-.023.033-.041.068-.064.1a.748.748,0,0,1,.111.031,1.458,1.458,0,0,1,.736.775,8.606,8.606,0,0,1,.642,3.691c.018,1.23,0,2.46,0,3.691a3.184,3.184,0,0,1-.205,1.349,2.791,2.791,0,0,1-2.313,1.23,19.33,19.33,0,0,1-4.716-.185,3.634,3.634,0,0,1-.437,1.044,7.45,7.45,0,0,1-3.969,2.938,35.25,35.25,0,0,1-4.886,1.1c-2.909.578-5.887,1.5-8.78.851-1.154-.26-2.255-.765-3.41-.986-2.643-.5-5.382.513-8.043.107a12.64,12.64,0,0,1-3.666-1.306,5.027,5.027,0,0,1-1.568-1.083,1.965,1.965,0,0,1-.506-1.782,7.2,7.2,0,0,1,.484-1,5.3,5.3,0,0,0,.347-1.681,46.162,46.162,0,0,1,1.1-6.463c.014-.059.031-.121.047-.182a27.95,27.95,0,0,1-5.593-3.3l-3.828-2.678a22.736,22.736,0,0,0-3.873-2.346,16.769,16.769,0,0,0-6.778-1.2c-.945,0-1.892.047-2.834.133a1.23,1.23,0,0,1,.264.455,1.688,1.688,0,0,1-.556,1.659,7.31,7.31,0,0,1-1.548.968,9.366,9.366,0,0,0-3.486,3.426,3.743,3.743,0,0,0-.574,2.983c.41,1.243,1.872,2.1,1.788,3.408a2.1,2.1,0,0,1-1.378,1.694,5.567,5.567,0,0,1-2.255.258,8.571,8.571,0,0,1-3.652-.7,9.457,9.457,0,0,1-2.015-1.534,5.853,5.853,0,0,1-1.476-1.772,5.4,5.4,0,0,1-.365-2.147c-.062-3.436.531-6.92-.152-10.287-.205-1.025-.533-2.028-.707-3.061a21.564,21.564,0,0,1-.066-4.945A5.4,5.4,0,0,1,79.476,252.773Z" transform="translate(-58.345 -131.158)" fill="url(#linear-gradient)"/>
    <path id="Path_2568" data-name="Path 2568" d="M711.5,323.727a3.406,3.406,0,0,1,1.189,2.561c.437,4.115-1.261,8.189-1.148,12.325.09,3.291,1.316,6.43,2.526,9.491a56.492,56.492,0,0,1,3.553,16.493c.416,5.6,1.025,11.431,4.031,16.167.683,1.072,1.478,2.069,2.147,3.147.7,1.128,1.257,2.337,1.876,3.51a37.77,37.77,0,0,0,6.971,9.364,9.619,9.619,0,0,0,2.735,2.036,5.507,5.507,0,0,0,4.277.045,4.088,4.088,0,0,0,2.641-3.406,6.064,6.064,0,0,0-1.571-3.668,60.2,60.2,0,0,0-9.432-10,5.43,5.43,0,0,1-1.64-1.86,8.315,8.315,0,0,1-.266-2.844,25.008,25.008,0,0,0-1.025-4.466c-1.435-6.046,1.115-12.649-.96-18.506a18.646,18.646,0,0,1-1.308-3.918,3.724,3.724,0,0,1,.724-2.752,3.617,3.617,0,0,0,.888-2.329,4.422,4.422,0,0,0-.021-.523,56.541,56.541,0,0,1-.363-8.072,18.926,18.926,0,0,1,1.913-7.791,22.135,22.135,0,0,0,1.874-3.74,9.47,9.47,0,0,0-.9-6.561,11.446,11.446,0,0,0-3.123-4.23,8.365,8.365,0,0,0-9.249-.588,13.658,13.658,0,0,0-4.656,5.462C712.349,320.633,711.486,321.951,711.5,323.727Z" transform="translate(-647.048 -249.637)" opacity="0.06"/>
    <path id="Path_2569" data-name="Path 2569" d="M735.512,258.54q.591,1.593,1.175,3.186c.258.7.515,1.4.781,2.1a32.551,32.551,0,0,0,4.759,9.034c-.322-.4,2.706-2.4,4.939-3.764,1.089-.67,1.991-1.187,2.212-1.29a16.184,16.184,0,0,1,1.614-.627c.851-.287,1.712-.535,2.563-.845,1.968-.711.593-1.78-.25-2.928-2.758-3.76-3.281-8.9-6.411-12.353a11.546,11.546,0,0,1-5.183,5.013c-.043.023-.088.043-.133.062-1.86.869-3.914,1.245-5.837,1.972-.1.039-.226.094-.26.205A.41.41,0,0,0,735.512,258.54Z" transform="translate(-664.227 -200.791)" fill="#a1616a"/>
    <path id="Path_2570" data-name="Path 2570" d="M843.059,613.541a9.249,9.249,0,0,1,.953,8.851,3,3,0,0,1-.691,1.068,3.236,3.236,0,0,1-1.318.615,28.377,28.377,0,0,1-12.589.205,22.155,22.155,0,0,1-4.146-1.056,27.7,27.7,0,0,1-5.729-3.309l-3.851-2.653a23.34,23.34,0,0,0-3.9-2.325,17.123,17.123,0,0,0-6.817-1.183,31.816,31.816,0,0,0-5.946.568c-1.306.252-2.87.513-3.789-.441a3.588,3.588,0,0,1-.783-2.073,30.892,30.892,0,0,1,.023-8.728,1.134,1.134,0,0,1,.252-.666,1.026,1.026,0,0,1,.508-.232c1.815-.41,3.635.441,5.4,1.025,3.664,1.218,7.6,1.363,11.326,2.366,3.912,1.052,7.586,3.043,11.63,3.447,1.927.193,3.863.025,5.794.068,1.792.039,3.463.658,5.218.732C837.991,609.969,840.933,610.56,843.059,613.541Z" transform="translate(-766.422 -479.843)" fill="#a1616a"/>
    <path id="Path_2571" data-name="Path 2571" d="M843.059,613.541a9.249,9.249,0,0,1,.953,8.851,3,3,0,0,1-.691,1.068,3.236,3.236,0,0,1-1.318.615,28.377,28.377,0,0,1-12.589.205,22.155,22.155,0,0,1-4.146-1.056,27.7,27.7,0,0,1-5.729-3.309l-3.851-2.653a23.34,23.34,0,0,0-3.9-2.325,17.123,17.123,0,0,0-6.817-1.183,31.816,31.816,0,0,0-5.946.568c-1.306.252-2.87.513-3.789-.441a3.588,3.588,0,0,1-.783-2.073,30.892,30.892,0,0,1,.023-8.728,1.134,1.134,0,0,1,.252-.666,1.026,1.026,0,0,1,.508-.232c1.815-.41,3.635.441,5.4,1.025,3.664,1.218,7.6,1.363,11.326,2.366,3.912,1.052,7.586,3.043,11.63,3.447,1.927.193,3.863.025,5.794.068,1.792.039,3.463.658,5.218.732C837.991,609.969,840.933,610.56,843.059,613.541Z" transform="translate(-766.422 -479.843)" opacity="0.06"/>
    <path id="Path_2572" data-name="Path 2572" d="M860.47,526.2a2.775,2.775,0,0,1,.047,1.376,2.562,2.562,0,0,1-.82,1.1c-3.485,3.121-8.466,3.767-13.122,4.273a9.934,9.934,0,0,1-7.041-1.156,31.165,31.165,0,0,1-6.457-3.719c-1.9-1.538-3.418-3.506-5.382-4.956-2.233-1.64-4.978-2.579-6.971-4.511a9.372,9.372,0,0,1-2.733-5.179,14.78,14.78,0,0,1,0-4.08,12.135,12.135,0,0,1,1.165-4.529,10.95,10.95,0,0,1,3.826-3.8,19.862,19.862,0,0,1,10.867-3.363c5.331.047,10.252,3.149,14.078,6.633a41.433,41.433,0,0,1,9.637,13.108,40.026,40.026,0,0,1,2.907,8.8Z" transform="translate(-787.142 -396.835)" fill="#464353"/>
    <path id="Path_2573" data-name="Path 2573" d="M860.47,526.2a2.775,2.775,0,0,1,.047,1.376,2.562,2.562,0,0,1-.82,1.1c-3.485,3.121-8.466,3.767-13.122,4.273a9.934,9.934,0,0,1-7.041-1.156,31.165,31.165,0,0,1-6.457-3.719c-1.9-1.538-3.418-3.506-5.382-4.956-2.233-1.64-4.978-2.579-6.971-4.511a9.372,9.372,0,0,1-2.733-5.179,14.78,14.78,0,0,1,0-4.08,12.135,12.135,0,0,1,1.165-4.529,10.95,10.95,0,0,1,3.826-3.8,19.862,19.862,0,0,1,10.867-3.363c5.331.047,10.252,3.149,14.078,6.633a41.433,41.433,0,0,1,9.637,13.108,40.026,40.026,0,0,1,2.907,8.8Z" transform="translate(-787.142 -396.835)" opacity="0.06"/>
    <path id="Path_2574" data-name="Path 2574" d="M711.5,323.727a3.406,3.406,0,0,1,1.189,2.561c.437,4.115-1.261,8.189-1.148,12.325.09,3.291,1.316,6.43,2.526,9.491a56.492,56.492,0,0,1,3.553,16.493c.416,5.6,1.025,11.431,4.031,16.167.683,1.072,1.478,2.069,2.147,3.147.7,1.128,1.257,2.337,1.876,3.51a37.77,37.77,0,0,0,6.971,9.364,9.619,9.619,0,0,0,2.735,2.036,5.507,5.507,0,0,0,4.277.045,4.088,4.088,0,0,0,2.641-3.406,6.064,6.064,0,0,0-1.571-3.668,60.2,60.2,0,0,0-9.432-10,5.43,5.43,0,0,1-1.64-1.86,8.315,8.315,0,0,1-.266-2.844,25.008,25.008,0,0,0-1.025-4.466c-1.435-6.046,1.115-12.649-.96-18.506a18.646,18.646,0,0,1-1.308-3.918,3.724,3.724,0,0,1,.724-2.752,3.617,3.617,0,0,0,.888-2.329,4.422,4.422,0,0,0-.021-.523,56.541,56.541,0,0,1-.363-8.072,18.926,18.926,0,0,1,1.913-7.791,22.135,22.135,0,0,0,1.874-3.74,9.47,9.47,0,0,0-.9-6.561,11.446,11.446,0,0,0-3.123-4.23,8.365,8.365,0,0,0-9.249-.588,13.658,13.658,0,0,0-4.656,5.462C712.349,320.633,711.486,321.951,711.5,323.727Z" transform="translate(-647.048 -249.637)" fill="#a1616a"/>
    <ellipse id="Ellipse_122" data-name="Ellipse 122" cx="7.761" cy="12.177" rx="7.761" ry="12.177" transform="translate(68.018 63.511)" fill="#a1616a"/>
    <path id="Path_2575" data-name="Path 2575" d="M711.93,658.367a2.706,2.706,0,0,0-.41,2.255,3.943,3.943,0,0,1-2.52.734,7.791,7.791,0,0,1-2.594-.6,8.57,8.57,0,0,1-2.018-1.058,8.893,8.893,0,0,1-2.46-3.1c-.347-.648-.642-1.486-.205-2.069a1.984,1.984,0,0,1,.615-.476,36.524,36.524,0,0,1,4.921-2.339,3.617,3.617,0,0,1,1.484-.332,3.182,3.182,0,0,1,1.7.765,9.226,9.226,0,0,1,2.649,3.28c.193.41.775,1.384.486,1.806-.131.195-.615.262-.82.385a2.651,2.651,0,0,0-.83.74Z" transform="translate(-616.359 -519.048)" fill="#fbbebe"/>
    <path id="Path_2576" data-name="Path 2576" d="M711.93,658.367a2.706,2.706,0,0,0-.41,2.255,3.943,3.943,0,0,1-2.52.734,7.791,7.791,0,0,1-2.594-.6,8.57,8.57,0,0,1-2.018-1.058,8.893,8.893,0,0,1-2.46-3.1c-.347-.648-.642-1.486-.205-2.069a1.984,1.984,0,0,1,.615-.476,36.524,36.524,0,0,1,4.921-2.339,3.617,3.617,0,0,1,1.484-.332,3.182,3.182,0,0,1,1.7.765,9.226,9.226,0,0,1,2.649,3.28c.193.41.775,1.384.486,1.806-.131.195-.615.262-.82.385a2.651,2.651,0,0,0-.83.74Z" transform="translate(-616.359 -519.048)" opacity="0.03"/>
    <path id="Path_2577" data-name="Path 2577" d="M716.446,662.236c-3.469.644-6.659,2.321-10.069,3.225a33.474,33.474,0,0,0-4.119,1.152,5.607,5.607,0,0,0-3.129,2.764,7.921,7.921,0,0,0-.474,1.952,2.8,2.8,0,0,0,3.008,3.9c3.6.429,7.209.859,10.826,1.163a18.936,18.936,0,0,1,2.184.26c.595.119,1.175.3,1.765.439.765.178,1.542.291,2.317.41a23.91,23.91,0,0,0,5.979.353,2.787,2.787,0,0,0,2.325-1.214,3.094,3.094,0,0,0,.2-1.337c.01-1.218.021-2.434,0-3.65a8.278,8.278,0,0,0-.646-3.658,1.454,1.454,0,0,0-.74-.769,1.7,1.7,0,0,0-.636-.057,7.508,7.508,0,0,0-3.123.558c-.757.375-1.372,1-2.143,1.341-1.46.648-3.221.182-4.7.791a5.885,5.885,0,0,1-.01-3.225,25.1,25.1,0,0,0,.724-3.268,2.081,2.081,0,0,1,.139-.714C716.242,662.422,716.2,662.2,716.446,662.236Z" transform="translate(-629.367 -527.667)" fill="#464353"/>
    <path id="Path_2578" data-name="Path 2578" d="M716.446,662.236c-3.469.644-6.659,2.321-10.069,3.225a33.474,33.474,0,0,0-4.119,1.152,5.607,5.607,0,0,0-3.129,2.764,7.921,7.921,0,0,0-.474,1.952,2.8,2.8,0,0,0,3.008,3.9c3.6.429,7.209.859,10.826,1.163a18.936,18.936,0,0,1,2.184.26c.595.119,1.175.3,1.765.439.765.178,1.542.291,2.317.41a23.91,23.91,0,0,0,5.979.353,2.787,2.787,0,0,0,2.325-1.214,3.094,3.094,0,0,0,.2-1.337c.01-1.218.021-2.434,0-3.65a8.278,8.278,0,0,0-.646-3.658,1.454,1.454,0,0,0-.74-.769,1.7,1.7,0,0,0-.636-.057,7.508,7.508,0,0,0-3.123.558c-.757.375-1.372,1-2.143,1.341-1.46.648-3.221.182-4.7.791a5.885,5.885,0,0,1-.01-3.225,25.1,25.1,0,0,0,.724-3.268,2.081,2.081,0,0,1,.139-.714C716.242,662.422,716.2,662.2,716.446,662.236Z" transform="translate(-629.367 -527.667)" opacity="0.06"/>
    <path id="Path_2579" data-name="Path 2579" d="M219.1,442.567c.7-.221,1.374.4,1.765,1.025a9.183,9.183,0,0,1,.193,8.714,6.615,6.615,0,0,1-1.263,1.88,12.16,12.16,0,0,1-2.46,1.64,18.513,18.513,0,0,0-5.9,5.536c-1,1.478-1.792,3.1-2.93,4.48-2.8,3.387-7.4,4.921-10.12,8.365a10.657,10.657,0,0,1-2.067,2.368,3.514,3.514,0,0,1-5.5-2.723,39.5,39.5,0,0,1-2.741-4.956,58.973,58.973,0,0,1-3.076-7.97c-.305-.964-.6-1.933-.99-2.87-.962-2.313-2.493-4.406-3.034-6.85a29.565,29.565,0,0,0-.586-2.95A5.616,5.616,0,0,0,178.984,446c-2.132-2.073-3.281-5.093-4.976-7.533a16.264,16.264,0,0,1-1.86-3.086,4.881,4.881,0,0,1-.205-3.52,2.936,2.936,0,0,1,2.735-1.974,4.154,4.154,0,0,1,1.536.472,17.11,17.11,0,0,1,4.5,3.1,21.773,21.773,0,0,1,1.64,1.763c2.506,2.994,4.466,6.627,4.638,10.526.057,1.337-.049,2.819.8,3.855,2.341,2.86,3.094,6.793,5.091,9.905a8.553,8.553,0,0,0,3.566,3.576,1.521,1.521,0,0,0,.75.148c.632-.072.994-.736,1.261-1.314a50.865,50.865,0,0,1,3.607-6.51,6.2,6.2,0,0,1,1.989-2.143c.586-.326,1.267-.472,1.819-.853a5.385,5.385,0,0,0,1.571-2.282,35.453,35.453,0,0,1,4.882-7.611c.89-1.06,2.063-2.155,3.436-2C217.069,440.677,217.868,442.052,219.1,442.567Z" transform="translate(-16.136 -342.958)" fill="#fbbebe"/>
    <path id="Path_2580" data-name="Path 2580" d="M219.1,442.567c.7-.221,1.374.4,1.765,1.025a9.183,9.183,0,0,1,.193,8.714,6.615,6.615,0,0,1-1.263,1.88,12.16,12.16,0,0,1-2.46,1.64,18.513,18.513,0,0,0-5.9,5.536c-1,1.478-1.792,3.1-2.93,4.48-2.8,3.387-7.4,4.921-10.12,8.365a10.657,10.657,0,0,1-2.067,2.368,3.514,3.514,0,0,1-5.5-2.723,39.5,39.5,0,0,1-2.741-4.956,58.973,58.973,0,0,1-3.076-7.97c-.305-.964-.6-1.933-.99-2.87-.962-2.313-2.493-4.406-3.034-6.85a29.565,29.565,0,0,0-.586-2.95A5.616,5.616,0,0,0,178.984,446c-2.132-2.073-3.281-5.093-4.976-7.533a16.264,16.264,0,0,1-1.86-3.086,4.881,4.881,0,0,1-.205-3.52,2.936,2.936,0,0,1,2.735-1.974,4.154,4.154,0,0,1,1.536.472,17.11,17.11,0,0,1,4.5,3.1,21.773,21.773,0,0,1,1.64,1.763c2.506,2.994,4.466,6.627,4.638,10.526.057,1.337-.049,2.819.8,3.855,2.341,2.86,3.094,6.793,5.091,9.905a8.553,8.553,0,0,0,3.566,3.576,1.521,1.521,0,0,0,.75.148c.632-.072.994-.736,1.261-1.314a50.865,50.865,0,0,1,3.607-6.51,6.2,6.2,0,0,1,1.989-2.143c.586-.326,1.267-.472,1.819-.853a5.385,5.385,0,0,0,1.571-2.282,35.453,35.453,0,0,1,4.882-7.611c.89-1.06,2.063-2.155,3.436-2C217.069,440.677,217.868,442.052,219.1,442.567Z" transform="translate(-16.136 -342.958)" opacity="0.03"/>
    <ellipse id="Ellipse_123" data-name="Ellipse 123" cx="5.405" cy="4.878" rx="5.405" ry="4.878" transform="translate(197.706 80.057)" fill="#fbbebe"/>
    <ellipse id="Ellipse_124" data-name="Ellipse 124" cx="1.946" cy="1.946" rx="1.946" ry="1.946" transform="translate(196.096 81.986)" fill="#fbbebe"/>
    <ellipse id="Ellipse_125" data-name="Ellipse 125" cx="7.445" cy="1.991" rx="7.445" ry="1.991" transform="translate(194.956 80.953)" fill="#fbbebe"/>
    <path id="Path_2581" data-name="Path 2581" d="M162.375,345.765a13.483,13.483,0,0,0-.426,1.753,10.471,10.471,0,0,0,1.612-2.118,1.577,1.577,0,0,0,.285-.451,12.044,12.044,0,0,0,1.117-4.8,10.531,10.531,0,1,0-13.3,10.159,13.157,13.157,0,0,1-.82-3.127,2.256,2.256,0,0,1,.152-1.056,2.407,2.407,0,0,1,.773-.89,6.678,6.678,0,0,1,4.158-1.263,11.41,11.41,0,0,1,4.275,1.025c.424.182.933.429,1.435.6A3.742,3.742,0,0,0,162.375,345.765Z" transform="translate(46.665 -263.246)" fill="#fbbebe"/>
    <path id="Path_2582" data-name="Path 2582" d="M156.268,438.229a3.592,3.592,0,0,0,3.383,1.314,11.546,11.546,0,0,0,6.336-2.953c1.825-1.517,3.42-3.281,5.286-4.74a18.76,18.76,0,0,1,11.8-3.877c-.863-.716-.545-2.413-.615-3.529a34.5,34.5,0,0,1,0-6.793c.031-.24.066-.476.107-.711-.07.074-.144.146-.219.219a10.543,10.543,0,0,1-10.065,2.567,8.2,8.2,0,0,1,.264,1.091,11.441,11.441,0,0,1-.593,4.744,4.432,4.432,0,0,1-1.312,2.505,5.776,5.776,0,0,1-1.71.724,9.431,9.431,0,0,0-3.186,1.845,25.776,25.776,0,0,1-1.925,1.724,13.4,13.4,0,0,1-2.081,1.074,26.038,26.038,0,0,0-5,3.032,1.64,1.64,0,0,0-.65.771A1.267,1.267,0,0,0,156.268,438.229Z" transform="translate(26.067 -332.668)" fill="#fbbebe"/>
    <path id="Path_2583" data-name="Path 2583" d="M138.6,496.467c.141.935,1,1.665,1.6,2.391,1.644,1.985,3.311,3.976,5.15,5.792a80.591,80.591,0,0,0,6.288,5.4l2.8,2.241a3.527,3.527,0,0,0,1.191.718,2.176,2.176,0,0,0,1.534-.182,3,3,0,0,0,.531-.326,7.191,7.191,0,0,0,1.423-1.671q2.842-4.148,5.69-8.3c.677-.988,1.341-2,2-3.018.088-.131.172-.264.26-.4.6-.923,1.2-1.845,1.821-2.737l3.375-1.581.443-.205.523-.244a8.282,8.282,0,0,0,1.979-1.163,6.7,6.7,0,0,0,1.363-1.806,31.61,31.61,0,0,0,1.767-3.869,32.278,32.278,0,0,0,2.752-11.3,13.96,13.96,0,0,0-3.246-9.516,10.211,10.211,0,0,0-1-.972,1.793,1.793,0,0,0-1.456-.5c-.564.08-1.1.162-1.64.254q-2.239.385-4.443.943a9.2,9.2,0,0,1-4.035.455c-.215-.043-.429-.1-.642-.16-.174-.045-.347-.088-.525-.117a2.439,2.439,0,0,0-.3-.033,4.708,4.708,0,0,0-2.05.529,10.188,10.188,0,0,0-3.486,2.091c-.562.595-.974,1.325-1.573,1.884a13.591,13.591,0,0,1-2.825,1.667,5.064,5.064,0,0,0-.535.342,6.081,6.081,0,0,0-1.025.974h0c-1.243,1.466-1.981,3.445-3.352,4.9a20.01,20.01,0,0,0-2.842,3.849c-.129.232-.254.465-.377.7q-.308.594-.572,1.2c-.045.1-.09.205-.131.314a18.806,18.806,0,0,0-.675,1.88c-.465,1.548-.775,3.219-1.808,4.461a22.383,22.383,0,0,1-2.565,2.18,4.538,4.538,0,0,0-1.247,1.7A2.424,2.424,0,0,0,138.6,496.467Z" transform="translate(31.627 -371.04)" fill="#fbbebe"/>
    <path id="Path_2584" data-name="Path 2584" d="M154.45,485.965q.353.445.724.878c.041.053.086.1.131.156a39.16,39.16,0,0,0,7.352,6.666c1.685,1.177,3.463,2.22,5.237,3.262l3.281,1.921a20.314,20.314,0,0,0,4.283,2.081c.488.146,1,.262,1.5.4.088-.131.172-.264.26-.4.6-.923,1.2-1.845,1.821-2.737l3.375-1.581a19.765,19.765,0,0,1-4.892-4.384,53.159,53.159,0,0,1-5.181-8.275,6.221,6.221,0,0,1-.638-1.476,5.076,5.076,0,0,1,.219-2.606,13.737,13.737,0,0,1,5.495-7.408,25.967,25.967,0,0,1,6.032-2.7,10.152,10.152,0,0,1,4.537-.785,9.968,9.968,0,0,0-1-.97,1.788,1.788,0,0,0-1.456-.5c-.564.08-1.1.162-1.64.256-1.1.336-2.175.738-3.248,1.152a15.228,15.228,0,0,0-2.05.929,18.355,18.355,0,0,0-1.888,1.322,47.181,47.181,0,0,1-5.6,3.672c-2.255,1.245-4.623,2.255-6.99,3.281a1.86,1.86,0,0,1-.81.205.636.636,0,0,1-.615-.48.773.773,0,0,1,.1-.429,4.275,4.275,0,0,1,2.184-1.669,52.87,52.87,0,0,0,9.616-6.551.965.965,0,0,0,.193-.205l-.525-.117a78.222,78.222,0,0,1-10.754,6.483q-.3.152-.6.3c-.144.072-.285.141-.431.205h0a9.177,9.177,0,0,0-2.782,1.845,8.5,8.5,0,0,0-1.23,1.868,35.106,35.106,0,0,0-2.141,4.921,1.111,1.111,0,0,1-.039.107,1.894,1.894,0,0,1-.377.7.8.8,0,0,1-.215.17C155.3,485.7,154.768,485.674,154.45,485.965Z" transform="translate(21.481 -372.852)" opacity="0.06"/>
    <path id="Path_2585" data-name="Path 2585" d="M174.23,466.6a78.006,78.006,0,0,1-10.754,6.481l-.6.3a10.622,10.622,0,0,0-3.215,2.05,8.559,8.559,0,0,0-1.23,1.87,34.754,34.754,0,0,0-2.138,4.921,1.664,1.664,0,0,1-.634.98c-.349.193-.9.178-1.212.47.279.349.562.693.855,1.025a39.1,39.1,0,0,0,7.352,6.668c1.685,1.177,3.463,2.221,5.237,3.262l3.281,1.921a20.405,20.405,0,0,0,4.283,2.079c.572.174,1.177.306,1.757.474.6-.923,1.2-1.845,1.821-2.737l3.818-1.788a19.215,19.215,0,0,1-5.331-4.646,53.044,53.044,0,0,1-5.181-8.273,6.256,6.256,0,0,1-.638-1.476,5.084,5.084,0,0,1,.219-2.608,13.737,13.737,0,0,1,5.481-7.387,26.053,26.053,0,0,1,6.032-2.7,10.15,10.15,0,0,1,4.537-.783,10.213,10.213,0,0,0-1-.972,1.793,1.793,0,0,0-1.456-.5c-.564.08-1.1.162-1.64.254-1.1.338-2.175.74-3.248,1.154a14.97,14.97,0,0,0-2.05.929,18.353,18.353,0,0,0-1.888,1.322,47.16,47.16,0,0,1-5.61,3.662c-2.255,1.247-4.624,2.266-6.99,3.281a1.856,1.856,0,0,1-.81.205.632.632,0,0,1-.615-.48.769.769,0,0,1,.1-.426,4.264,4.264,0,0,1,2.184-1.669,52.513,52.513,0,0,0,9.616-6.561.908.908,0,0,0,.193-.205Z" transform="translate(21.492 -371.04)" fill="#019da9"/>
    <ellipse id="Ellipse_126" data-name="Ellipse 126" cx="12.87" cy="12.87" rx="12.87" ry="12.87" transform="translate(154.124 80.953)" fill="#019da9"/>
    <path id="Path_2586" data-name="Path 2586" d="M450.98,562.918a27.623,27.623,0,0,1-6.971-2.911,41.19,41.19,0,0,1-4.117-3.379c-1.015-.869-2.073-1.689-3-2.649a31.3,31.3,0,0,1-2.337-2.834q-2.469-3.231-5.1-6.34a10.237,10.237,0,0,0-3.25-2.846c-2.335-1.1-5.077-.357-7.541.4a70.153,70.153,0,0,0-10.816,4.039c-1.964.978-3.867,2.069-5.85,3.006a82.753,82.753,0,0,1-11.308,4.056,1.435,1.435,0,0,1-.9.074,1.326,1.326,0,0,1-.535-.447,7.637,7.637,0,0,1-1.187-2.05.394.394,0,0,1,.1-.531,27.337,27.337,0,0,1,5.757-3.717c1.583-.9,3.1-1.919,4.611-2.934a25.23,25.23,0,0,0,4.14-3.211c.615-.634,1.169-1.333,1.835-1.911a15.375,15.375,0,0,1,1.866-1.308,74.982,74.982,0,0,0,8.349-6.186c2.005-1.714,3.648-3.922,5.79-5.46a6.737,6.737,0,0,1,4.451-1.63c1.956.205,3.4,1.845,4.763,3.26,4.582,4.759,10.364,8.164,15.478,12.349,4.174,3.412,8.076,7.465,13.161,9.265-.228.755-.308,1.509-.537,2.255a23.564,23.564,0,0,1-1.068,3.043,23.921,23.921,0,0,1-1.421,2.542l-2.038,3.328a8.412,8.412,0,0,1-1.425,1.9C451.564,562.383,450.98,562.489,450.98,562.918Z" transform="translate(-296.782 -417.874)" fill="#464353"/>
    <path id="Path_2587" data-name="Path 2587" d="M450.98,562.918a27.623,27.623,0,0,1-6.971-2.911,41.19,41.19,0,0,1-4.117-3.379c-1.015-.869-2.073-1.689-3-2.649a31.3,31.3,0,0,1-2.337-2.834q-2.469-3.231-5.1-6.34a10.237,10.237,0,0,0-3.25-2.846c-2.335-1.1-5.077-.357-7.541.4a70.153,70.153,0,0,0-10.816,4.039c-1.964.978-3.867,2.069-5.85,3.006a82.753,82.753,0,0,1-11.308,4.056,1.435,1.435,0,0,1-.9.074,1.326,1.326,0,0,1-.535-.447,7.637,7.637,0,0,1-1.187-2.05.394.394,0,0,1,.1-.531,27.337,27.337,0,0,1,5.757-3.717c1.583-.9,3.1-1.919,4.611-2.934a25.23,25.23,0,0,0,4.14-3.211c.615-.634,1.169-1.333,1.835-1.911a15.375,15.375,0,0,1,1.866-1.308,74.982,74.982,0,0,0,8.349-6.186c2.005-1.714,3.648-3.922,5.79-5.46a6.737,6.737,0,0,1,4.451-1.63c1.956.205,3.4,1.845,4.763,3.26,4.582,4.759,10.364,8.164,15.478,12.349,4.174,3.412,8.076,7.465,13.161,9.265-.228.755-.308,1.509-.537,2.255a23.564,23.564,0,0,1-1.068,3.043,23.921,23.921,0,0,1-1.421,2.542l-2.038,3.328a8.412,8.412,0,0,1-1.425,1.9C451.564,562.383,450.98,562.489,450.98,562.918Z" transform="translate(-296.782 -417.874)" opacity="0.06"/>
    <path id="Path_2588" data-name="Path 2588" d="M699.8,667.261a2.712,2.712,0,0,0-.41,2.255,3.935,3.935,0,0,1-2.514.74,7.894,7.894,0,0,1-2.6-.595,8.65,8.65,0,0,1-2.017-1.058,9,9,0,0,1-2.471-3.1c-.346-.646-.642-1.484-.195-2.067a1.934,1.934,0,0,1,.615-.476,36.628,36.628,0,0,1,4.911-2.339,3.66,3.66,0,0,1,1.484-.334,3.185,3.185,0,0,1,1.7.767,9.227,9.227,0,0,1,2.647,3.281c.193.41.775,1.386.488,1.808-.131.195-.615.263-.82.383A2.654,2.654,0,0,0,699.8,667.261Z" transform="translate(-601.734 -526.123)" fill="#fbbebe"/>
    <path id="Path_2589" data-name="Path 2589" d="M708.68,670.616c-3.469.646-6.659,2.321-10.069,3.225a33.465,33.465,0,0,0-4.119,1.152,5.607,5.607,0,0,0-3.129,2.764,7.942,7.942,0,0,0-.474,1.952,2.8,2.8,0,0,0,3.008,3.9c3.6.431,7.209.859,10.826,1.163a19.383,19.383,0,0,1,2.179.26c.595.121,1.175.3,1.765.439.763.18,1.542.291,2.317.41a23.917,23.917,0,0,0,5.979.351,2.787,2.787,0,0,0,2.325-1.214,3.1,3.1,0,0,0,.205-1.337c0-1.216.021-2.434,0-3.65a8.278,8.278,0,0,0-.646-3.658,1.46,1.46,0,0,0-.74-.769,1.7,1.7,0,0,0-.636-.057,7.509,7.509,0,0,0-3.123.558c-.757.375-1.3-.746-2.073-.41-1.462.646-.472-1.312-1.948-.7-.344-1.062-1.808-.431-1.554-1.519s-.658-.615-.554-1.735a2.094,2.094,0,0,1,.139-.714C708.475,670.8,708.438,670.581,708.68,670.616Z" transform="translate(-620.001 -534.329)" fill="#464353"/>
    <path id="Path_2590" data-name="Path 2590" d="M143.89,333.94a5.1,5.1,0,0,0,2.709.357,16.831,16.831,0,0,1,2.426.125,2.29,2.29,0,0,1,.834.221,2.087,2.087,0,0,1,.775.9,6.409,6.409,0,0,1,.654,2.013,4.62,4.62,0,0,0,.595,2.278c.67.851,1.716.72,2.665.888a7.175,7.175,0,0,1,2.339.894,5.78,5.78,0,0,1,2.711,3.98c.027.187.045.371.053.558.021.529-.033,1.068.037,1.587a2.765,2.765,0,0,0,.078.383.824.824,0,0,0,.035.109c.031-.24.066-.476.107-.711a10.47,10.47,0,0,0,1.612-2.118,1.576,1.576,0,0,0,.285-.451,12.044,12.044,0,0,0,1.117-4.8,10.528,10.528,0,0,0-19.029-6.213Z" transform="translate(48.708 -263.253)" opacity="0.06"/>
    <path id="Path_2591" data-name="Path 2591" d="M78.312,311.658a6.418,6.418,0,0,1,2.784-2.764,15.159,15.159,0,0,1,7.484-2.225,22.613,22.613,0,0,1,7.658,1.462,13.2,13.2,0,0,1,5.087,3.756,5.111,5.111,0,0,1,.851.137,8.574,8.574,0,0,1,3.037,1.587,9.666,9.666,0,0,1,2.022,1.974,8.484,8.484,0,0,1,1.363,3.2c.781,3.6-.18,7.316-.886,10.93s-1.117,7.564.615,10.811c.654,1.23,1.583,2.276,2.28,3.473a5.161,5.161,0,0,1,.765,3.967c-.472,1.616-2.059,2.641-2.887,4.095a4.921,4.921,0,0,0,.957,5.889,4.747,4.747,0,0,1-3.924-.757,6.934,6.934,0,0,1-2.311-2.192c-1.474-2.387-.82-5.468-1.333-8.226-.683-3.609-3.438-6.828-3.059-10.481.256-2.46,1.88-4.5,3.158-6.61a25.9,25.9,0,0,0,2.138-4.435,6.7,6.7,0,0,0,.539-3.44,4.632,4.632,0,0,0-.322-1.025v.117a7.855,7.855,0,0,1-.7,3.076c-1.525,3.117-5.587,4.265-7.307,7.277a4.857,4.857,0,0,1-1.23-1.835,8.427,8.427,0,0,1-.115-1.972,5.715,5.715,0,0,0-2.764-4.535,7.1,7.1,0,0,0-2.339-.892c-.947-.17-1.993-.041-2.665-.892a4.612,4.612,0,0,1-.6-2.276,6.368,6.368,0,0,0-.654-2.016,2.069,2.069,0,0,0-.775-.9,2.256,2.256,0,0,0-.837-.221,16.8,16.8,0,0,0-2.424-.125,5.031,5.031,0,0,1-2.743-.375A2.9,2.9,0,0,1,78.312,311.658Z" transform="translate(113.612 -245.007)" fill="#464353"/>
    <path id="Path_2592" data-name="Path 2592" d="M735.473,256.1v.084c.371,3.2,3.447,3.051,4.164,8.091.283,1.974,3.281,2.339,5.251,2.87.851-.287,1.712-.535,2.563-.845,1.968-.711.593-1.78-.25-2.928-2.758-3.76-3.281-8.9-6.411-12.353a11.546,11.546,0,0,1-5.183,5.013A.744.744,0,0,1,735.473,256.1Z" transform="translate(-658.124 -200.767)" opacity="0.06"/>
    <path id="Path_2593" data-name="Path 2593" d="M673.618,216.954a13.02,13.02,0,0,0,.082,1.452,12.87,12.87,0,1,0-.082-1.452Z" transform="translate(-596.341 -163.455)" fill="#a1616a"/>
    <path id="Path_2594" data-name="Path 2594" d="M812.052,273.847a10.019,10.019,0,0,0-4.252,1.074c-5.4,2.255-10.842,4.529-15.667,7.84a86.324,86.324,0,0,0-6.783,5.37l-9.04,7.681a32.718,32.718,0,0,0-4.88,4.767,32.372,32.372,0,0,0-2.241,3.486l-1.341,2.286a20.524,20.524,0,0,0-1.435,2.8c-.689,1.765-.945,3.824-2.335,5.114a13.56,13.56,0,0,1-3.358,1.792c-1.14.572-2.255,1.577-2.237,2.852a5.386,5.386,0,0,0,.869,2.3,9.206,9.206,0,0,1,.935,4.988l14.783-11.3A5.022,5.022,0,0,1,777,313.83a5.243,5.243,0,0,1,2.8.47,54.345,54.345,0,0,0,22.289,2.93,23.415,23.415,0,0,0,9.655-2.5,29.934,29.934,0,0,0,4.47-3.281,54.764,54.764,0,0,0,5.126-4.671,3.3,3.3,0,0,0,.941-1.558,5.167,5.167,0,0,0-.055-1.329c-.258-3.11,2.325-5.7,3.112-8.72a8,8,0,0,0-2.5-7.929c-1.761,1.542-1.7,4.25-1.493,6.582.277,3.139-.6,4.7-.324,7.836-1.115-.041-.912.677-1.388-.334a9.357,9.357,0,0,1-.658-3.264q-.494-6.04-1.2-12.06c-.234-2.007-.5-4.01-.757-6.016a8.3,8.3,0,0,0-.779-3.443A5.279,5.279,0,0,0,812.052,273.847Z" transform="translate(-739.952 -218.908)" fill="#019da9"/>
    <path id="Path_2595" data-name="Path 2595" d="M814.99,291.214a5.009,5.009,0,0,0-2.893.256q-2.5.742-4.974,1.568a13.483,13.483,0,0,0-3.853,1.778,21.083,21.083,0,0,0-4.55,6.014,14.411,14.411,0,0,0-.82,4.072,5.345,5.345,0,0,0,.022,1.8,4.368,4.368,0,0,0,.99,1.728,11.827,11.827,0,0,0,2.432,2.18c2.413,1.624,5.331,2.3,8.173,2.9a53.782,53.782,0,0,0,7.678,1.185,3.178,3.178,0,0,0,2.791-.8,3.135,3.135,0,0,0,.41-.808,30.579,30.579,0,0,0,1.921-12.554,9.247,9.247,0,0,0-.359-2.3,16.483,16.483,0,0,0-3.723-5.708,7.862,7.862,0,0,0-4.952-1.284" transform="translate(-744.819 -232.618)" fill="#a1616a"/>
    <path id="Path_2596" data-name="Path 2596" d="M729.669,322.317a3.406,3.406,0,0,1,1.189,2.561c.437,4.115-1.261,8.189-1.148,12.325.09,3.281,1.316,6.43,2.526,9.491a56.5,56.5,0,0,1,3.553,16.493c.416,5.6,1.025,11.431,4.031,16.167.683,1.072,1.478,2.069,2.147,3.147.7,1.128,1.257,2.337,1.876,3.51a37.772,37.772,0,0,0,6.971,9.364,9.621,9.621,0,0,0,2.735,2.036,5.507,5.507,0,0,0,4.277.045,4.088,4.088,0,0,0,2.641-3.406,6.063,6.063,0,0,0-1.571-3.668,60.207,60.207,0,0,0-9.432-10,5.429,5.429,0,0,1-1.64-1.86,8.317,8.317,0,0,1-.267-2.844,25,25,0,0,0-1.025-4.466c-1.435-6.046,1.115-12.649-.96-18.506a18.646,18.646,0,0,1-1.308-3.918,3.733,3.733,0,0,1,.724-2.752,3.629,3.629,0,0,0,.89-2.329,4.019,4.019,0,0,0-.023-.523,56.532,56.532,0,0,1-.363-8.072,18.925,18.925,0,0,1,1.913-7.791,22.139,22.139,0,0,0,1.874-3.74,9.47,9.47,0,0,0-.9-6.561,11.447,11.447,0,0,0-3.123-4.23A8.365,8.365,0,0,0,736,312.2a13.658,13.658,0,0,0-4.656,5.462C730.52,319.223,729.646,320.541,729.669,322.317Z" transform="translate(-668.944 -248.516)" opacity="0.06"/>
    <path id="Path_2597" data-name="Path 2597" d="M731.948,322.317a3.406,3.406,0,0,1,1.189,2.561c.437,4.115-1.261,8.189-1.148,12.325.09,3.281,1.316,6.43,2.526,9.491a56.563,56.563,0,0,1,3.553,16.493c.418,5.6,1.025,11.431,4.031,16.167.683,1.072,1.476,2.069,2.147,3.147.7,1.128,1.257,2.337,1.876,3.51a37.815,37.815,0,0,0,6.971,9.364,9.629,9.629,0,0,0,2.737,2.036,5.507,5.507,0,0,0,4.277.045,4.089,4.089,0,0,0,2.639-3.406,6.039,6.039,0,0,0-1.57-3.668,60.193,60.193,0,0,0-9.432-10,5.409,5.409,0,0,1-1.64-1.86,8.267,8.267,0,0,1-.266-2.844,25.014,25.014,0,0,0-1.025-4.466c-1.435-6.046,1.115-12.648-.96-18.506a18.652,18.652,0,0,1-1.31-3.918,3.742,3.742,0,0,1,.724-2.752,3.608,3.608,0,0,0,.914-2.329,4.041,4.041,0,0,0-.022-.523,56.835,56.835,0,0,1-.361-8.072,18.926,18.926,0,0,1,1.913-7.791,22.133,22.133,0,0,0,1.874-3.74,9.47,9.47,0,0,0-.9-6.561,11.47,11.47,0,0,0-3.123-4.23,8.365,8.365,0,0,0-9.249-.588,13.658,13.658,0,0,0-4.656,5.462C732.8,319.223,731.934,320.542,731.948,322.317Z" transform="translate(-671.69 -248.516)" fill="#a1616a"/>
    <path id="Path_2598" data-name="Path 2598" d="M982.44,627l.176.053" transform="translate(-942.917 -499.658)" fill="#464353"/>
    <path id="Path_2599" data-name="Path 2599" d="M808.187,670.825a1.524,1.524,0,0,0-.037-.205" transform="translate(-732.753 -534.335)" fill="#464353"/>
    <path id="Path_2600" data-name="Path 2600" d="M1012.465,595.388a4.54,4.54,0,0,0-2.376-1.216,23.864,23.864,0,0,0-4.306-.7,8.05,8.05,0,0,0-2.7.166,3.477,3.477,0,0,0-2.145,1.55,5.388,5.388,0,0,0-.5,2.323,21.236,21.236,0,0,0,.066,4.9c.174,1.025.5,2.018.711,3.035.685,3.334.09,6.785.152,10.188a5.266,5.266,0,0,0,.367,2.128,5.919,5.919,0,0,0,1.484,1.755,9.411,9.411,0,0,0,2.028,1.519,8.726,8.726,0,0,0,3.674.7,5.625,5.625,0,0,0,2.255-.256,2.1,2.1,0,0,0,1.388-1.677c.082-1.3-1.382-2.147-1.8-3.377a3.665,3.665,0,0,1,.578-2.955,9.35,9.35,0,0,1,3.508-3.393,7.447,7.447,0,0,0,1.556-.959,1.649,1.649,0,0,0,.56-1.64,1.957,1.957,0,0,0-1.773-1.095,6.088,6.088,0,0,1-2.163-.342,2.957,2.957,0,0,1-1.275-1.435,5.331,5.331,0,0,1-.232-4.013,4.93,4.93,0,0,1,.763-1.388c.308-.394.939-.726,1.158-1.156C1013.831,597.266,1012.988,596,1012.465,595.388Z" transform="translate(-980.99 -472.967)" fill="#019da9"/>
    <path id="Path_2601" data-name="Path 2601" d="M813.924,430.232c3.387-2.993,8.109-3.807,12.538-4.716q3.422-.7,6.811-1.558a25.4,25.4,0,0,1,4.511-.884,7.642,7.642,0,0,1,4.437.894,4.555,4.555,0,0,1,2.317,3.734c0,.615-.146,1.218-.1,1.827a9.506,9.506,0,0,0,.986,2.762,7.258,7.258,0,0,1,.248,4.544c-.656,2.393-2.547,4.5-2.383,6.971a46.709,46.709,0,0,1-.66,12.507c-.849,4.049-1.909,8.117-1.884,12.261s1.279,8.5,4.373,11.26a16.9,16.9,0,0,1-7.449,4.07c-2.385.6-5.22.537-6.918-1.24a1.914,1.914,0,0,1-.638-1.521,2.974,2.974,0,0,1,.441-.994c1.167-2.089,1.025-4.665.508-7s-1.4-4.6-1.624-6.983c-.164-1.728.021-3.486-.31-5.191-.254-1.306-.8-2.536-1.134-3.826-.974-3.826.049-7.843,1.066-11.654a13.228,13.228,0,0,1-4.125,4.814c-2.526,2.013-5.581,3.791-8.792,3.434-2.858-.32-5.292-2.307-6.971-4.638-.014-2.7-.949-5.245-.783-7.935a20.14,20.14,0,0,1,.631-3.5,17.359,17.359,0,0,1,1.23-3.746C811.037,432.369,812.616,431.387,813.924,430.232Z" transform="translate(-770.535 -337.525)" opacity="0.06"/>
    <path id="Path_2602" data-name="Path 2602" d="M817.35,430.232c3.387-2.993,8.107-3.807,12.538-4.716q3.422-.7,6.809-1.558a25.44,25.44,0,0,1,4.511-.884,7.639,7.639,0,0,1,4.435.894,4.551,4.551,0,0,1,2.317,3.734c0,.615-.144,1.218-.1,1.827a9.754,9.754,0,0,0,.986,2.762,7.258,7.258,0,0,1,.246,4.544c-.654,2.393-2.544,4.5-2.383,6.971a46.626,46.626,0,0,1-.658,12.507c-.849,4.049-1.909,8.117-1.884,12.261s1.288,8.486,4.384,11.242a16.911,16.911,0,0,1-7.449,4.07c-2.385.6-5.222.537-6.918-1.24a1.913,1.913,0,0,1-.638-1.521,2.973,2.973,0,0,1,.441-.994c1.167-2.089,1.025-4.664.508-7s-1.4-4.6-1.626-6.983c-.162-1.728.023-3.486-.31-5.191-.252-1.306-.8-2.536-1.132-3.826-.974-3.826.047-7.843,1.066-11.654a13.216,13.216,0,0,1-4.127,4.814c-2.526,2.013-5.579,3.791-8.79,3.434-2.858-.32-5.292-2.307-6.971-4.638-.012-2.7-.947-5.245-.781-7.935a20.147,20.147,0,0,1,.632-3.5,17.242,17.242,0,0,1,1.23-3.746C814.451,432.369,816.042,431.387,817.35,430.232Z" transform="translate(-774.662 -337.525)" fill="#a1616a"/>
    <path id="Path_2603" data-name="Path 2603" d="M735.5,688a12.8,12.8,0,0,0,3.816-3.574,10.059,10.059,0,0,1,1.148-1.5,2.217,2.217,0,0,1,1.7-.7,2.771,2.771,0,0,1,1.732,1.173c1.21,1.5,1.989,3.332,3.332,4.716a12.185,12.185,0,0,0,5.872,3.01c2.159.549,4.388.839,6.5,1.534a2.964,2.964,0,0,1,1.722,1.113,2.487,2.487,0,0,1-.275,2.526,7.409,7.409,0,0,1-3.992,2.909,36.121,36.121,0,0,1-4.921,1.093c-2.924.572-5.919,1.489-8.829.843-1.16-.258-2.255-.759-3.428-.976-2.665-.5-5.415.506-8.091.1a12.662,12.662,0,0,1-3.691-1.294,5.09,5.09,0,0,1-1.579-1.072,1.932,1.932,0,0,1-.511-1.765,7.119,7.119,0,0,1,.486-.988,5.08,5.08,0,0,0,.349-1.665,45.634,45.634,0,0,1,1.124-6.413,2.612,2.612,0,0,1,1.142-1.878.615.615,0,0,1,.457-.051c.244.092.324.388.4.636a3.912,3.912,0,0,0,6.8,1.349" transform="translate(-669.286 -543.548)" fill="#019da9"/>
    <path id="Path_2604" data-name="Path 2604" d="M677.11,216.962a13.005,13.005,0,0,0,.082,1.452,4.152,4.152,0,0,0,3.568-1.187c.433-.459.757-1.015,1.185-1.478a1.809,1.809,0,0,1,2.979-.043,4.364,4.364,0,0,1,1,1.765,2.406,2.406,0,0,0,.59,1.3,1.867,1.867,0,0,0,1.316.273,3.925,3.925,0,0,0,1.73-.328c.984-.531,1.316-1.747,1.681-2.8.615-1.778,2-5.14,4.15-5.5a4.545,4.545,0,0,1,3.076.955,5.507,5.507,0,0,0,3.672,1.425h0a12.872,12.872,0,0,0-25.049,4.166Z" transform="translate(-599.833 -163.463)" opacity="0.06"/>
    <path id="Path_2605" data-name="Path 2605" d="M691.1,185.569a3.094,3.094,0,0,0,1.087-.172,2.932,2.932,0,0,0,1.562-2.6,11.654,11.654,0,0,0-.953-4.749,1.574,1.574,0,0,0-.552-.88,1.915,1.915,0,0,0-.777-.195,7.352,7.352,0,0,1-3.836-2.114,31.369,31.369,0,0,0-3.281-2.993,8.773,8.773,0,0,0-10.781.933c-1.1,1.083-2.05,2.551-3.58,2.8-.882.146-1.827-.158-2.666.17a3.145,3.145,0,0,0-1.406,1.339,13.283,13.283,0,0,0-1.86,6.046,39.482,39.482,0,0,0,.152,6.379,1.666,1.666,0,0,0,.236.9,1.378,1.378,0,0,0,.482.369,4.14,4.14,0,0,0,4.775-.8c.435-.457.757-1.013,1.185-1.478a1.81,1.81,0,0,1,2.979-.041,4.363,4.363,0,0,1,1,1.765,2.379,2.379,0,0,0,.591,1.3,1.882,1.882,0,0,0,1.318.275,3.924,3.924,0,0,0,1.728-.33c.986-.529,1.318-1.745,1.681-2.8.615-1.778,2-5.142,4.15-5.5a4.534,4.534,0,0,1,3.076.955A5.586,5.586,0,0,0,691.1,185.569Z" transform="translate(-588.778 -136.706)" fill="#464353"/>
    <path id="Path_2606" data-name="Path 2606" d="M255.3,609.617c.141.935,1,1.665,1.6,2.391,1.644,1.985,3.311,3.976,5.15,5.792a80.608,80.608,0,0,0,6.288,5.4l2.8,2.241a3.527,3.527,0,0,0,1.191.718,2.176,2.176,0,0,0,1.534-.182c-.041-.082-.084-.158-.131-.234l-3.358-5.628c-.66-1.1-1.093-2.108-1.845-3.143a31.316,31.316,0,0,0-3.674-4.423,31.81,31.81,0,0,0-6.128-4.072,1.76,1.76,0,0,0-2.434-.732,3.041,3.041,0,0,0-.847.65A2.424,2.424,0,0,0,255.3,609.617Z" transform="translate(-85.079 -484.191)" opacity="0.06"/>
    <path id="Path_2607" data-name="Path 2607" d="M346.571,554.572l3.358,5.63a.8.8,0,0,1-.191,1.275c-1.288,1.048-2.715,2.153-3.119,3.762-.289,1.148,0,2.378-.258,3.531-.474,2.079-2.563,3.342-4.539,4.142a25.7,25.7,0,0,1-14.051,1.64,20.589,20.589,0,0,1-12.218-6.918c-.935-1.132-1.735-2.37-2.622-3.539a56.218,56.218,0,0,0-8.681-8.5c-3.988-3.379-6.338-8.419-9.842-12.3a4.912,4.912,0,0,0-2.255-1.669c-.513-.129-1.23.062-1.251.591-.047,1.025-.871,1.864-1.435,2.721-2.124,3.248-4.347,6.6-7.629,8.667a24.274,24.274,0,0,1-5.862,2.46c-5.146,1.6-10.393,2.87-15.634,4.125a8.773,8.773,0,0,0-.947-1.495c-.543-.666-1.259-1.175-1.8-1.845a9.737,9.737,0,0,1-1.669-4.338c3.131-1.917,6.344-3.9,9.432-5.889a22.255,22.255,0,0,0,4.377-3.377c.82-.89,1.509-1.909,2.331-2.8a23.789,23.789,0,0,1,2.711-2.405l7.381-5.911c2.12-1.7,4.281-3.486,6.356-5.241,1.167-.988,2.46-2.028,3.986-2.075a6.939,6.939,0,0,1,3.631,1.331q9.9,5.927,20.093,11.322c1.376.726,2.758,1.448,4.07,2.282A27.434,27.434,0,0,1,327,545.762c.346.433.785.925,1.335.859a1.2,1.2,0,0,0,.429-.15,5.228,5.228,0,0,0,1.845-2.159,5,5,0,0,1,1.874-2.134,1.759,1.759,0,0,1,2.434.734,33.373,33.373,0,0,1,6.133,4.1,31.21,31.21,0,0,1,3.674,4.423C345.479,552.467,345.913,553.471,346.571,554.572Z" transform="translate(-161.504 -418.414)" fill="#464353"/>
    <path id="Path_2608" data-name="Path 2608" d="M252.408,502.52a41.322,41.322,0,0,0-5.8,3.19" transform="translate(-61.84 -400.701)" opacity="0.06"/>
    <path id="Path_2609" data-name="Path 2609" d="M944.094,461.473c-.062,1.913-.111,3.83-.088,5.741a6.258,6.258,0,0,0,.541,2.957,6.433,6.433,0,0,0,1.435,1.624l3.377,3.061a7.526,7.526,0,0,0,3.574,2.175c1.6.271,3.158-.506,4.693-1.025a15.4,15.4,0,0,1,4.8-.806,17.724,17.724,0,0,0,2.8-.074,11.486,11.486,0,0,0,1.956-.556l3.049-1.058c-.086-.769-.82-1.259-1.435-1.745-2.184-1.771-3.141-4.619-3.83-7.344a43.791,43.791,0,0,1-1.193-6.481,10.643,10.643,0,0,1,.076-3.248,12.924,12.924,0,0,1,.9-2.489l1.072-2.417c.615-1.366,1.845-1.972,3.1-2.778-1.89.718-4.195,1-5.632,2.421a3.73,3.73,0,0,1-.972.787,4.6,4.6,0,0,1-1.265.275c-2.134.32-3.949,1.661-5.712,2.9q-3.237,2.28-6.655,4.283a15.648,15.648,0,0,0-2.946,2.018,4.752,4.752,0,0,0-1.6,3.108" transform="translate(-922.649 -356.572)" fill="#464353"/>
    <path id="Path_2610" data-name="Path 2610" d="M199.208,446.4c2.688.531,4.086,3.691,3.928,6.424a10.457,10.457,0,0,1-2.834,6.53c-1.122,1.179-2.52,2.089-3.533,3.363-1.5,1.878-2.018,4.361-3.356,6.356a17.314,17.314,0,0,1-3.691,3.672q-4.687,3.74-9.68,7.08a8.083,8.083,0,0,1-4.462,1.784,5.563,5.563,0,0,1-3.947-2.1,16.834,16.834,0,0,1-2.29-3.974c-2.341-5.105-4.7-10.266-5.819-15.769a20.4,20.4,0,0,0-1.37-5.091,24.711,24.711,0,0,0-2.337-3.4,23.421,23.421,0,0,1-3.953-8.833,11.394,11.394,0,0,1,.137-6.295,5.724,5.724,0,0,1,4.638-3.869,5.637,5.637,0,0,1,4.455,1.991,11.02,11.02,0,0,1,2.245,4.476,21.44,21.44,0,0,1,.738,7.176,24.53,24.53,0,0,0-.193,5.845,15.658,15.658,0,0,0,1.417,3.879,41.4,41.4,0,0,0,5.345,9.227c.746.89,1.774,1.79,2.916,1.581,1.579-.287,2-2.286,2.776-3.691.955-1.722,2.768-2.758,4.189-4.125,2.022-1.948,3.233-4.56,4.671-6.971s3.3-4.792,5.946-5.716,6.18.262,6.86,2.985" transform="translate(6.103 -344.857)" opacity="0.06"/>
    <path id="Path_2611" data-name="Path 2611" d="M197.27,444.646c2.69.531,6.114.878,5.946,3.615a10.436,10.436,0,0,1-2.834,6.53c-1.122,1.181-2.52,2.091-3.533,3.365-1.5,1.878-2.018,4.359-3.356,6.356a17.22,17.22,0,0,1-3.691,3.672q-4.687,3.742-9.68,7.08a8.071,8.071,0,0,1-4.462,1.786,5.57,5.57,0,0,1-3.947-2.1,16.767,16.767,0,0,1-2.29-3.976c-2.341-5.105-4.7-10.266-5.819-15.769a20.381,20.381,0,0,0-1.37-5.089,24.859,24.859,0,0,0-2.337-3.4,23.4,23.4,0,0,1-3.953-8.831,11.4,11.4,0,0,1,.137-6.3,5.724,5.724,0,0,1,4.638-3.869,5.643,5.643,0,0,1,4.455,1.991,11,11,0,0,1,2.245,4.478,21.435,21.435,0,0,1,.738,7.176,24.537,24.537,0,0,0-.193,5.845,15.642,15.642,0,0,0,1.417,3.881,41.443,41.443,0,0,0,5.345,9.227c.746.89,1.774,1.788,2.916,1.581,1.579-.289,2-2.288,2.776-3.691.955-1.722,2.768-2.758,4.189-4.125,2.022-1.946,3.233-4.56,4.671-6.971s3.3-4.79,5.946-5.716-.668,5.009.014,7.732" transform="translate(6.013 -341.232)" opacity="0.06"/>
    <path id="Path_2612" data-name="Path 2612" d="M199.208,444.124c2.688.531,4.086,3.691,3.928,6.424a10.457,10.457,0,0,1-2.834,6.532c-1.122,1.179-2.52,2.089-3.533,3.363-1.5,1.878-2.018,4.361-3.356,6.356a17.277,17.277,0,0,1-3.691,3.674q-4.687,3.74-9.68,7.078a8.07,8.07,0,0,1-4.462,1.786,5.563,5.563,0,0,1-3.947-2.1,16.835,16.835,0,0,1-2.29-3.974c-2.341-5.105-4.7-10.266-5.819-15.771a20.382,20.382,0,0,0-1.37-5.089,24.86,24.86,0,0,0-2.337-3.4,23.4,23.4,0,0,1-3.953-8.831,11.4,11.4,0,0,1,.137-6.3,5.718,5.718,0,0,1,4.638-3.867A5.63,5.63,0,0,1,165.1,432a11.021,11.021,0,0,1,2.245,4.476,21.44,21.44,0,0,1,.738,7.176,24.516,24.516,0,0,0-.193,5.843,15.642,15.642,0,0,0,1.417,3.881,41.4,41.4,0,0,0,5.345,9.227c.746.89,1.774,1.788,2.916,1.581,1.579-.289,2-2.286,2.776-3.691.955-1.724,2.768-2.76,4.189-4.125,2.022-1.948,3.233-4.56,4.671-6.971s3.3-4.79,5.946-5.714,6.18.262,6.86,2.985" transform="translate(6.103 -343.051)" fill="#fbbebe"/>
    <g id="Group_268" data-name="Group 268" transform="translate(191.662 62.001)" opacity="0.06">
      <path id="Path_2613" data-name="Path 2613" d="M91.351,382.6a25.9,25.9,0,0,0,2.138-4.435l.07-.205A6.644,6.644,0,0,0,94.64,376.4a7.845,7.845,0,0,0,.7-3.076v-.117a4.632,4.632,0,0,1,.322,1.025,6.721,6.721,0,0,1-.539,3.44,25.974,25.974,0,0,1-2.139,4.435c-1.273,2.128-2.9,4.179-3.151,6.621-.379,3.654,2.376,6.871,3.057,10.481.521,2.758-.139,5.839,1.335,8.226a6.907,6.907,0,0,0,2.311,2.19,6.535,6.535,0,0,0,1.892.82,4.393,4.393,0,0,0,.394.41A4.747,4.747,0,0,1,94.9,410.1a6.934,6.934,0,0,1-2.311-2.192c-1.474-2.387-.82-5.468-1.333-8.226-.683-3.609-3.438-6.828-3.059-10.481C88.45,386.746,90.074,384.7,91.351,382.6Z" transform="translate(-67.429 -359.905)"/>
      <path id="Path_2614" data-name="Path 2614" d="M147.811,312.97a6.418,6.418,0,0,1,2.784-2.764,16.117,16.117,0,0,1,4.677-1.886,16.719,16.719,0,0,0-3.039,1.417,6.449,6.449,0,0,0-2.786,2.766,2.872,2.872,0,0,0,.873,3.551,5.05,5.05,0,0,0,2.743.375,16.51,16.51,0,0,1,2.423.123,2.332,2.332,0,0,1,.837.221,2.081,2.081,0,0,1,.775.912,6.373,6.373,0,0,1,.656,2.016,4.619,4.619,0,0,0,.6,2.276c.668.851,1.714.722,2.665.89a7.177,7.177,0,0,1,2.339.894,5.7,5.7,0,0,1,2.764,4.535,8.409,8.409,0,0,0,.113,1.97,3.251,3.251,0,0,0,.533,1.025,6.99,6.99,0,0,0-.947,1.277,4.856,4.856,0,0,1-1.23-1.835,8.425,8.425,0,0,1-.115-1.972,5.715,5.715,0,0,0-2.764-4.535,7.1,7.1,0,0,0-2.339-.892c-.947-.17-1.993-.041-2.665-.892a4.612,4.612,0,0,1-.6-2.276,6.368,6.368,0,0,0-.654-2.015,2.069,2.069,0,0,0-.775-.9,2.255,2.255,0,0,0-.837-.221,16.8,16.8,0,0,0-2.424-.125,5.031,5.031,0,0,1-2.743-.375A2.892,2.892,0,0,1,147.811,312.97Z" transform="translate(-147.55 -308.32)"/>
    </g>
    <path id="Path_2615" data-name="Path 2615" d="M181.54,426.55s-2.421,2.083-7.02.82C174.52,427.366,177.368,428.488,181.54,426.55Z" transform="translate(23.809 -340.307)" opacity="0.06"/>
    <path id="Path_2616" data-name="Path 2616" d="M664.014,230.2a1.671,1.671,0,0,0,.246.9,1.372,1.372,0,0,0,.482.367,4.136,4.136,0,0,0,4.773-.8c.435-.459.757-1.025,1.185-1.478a2.181,2.181,0,0,1,1.64-.8,2.152,2.152,0,0,1,1.339.757,4.44,4.44,0,0,1,1,1.765,2.383,2.383,0,0,0,.588,1.3,1.868,1.868,0,0,0,1.318.273,3.882,3.882,0,0,0,1.728-.328c.986-.529,1.318-1.747,1.683-2.8.615-1.78,2-5.142,4.148-5.5a4.552,4.552,0,0,1,3.075.955,5.569,5.569,0,0,0,3.674,1.435,3.135,3.135,0,0,0,1.087-.172,2.809,2.809,0,0,0,1.53-2.307,6.831,6.831,0,0,1,.035,1.343,2.943,2.943,0,0,1-1.564,2.6,3.136,3.136,0,0,1-1.087.172,5.512,5.512,0,0,1-3.674-1.425,4.547,4.547,0,0,0-3.075-.955c-2.143.349-3.537,3.711-4.14,5.489-.365,1.058-.7,2.276-1.683,2.8a3.911,3.911,0,0,1-1.728.328,1.934,1.934,0,0,1-1.318-.273,2.543,2.543,0,0,1-.588-1.3,4.424,4.424,0,0,0-1-1.765,2.163,2.163,0,0,0-1.339-.757,2.088,2.088,0,0,0-1.64.8c-.41.465-.75,1.025-1.185,1.478a4.136,4.136,0,0,1-4.773.8,1.4,1.4,0,0,1-.482-.367,1.673,1.673,0,0,1-.246-.9,48.9,48.9,0,0,1-.205-5.2C663.833,227.824,663.922,229.011,664.014,230.2Z" transform="translate(-588.535 -179.096)" opacity="0.06"/>
    <path id="Path_2617" data-name="Path 2617" d="M79.2,659.093s-.326-.363.287-.506v-.6H79.12a3.147,3.147,0,0,1,2.5-3.076v-.724h-.1v-.941h2.372v.941h-.068v.732A3.149,3.149,0,0,1,86.284,658h-.326v.572s.777.367,0,1.025-.656,1.134-.656,1.134.326,1.23.98,1.39v11.406a2.534,2.534,0,0,1-2.534,2.536h-2a2.536,2.536,0,0,1-2.536-2.536V662.12s1.146-.859.941-1.39A12.82,12.82,0,0,0,79.2,659.093Z" transform="translate(132.607 -512.526)" fill="#464353"/>
  </g>
</svg>
