<svg xmlns="http://www.w3.org/2000/svg" xmlns:xlink="http://www.w3.org/1999/xlink" width="243.702" height="173.171" viewBox="0 0 243.702 173.171">
  <defs>
    <linearGradient id="linear-gradient" x1="0.5" y1="1" x2="0.5" gradientUnits="objectBoundingBox">
      <stop offset="0" stop-color="gray" stop-opacity="0.251"/>
      <stop offset="0.54" stop-color="gray" stop-opacity="0.122"/>
      <stop offset="1" stop-color="gray" stop-opacity="0.102"/>
    </linearGradient>
    <linearGradient id="linear-gradient-2" y1="1" y2="0" xlink:href="#linear-gradient"/>
    <linearGradient id="linear-gradient-4" y1="1" y2="0" xlink:href="#linear-gradient"/>
    <linearGradient id="linear-gradient-5" y1="1" y2="0" xlink:href="#linear-gradient"/>
    <linearGradient id="linear-gradient-6" y1="1" y2="0" xlink:href="#linear-gradient"/>
    <linearGradient id="linear-gradient-23" x1="-1.293" y1="1" x2="-1.293" y2="0" xlink:href="#linear-gradient"/>
    <linearGradient id="linear-gradient-24" x1="0.419" y1="1" x2="0.419" y2="0" xlink:href="#linear-gradient"/>
  </defs>
  <g id="illustration" transform="translate(0 0)">
    <path id="Path_2618" data-name="Path 2618" d="M254.792,142.752a66.241,66.241,0,0,1-1.463,13.923q-.492,2.3-1.144,4.506-.807,2.752-1.846,5.336-.528,1.316-1.115,2.586a39.458,39.458,0,0,1-2.518,13.981,34.281,34.281,0,0,1-15.142,18.024,28.346,28.346,0,0,1-13.791,3.592H57.353a36.785,36.785,0,0,1-23.037-8.241,42.471,42.471,0,0,1-5.291-5.038,45,45,0,0,1-5.816-8.336,49.6,49.6,0,0,1-5.916-23.718,62.764,62.764,0,0,1-6.2-27.7c0-12.909,3.633-24.682,9.6-33.6a45.945,45.945,0,0,1,4.078-5.241,39.9,39.9,0,0,1,4.664-4.411,35.486,35.486,0,0,1,4.138-2.868c.6-.352,1.2-.683,1.808-.991q.8-.414,1.626-.772.987-.435,2-.8t2-.635a28.241,28.241,0,0,1,2.948-.656q1.241-.214,2.483-.317.987-.081,1.99-.093h.362c.737,0,1.469.035,2.2.091.077-.178.159-.356.236-.534.29-.637.59-1.27.892-1.9a.072.072,0,0,0,0-.017c.052-.108.1-.207.157-.321.244-.509.5-1.014.759-1.515.12-.232.238-.461.36-.691.027-.054.054-.106.085-.159.124-.238.25-.474.379-.71q.958-1.765,1.993-3.476c.06-.1.116-.194.176-.29.108-.176.207-.352.327-.526.286-.463.579-.925.875-1.382.207-.323.414-.646.637-.964q.807-1.21,1.655-2.39t1.763-2.359c.083-.108.166-.207.252-.321l.884-1.111h0l.122-.151h0l.321-.391c.474-.577.96-1.148,1.448-1.713a83.339,83.339,0,0,1,7.925-7.976c.11-.1.221-.207.331-.294.526-.457,1.059-.908,1.593-1.351a83.5,83.5,0,0,1,9.189-6.621c.219-.141.443-.277.668-.414A83.563,83.563,0,0,1,92.8,39.134q2.483-1.142,5.018-2.115c1.121-.426,2.247-.828,3.387-1.208q2.644-.873,5.355-1.583a83.787,83.787,0,0,1,16.189-2.549q2.483-.149,5.022-.149a84.092,84.092,0,0,1,24.206,3.536.844.844,0,0,0,.751.451h.7c.3.1.6.194.9.294q2.531.84,4.989,1.839l.414.17a83.912,83.912,0,0,1,21.635,13.006q.726.6,1.432,1.215.857-.635,1.742-1.215a31.864,31.864,0,0,1,7.217-3.555,28.692,28.692,0,0,1,16.189-.732c6.88,1.686,13.108,5.87,18.138,11.819a48.53,48.53,0,0,1,5.44,7.978c.114.207.228.414.337.621a56.186,56.186,0,0,1,3.464,7.976c.035.1.07.207.1.3a61.777,61.777,0,0,1,2.131,7.972c.025.137.054.275.079.414a65.771,65.771,0,0,1,1.018,7.976,1.725,1.725,0,0,0,.017.292q.13,2.082.132,4.209,0,1.9-.106,3.77c0,.139-.017.279-.027.414-.019.362-.046.724-.072,1.084a42.5,42.5,0,0,1,4.424,4.817q.9,1.144,1.75,2.369a51.7,51.7,0,0,1,4.511,7.976A63.2,63.2,0,0,1,254.792,142.752Z" transform="translate(-11.09 -31.53)" fill="#019da9" opacity="0.1"/>
    <path id="Path_2619" data-name="Path 2619" d="M329.879,783.918c0,3.073-9.5,5.876-25.115,7.995H158.273c-15.611-2.119-25.113-4.922-25.113-7.995,0-2.34,5.512-4.525,15.042-6.371h0l.269-.052c2.69-.515,5.7-1,8.982-1.461l.25-.035h0q3.911-.54,8.32-1.02l.277-.029q1.7-.186,3.472-.36h0l.455-.043c8.6-.828,18.369-1.5,28.967-1.947h.012q2.226-.093,4.5-.174,2.528-.093,5.119-.166c1.318-.039,2.653-.072,3.991-.1h.031c6.04-.143,12.28-.217,18.661-.217,15.779,0,30.693.453,43.908,1.258h.037c2.032.124,4.026.255,5.971.4l1.655.122q3.292.248,6.414.526h0C313.98,776.42,329.879,779.943,329.879,783.918Z" transform="translate(-107.903 -618.742)" fill="#019da9" opacity="0.1"/>
    <path id="Path_2620" data-name="Path 2620" d="M280.716,133.59v6.276a.848.848,0,0,1-.848.85H268.38a83.334,83.334,0,0,1,7.925-7.976h3.565A.848.848,0,0,1,280.716,133.59Z" transform="translate(-215.144 -111.799)" fill="none" stroke="#fff" stroke-miterlimit="10" stroke-width="1" opacity="0.03"/>
    <path id="Path_2621" data-name="Path 2621" d="M343.195,127.344v94.272a2.483,2.483,0,0,1-2.483,2.483H172.393a2.483,2.483,0,0,1-2.483-2.483V155.734q1.241-.214,2.483-.317.987-.081,1.99-.093h.362c.737,0,1.469.035,2.2.091.077-.178.159-.356.236-.534.29-.637.59-1.27.892-1.9a.072.072,0,0,0,0-.017c.052-.108.1-.207.157-.321.244-.509.5-1.014.759-1.515.12-.232.238-.461.36-.691.027-.054.054-.106.085-.159.124-.238.25-.474.379-.71q.958-1.765,1.993-3.476c.06-.1.116-.194.176-.29.108-.176.207-.352.327-.526.286-.463.579-.925.875-1.382.207-.323.414-.646.637-.964q.807-1.21,1.655-2.39t1.763-2.359c.083-.108.166-.207.252-.321l.883-1.111h0l.122-.151h0l.321-.391c.474-.577.96-1.148,1.448-1.713a83.337,83.337,0,0,1,7.925-7.976c.11-.1.221-.207.331-.294.526-.457,1.059-.908,1.593-1.351H307.331q.726.6,1.432,1.215.857-.635,1.742-1.215h30.209A2.483,2.483,0,0,1,343.195,127.344Z" transform="translate(-137.049 -105.565)" fill="#fff"/>
    <path id="Path_2622" data-name="Path 2622" d="M380.831,212.09v2.346H229.88c.286-.463.579-.925.877-1.382.207-.323.414-.646.635-.964Z" transform="translate(-184.61 -174.731)" fill="#3f3d56"/>
    <rect id="Rectangle_881" data-name="Rectangle 881" width="89.354" height="2.346" transform="translate(163.844 25.897) rotate(90)" fill="#3f3d56"/>
    <rect id="Rectangle_882" data-name="Rectangle 882" width="89.354" height="2.346" transform="translate(120.676 25.897) rotate(90)" fill="#3f3d56"/>
    <rect id="Rectangle_883" data-name="Rectangle 883" width="89.354" height="2.346" transform="translate(77.508 25.897) rotate(90)" fill="#3f3d56"/>
    <path id="Path_2623" data-name="Path 2623" d="M218.913,247.6v9.241H209.37v-6.555c.052-.108.1-.207.157-.321.246-.509.5-1.014.761-1.515.118-.232.236-.461.358-.691.027-.054.056-.106.085-.159Z" transform="translate(-168.344 -202.893)" fill="url(#linear-gradient)"/>
    <path id="Path_2624" data-name="Path 2624" d="M219.384,248.346v8.922H210.17v-6.722c.246-.509.5-1.014.761-1.515.118-.232.236-.461.358-.691Z" transform="translate(-168.978 -203.48)" fill="#ceecee"/>
    <rect id="Rectangle_884" data-name="Rectangle 884" width="9.545" height="9.241" transform="translate(79.677 41.891)" fill="url(#linear-gradient-2)"/>
    <rect id="Rectangle_885" data-name="Rectangle 885" width="9.216" height="8.922" transform="translate(79.842 42.05)" fill="#e9e9e9"/>
    <rect id="Rectangle_886" data-name="Rectangle 886" width="9.545" height="9.241" transform="translate(122.786 59.832)" fill="url(#linear-gradient-2)"/>
    <rect id="Rectangle_887" data-name="Rectangle 887" width="9.216" height="8.922" transform="translate(122.952 59.991)" fill="#e9e9e9"/>
    <rect id="Rectangle_888" data-name="Rectangle 888" width="9.545" height="9.241" transform="translate(166.775 65.952)" fill="url(#linear-gradient-4)"/>
    <rect id="Rectangle_889" data-name="Rectangle 889" width="9.216" height="8.922" transform="translate(166.939 66.112)" fill="#7cfcff"/>
    <rect id="Rectangle_890" data-name="Rectangle 890" width="9.545" height="9.241" transform="translate(178.561 71.934)" fill="url(#linear-gradient-5)"/>
    <rect id="Rectangle_891" data-name="Rectangle 891" width="9.216" height="8.922" transform="translate(178.727 72.093)" fill="#7cfcff"/>
    <rect id="Rectangle_892" data-name="Rectangle 892" width="9.545" height="9.241" transform="translate(193.343 55.95)" fill="url(#linear-gradient-6)"/>
    <rect id="Rectangle_893" data-name="Rectangle 893" width="9.216" height="8.922" transform="translate(193.506 56.11)" fill="#ffe0c8"/>
    <rect id="Rectangle_894" data-name="Rectangle 894" width="9.545" height="9.241" transform="translate(190.351 68.915)" fill="url(#linear-gradient-4)"/>
    <rect id="Rectangle_895" data-name="Rectangle 895" width="9.216" height="8.922" transform="translate(190.514 69.075)" fill="#ceecee"/>
    <rect id="Rectangle_896" data-name="Rectangle 896" width="9.545" height="9.241" transform="translate(92.698 41.891)" fill="url(#linear-gradient-2)"/>
    <rect id="Rectangle_897" data-name="Rectangle 897" width="9.216" height="8.922" transform="translate(92.863 42.05)" fill="#e9e9e9"/>
    <rect id="Rectangle_898" data-name="Rectangle 898" width="9.545" height="9.241" transform="translate(48.1 64.293)" fill="url(#linear-gradient-6)"/>
    <rect id="Rectangle_899" data-name="Rectangle 899" width="9.216" height="8.922" transform="translate(48.264 64.452)" fill="#ffe0c8"/>
    <rect id="Rectangle_900" data-name="Rectangle 900" width="9.545" height="9.241" transform="translate(86.565 55.212)" fill="url(#linear-gradient-5)"/>
    <rect id="Rectangle_901" data-name="Rectangle 901" width="9.216" height="8.922" transform="translate(86.73 55.371)" fill="#ffe0c8"/>
    <rect id="Rectangle_902" data-name="Rectangle 902" width="9.545" height="9.241" transform="translate(136.314 49.689)" fill="url(#linear-gradient-4)"/>
    <rect id="Rectangle_903" data-name="Rectangle 903" width="9.216" height="8.922" transform="translate(136.478 49.849)" fill="#ffe0c8"/>
    <rect id="Rectangle_904" data-name="Rectangle 904" width="9.545" height="9.241" transform="translate(186.674 43.209)" fill="url(#linear-gradient-5)"/>
    <rect id="Rectangle_905" data-name="Rectangle 905" width="9.216" height="8.922" transform="translate(186.839 43.368)" fill="#a0dce1"/>
    <rect id="Rectangle_906" data-name="Rectangle 906" width="9.545" height="9.241" transform="translate(148.907 41.891)" fill="url(#linear-gradient-6)"/>
    <rect id="Rectangle_907" data-name="Rectangle 907" width="9.216" height="8.922" transform="translate(149.07 42.05)" fill="#ceecee"/>
    <rect id="Rectangle_908" data-name="Rectangle 908" width="9.545" height="9.241" transform="translate(148.365 59.832)" fill="url(#linear-gradient-2)"/>
    <rect id="Rectangle_909" data-name="Rectangle 909" width="9.216" height="8.922" transform="translate(148.53 59.991)" fill="#aadfe3"/>
    <rect id="Rectangle_910" data-name="Rectangle 910" width="9.545" height="9.241" transform="translate(105.514 46.354)" fill="url(#linear-gradient-5)"/>
    <rect id="Rectangle_911" data-name="Rectangle 911" width="9.216" height="8.922" transform="translate(105.679 46.511)" fill="#ffe0c8"/>
    <rect id="Rectangle_912" data-name="Rectangle 912" width="9.545" height="9.241" transform="translate(54.8 49.327)" fill="url(#linear-gradient-5)"/>
    <rect id="Rectangle_913" data-name="Rectangle 913" width="9.216" height="8.922" transform="translate(54.966 49.486)" fill="#e9e9e9"/>
    <rect id="Rectangle_914" data-name="Rectangle 914" width="9.545" height="9.241" transform="translate(59.573 59.832)" fill="url(#linear-gradient-6)"/>
    <rect id="Rectangle_915" data-name="Rectangle 915" width="9.216" height="8.922" transform="translate(59.737 59.991)" fill="#e9e9e9"/>
    <rect id="Rectangle_916" data-name="Rectangle 916" width="9.545" height="9.241" transform="translate(99.164 61.332)" fill="url(#linear-gradient-4)"/>
    <rect id="Rectangle_917" data-name="Rectangle 917" width="9.216" height="8.922" transform="translate(99.327 61.491)" fill="#e9e9e9"/>
    <rect id="Rectangle_918" data-name="Rectangle 918" width="9.545" height="9.241" transform="translate(169.016 43.209)" fill="url(#linear-gradient-5)"/>
    <rect id="Rectangle_919" data-name="Rectangle 919" width="9.216" height="8.922" transform="translate(169.182 43.368)" fill="#ffe0c8"/>
    <rect id="Rectangle_920" data-name="Rectangle 920" width="9.545" height="9.241" transform="translate(177.462 55.95)" fill="url(#linear-gradient-2)"/>
    <rect id="Rectangle_921" data-name="Rectangle 921" width="9.216" height="8.922" transform="translate(177.628 56.11)" fill="#e9e9e9"/>
    <rect id="Rectangle_922" data-name="Rectangle 922" width="9.545" height="9.241" transform="translate(123.62 41.891)" fill="url(#linear-gradient-2)"/>
    <rect id="Rectangle_923" data-name="Rectangle 923" width="9.216" height="8.922" transform="translate(123.786 42.05)" fill="#a0dce1"/>
    <rect id="Rectangle_924" data-name="Rectangle 924" width="9.545" height="9.241" transform="translate(135.234 68.915)" fill="url(#linear-gradient-4)"/>
    <rect id="Rectangle_925" data-name="Rectangle 925" width="9.216" height="8.922" transform="translate(135.398 69.075)" fill="#e9e9e9"/>
    <path id="Path_2625" data-name="Path 2625" d="M739.322,272.365a1.827,1.827,0,0,0-.728-1.225,7.252,7.252,0,0,0-1.266-.732,1.035,1.035,0,0,1-.368-.263,3.287,3.287,0,0,1-.207-.4c-.248-.432-.786-.569-1.208-.828a3.8,3.8,0,0,1-1.413-2.121c-.021-.054-.037-.108-.058-.159a5.636,5.636,0,0,0-1.225-2.3,2.628,2.628,0,0,0-3.286-.176.774.774,0,0,1-.464.23.876.876,0,0,1-.445-.24,1.814,1.814,0,0,0-1.109-.306,10.569,10.569,0,0,1-.312-2.307v-.021h0a.031.031,0,0,1,0-.014h0v-.575h.13a1.479,1.479,0,0,0,.457-.052,1.24,1.24,0,0,0,.18-.066h0a2.705,2.705,0,0,0,1.144-1.471c.166-.389.319-.788.449-1.2.017-.052.031-.1.05-.157h0c.023-.083.05-.168.07-.252a.385.385,0,0,1,.021-.081c.006-.027.014-.052.021-.079l.019-.087.106.074h0l.019.01.228.159a8.568,8.568,0,0,0,2.653,1.436h0a.24.24,0,0,0,.137-.027c.3-.166-.275-.782-1-1.409-.06-.054-.124-.106-.188-.159-.536-.453-1.113-.892-1.448-1.144l-.31-.226a3.059,3.059,0,0,0,.761-1.655,12.833,12.833,0,0,0,.194-1.736v-.029a7.007,7.007,0,0,0-.168-1.862,4.307,4.307,0,0,0-2.069-2.868c-.31-.161-.664-.288-.97-.461-.058-.033-.11-.068-.163-.1h0a1.436,1.436,0,0,1-.269-.23.937.937,0,0,1-.137-.186.562.562,0,0,1-.054-.1,1.252,1.252,0,0,0-.153-.3c-.207-.23-.555-.161-.854-.124h-.259c-1.074.025-2.11-.575-3.2-.575a8.152,8.152,0,0,0-3.246,1.161c-.207.1-.414.184-.6.273-.157.074-.3.149-.447.23h0a1.9,1.9,0,0,0-.161.1h0a2.3,2.3,0,0,0-.886,1.035,2.131,2.131,0,0,0-.437.842,2.078,2.078,0,0,0-.056.432,7.174,7.174,0,0,0-2.146,5.111v.312a7.18,7.18,0,0,0,5.109,6.571h0c.081.025.163.05.248.07.021.07.05.141.07.207.043.134.085.267.116.4h0a2.029,2.029,0,0,1,.05.207,5.6,5.6,0,0,1,.149,1.4v.124h0v.014a5.453,5.453,0,0,0-1.552.621,2.994,2.994,0,0,0-1.306,1.608,1.293,1.293,0,0,0-.041.151,4.154,4.154,0,0,0-1.182-.207,1.26,1.26,0,0,0-1.018.3.918.918,0,0,0-.188.391c-.141.126-.166.348-.263.517-.3.53-1.088.356-1.68.5a1.16,1.16,0,0,0-.176.058h0c-.561.207-1.035.7-1.63.708a4.168,4.168,0,0,0-.714-.039l-.043.01c-.246.062-.443.4-.252.571a.811.811,0,0,0-.763.366c-.186.236-.3.517-.5.739a.774.774,0,0,0-.784-.3,2.843,2.843,0,0,0-.828.327,1.135,1.135,0,0,1-.366.128,1.585,1.585,0,0,1-.441-.039,3.559,3.559,0,0,0-2.088.292c-.571.271-1.124-.228-1.755-.267a.973.973,0,0,1-.641-.207.277.277,0,0,1-.048-.052.931.931,0,0,1-.091-.159c-.041-.1-.068-.207-.1-.3a2.514,2.514,0,0,0-1.736-1.606l-.1-.025a1.834,1.834,0,0,0,.087-.364h0a2.15,2.15,0,0,0-1.347-2.276,2.276,2.276,0,0,0-.786-1.993,3.492,3.492,0,0,1-.377-.3l-.021-.017a.96.96,0,0,1-.143-.188h0a2.906,2.906,0,0,1-.219-.482c-.184-.492-.372-.985-.557-1.477-.248-.05-.441-.153-.677-.192v-.151a4.909,4.909,0,0,0-.254-1.484,6.854,6.854,0,0,0-.8-1.6h0c-.052-.083-.105-.163-.161-.244h0c-.07-.11-.147-.207-.221-.323a6.4,6.4,0,0,0-1.918-1.926,7.473,7.473,0,0,0-.817-.377l-1.448-.594a.681.681,0,0,0-.259-.07c-.348,0-.441.478-.3.807a.823.823,0,0,0,.06.112c.441.646,1.428.828,1.7,1.558a1,1,0,0,0-.379.081,1.1,1.1,0,0,0-.648.72.594.594,0,0,1-.137.323c-.13.1-.327.043-.47.122-.257.137-.147.519-.174.809a3.657,3.657,0,0,1-.263.728,1.282,1.282,0,0,0-.031.588l.012.062h0a.722.722,0,0,0,.019.091,1.874,1.874,0,0,0,.255.571,4.643,4.643,0,0,0,.943.956c.236.194.476.391.728.569.072.05.143.1.207.145a.239.239,0,0,0-.023.039.283.283,0,0,1-.035.089h0a.456.456,0,0,0-.025.257.415.415,0,0,0,.081.17h0a1.537,1.537,0,0,0,.182.186,3.725,3.725,0,0,1,1.134,2.048,1.254,1.254,0,0,1-.017.463h0a3.808,3.808,0,0,0-.184.939,1.473,1.473,0,0,0,.029.232h0a4.914,4.914,0,0,0,.327,1.07,6.971,6.971,0,0,0,1.56,2.69,8.711,8.711,0,0,0,1.75,4.31,13.823,13.823,0,0,0,2.948,2.584,5.519,5.519,0,0,0,1.088.683,6.261,6.261,0,0,0,1.08.292,55.454,55.454,0,0,0,9.032,1.055l.414.014h.021c0,.159.015.319.021.478q.105,2.386.1,4.775v.428a2.4,2.4,0,0,1-.128.917,2.658,2.658,0,0,1-.43.621c-.039.05-.083.1-.122.153a4.783,4.783,0,0,0-.72,2.994v.019a4.539,4.539,0,0,0,.017.476,32.514,32.514,0,0,0,.509,4.24c.244,1.328.141,2.76.331,4.105a6.621,6.621,0,0,0,.331,1.349l.749,2.013a1.766,1.766,0,0,1,.149.594.991.991,0,0,1-.014.192h0a3.388,3.388,0,0,1-.495,1,3.459,3.459,0,0,0-.437,1.829c0,.017,0,.033,0,.052h0a.3.3,0,0,0,.05.149c.081.112.25.1.385.081a15.34,15.34,0,0,1,1.624-.151h.058c-.019.023-.039.046-.058.07h0c-.062.085-.124.176-.184.275h0l-.029.05a6.2,6.2,0,0,0-.358.732,6.927,6.927,0,0,0-.476,1.314,1.2,1.2,0,0,0-.048.207c-.033.137-.062.273-.083.414a13.143,13.143,0,0,0-.149,2.152v.3c-.017.321-.033.646-.052.96a15.61,15.61,0,0,1-.246,2.541,2.089,2.089,0,0,0-.07.7v.01a5.764,5.764,0,0,0,.132.937c.064.327.149.664.234,1v.033a3.654,3.654,0,0,0,.025.368v.017a6.076,6.076,0,0,0,.329,1.6v.271a.275.275,0,0,0,0,.041h0c0,.149.019.3.033.449.046.437.118.871.207,1.306v.072q.621,3.447,1.262,6.892c.025.139.052.275.079.414q.7,3.687,1.448,7.364c.043.207.083.414.128.621.023.1.043.2.068.294s.058.238.087.356a10.232,10.232,0,0,0,1.885,3.724,17.035,17.035,0,0,1,1.966,3.149.368.368,0,0,1-.023.091h0c-.046.219-.1.437-.147.654l-.012.05a57.308,57.308,0,0,0-1.539,7.035c-.019.172-.033.343-.05.517a7.575,7.575,0,0,1-.455,2.293c-.089.207-.2.4-.29.608a2.212,2.212,0,0,0-.221.751.586.586,0,0,0,0,.1.124.124,0,0,0,0,.027.1.1,0,0,0,0,.01h0a1.5,1.5,0,0,0,.207.732l-.027.021c-.056.043-.11.085-.161.128l-.1.087a6.608,6.608,0,0,1-2.553.912,2.763,2.763,0,0,0-2.1,1.568c-.017.056-.029.112-.041.17a.566.566,0,0,0-.012.083h0a1.506,1.506,0,0,0-.019.255v.019a.264.264,0,0,0,0,.039,2.357,2.357,0,0,0,1.035,1.728,5.718,5.718,0,0,0,2.524.774,8.379,8.379,0,0,1,2.586.594,17.156,17.156,0,0,0,2,1.148c.043.014.087.023.132.035l-.039.023c-.1.06-.207.118-.3.172l-.161.089a7.565,7.565,0,0,1-2.411.768c-.853.118-1.862.174-2.3.915h0a.142.142,0,0,0-.017.037h0a.488.488,0,0,0-.048.114v.017a.237.237,0,0,0-.019.05.291.291,0,0,0-.019.056.413.413,0,0,1,0,.048.885.885,0,0,0-.035.163,1.371,1.371,0,0,0,.014.43,1.928,1.928,0,0,0,.557,1.008,4.02,4.02,0,0,0,1.92.848,34.6,34.6,0,0,0,4.78.594l1.558.12c.557.043,1.115.085,1.672.124.4.025.79.05,1.186.068s.753.031,1.13.039h.588q1.448,0,2.878-.122c.925-.083,1.839-.207,2.75-.368a.621.621,0,0,0,.447-.207.414.414,0,0,0,.027-.052.183.183,0,0,0,.012-.035.073.073,0,0,0,0-.019.264.264,0,0,0,0-.039.492.492,0,0,0,0-.06v-.147c0-.2,0-.391-.014-.588v-.24l-.012-.242c-.015-.236-.029-.474-.05-.71l-.025-.281v-.093a1.675,1.675,0,0,0-.021-.207.359.359,0,0,0-.014-.122l-.037-.333c-.029-.244-.062-.486-.1-.728q-.114-.795-.279-1.579v-.027c-.039-.178-.079-.354-.116-.53-.13-.559-.892.207-1.318.685-.056-.267-.114-.532-.184-.79h0v-.031c.114-.052.226-.106.335-.159a1.192,1.192,0,0,0,.621-.513.894.894,0,0,0,.066-.277,1.215,1.215,0,0,0,0-.174v-.137a8.315,8.315,0,0,0-.72-3.58,7.615,7.615,0,0,0-1.421-1.734c0-.132-.015-.265-.021-.4-.062-1.316-.151-2.632-.275-3.946a57.526,57.526,0,0,0-1.1-7.132c-.147-.635-.3-1.27-.48-1.9h0a12.414,12.414,0,0,0-1.606-3.586c-.139-.207-.288-.414-.439-.621q-.066-1.163-.207-2.33c-.124-1.068-.29-2.131-.466-3.184-.014-.1-.033-.207-.043-.3v-.017a1,1,0,0,1,.05-.414,2.447,2.447,0,0,1,.414-.557,2.352,2.352,0,0,0,.437-1.448.547.547,0,0,0,0-.06c0-.548-.081-1.128-.118-1.672,0-.153-.014-.3-.014-.457h0v-.017h0v-.068c0-.159,0-.317.01-.474a20.828,20.828,0,0,1,.621-3.625c.3-1.241.6-2.464.89-3.7h0q.177-.72.345-1.448c.044-.172.085-.341.124-.513a9.089,9.089,0,0,1,.48-1.566,15.014,15.014,0,0,1,1.225-1.976,11.08,11.08,0,0,0,1.728-5.882h0a.036.036,0,0,0,0-.014v-.025a.275.275,0,0,0,0-.041v-.414h0a2,2,0,0,0-.019-.327c.257.091.515.184.77.283a4.341,4.341,0,0,0,.033-.468v-.017c.021-.958-.188-1.976-.207-2.94a.139.139,0,0,1,0-.029v-.027a5.088,5.088,0,0,1,.064-.946,3.81,3.81,0,0,1,.106-.428c.072-.058.145-.116.207-.176h0A5.945,5.945,0,0,0,735,302.528c.372-.828.48-1.773.869-2.6a8.348,8.348,0,0,0,.66-1.4,2.241,2.241,0,0,0,.068-.468v-.025a15.375,15.375,0,0,0-.1-1.56h0v-.25c.021-1.436.915-2.781,1.014-4.182v-.019a3.354,3.354,0,0,0-.033-.7c-.11-.7-.48-1.349-.548-2.044h0a1.66,1.66,0,0,1-.012-.267,4.063,4.063,0,0,1,.325-1.256,18.641,18.641,0,0,0,1.49-5.932.056.056,0,0,0,0-.019v-.043a7.467,7.467,0,0,0-.126-1.645c-.1-.528-.25-1.049-.292-1.579a3.392,3.392,0,0,1,0-.414c.033-.581.246-1.15.3-1.721h0a2.349,2.349,0,0,0,0-.552,1.742,1.742,0,0,0-.186-.546h0a1.73,1.73,0,0,0-.157-.248,9.422,9.422,0,0,0,.842-1.614,3.021,3.021,0,0,0,.207-.662A1.536,1.536,0,0,0,739.322,272.365Zm-14.157,91.293h0l-.021-.012a2.584,2.584,0,0,0-.689-.2c-.058,0-.118-.012-.176-.017h-.012a3.428,3.428,0,0,0,.068-.586v-.581c0-.116-.01-.234-.019-.35s-.023-.252-.031-.379h0a.54.54,0,0,1,0-.058c.027.079.056.157.089.236q.383,1,.828,1.964Zm4.79-107.461Z" transform="translate(-549.147 -201.608)" fill="url(#linear-gradient-23)"/>
    <path id="Path_2626" data-name="Path 2626" d="M831.843,312.567c-.027,1.049-.383,2.069-.439,3.116,3.1.153,6.143-1.347,9.2-.888a4.24,4.24,0,0,1-1.581-2.535,10.473,10.473,0,0,1-.3-3.894,1.555,1.555,0,0,1,.037-.207,5.424,5.424,0,0,0,.329-1.645c-.1-.534-.608-.428-1.061-.4a40.163,40.163,0,0,0-4.126.532c-.356.062-3.822.927-3.873.838a16.432,16.432,0,0,1,1.5,3.089A6.019,6.019,0,0,1,831.843,312.567Z" transform="translate(-660.583 -249.279)" fill="#ee8e9e"/>
    <path id="Path_2627" data-name="Path 2627" d="M689.826,296.738a4.48,4.48,0,0,0,.946.952c.234.192.474.389.726.565a3.1,3.1,0,0,0,1.546.621,4.052,4.052,0,0,0,2.758-1.014,1.824,1.824,0,0,0,.263-1.055,4.889,4.889,0,0,0-.252-1.477,8.213,8.213,0,0,0-1.194-2.156,6.345,6.345,0,0,0-1.916-1.918,7.432,7.432,0,0,0-.815-.375l-1.448-.592a.726.726,0,0,0-.263-.068c-.387,0-.457.594-.238.912.439.643,1.426.828,1.7,1.552a1.1,1.1,0,0,0-1.035.795.567.567,0,0,1-.139.323c-.126.1-.325.043-.47.12-.254.137-.143.517-.17.807a3.676,3.676,0,0,1-.265.724A1.539,1.539,0,0,0,689.826,296.738Z" transform="translate(-549.146 -236.695)" fill="#ee8e9e"/>
    <path id="Path_2628" data-name="Path 2628" d="M872.466,811.784a1.1,1.1,0,0,0-.96-.145,35.676,35.676,0,0,1-5.394.437c-.226-1.1.43-2.179.641-3.286a2.9,2.9,0,0,1,.207-.828,1.908,1.908,0,0,1,1.366-.828c.972-.207,2.483-.567,3.035.414A14.49,14.49,0,0,1,872.466,811.784Z" transform="translate(-689.162 -646.466)" fill="#65617d"/>
    <path id="Path_2629" data-name="Path 2629" d="M797.482,790.124a5.69,5.69,0,0,0,2.524.77,8.121,8.121,0,0,1,2.586.59,17.127,17.127,0,0,0,2,1.142,4.144,4.144,0,0,0,2.069.033A3.058,3.058,0,0,0,808.8,791.5a3.541,3.541,0,0,0,.3-2.166c-.064-.828-.124-1.676-.186-2.514a1.227,1.227,0,0,0-.155-.608c-.594-.863-2.034.362-2.8.36a5.4,5.4,0,0,1-3.414-1.473,1.035,1.035,0,0,0-.265-.207c-.35-.157-.7.132-1.008.385-.033.029-.068.056-.1.083a6.611,6.611,0,0,1-2.551.91,2.766,2.766,0,0,0-2.1,1.56,1.235,1.235,0,0,0-.041.168A2.213,2.213,0,0,0,797.482,790.124Z" transform="translate(-633.941 -628.977)" fill="#3f3d56"/>
    <path id="Path_2630" data-name="Path 2630" d="M797.482,790.124a5.69,5.69,0,0,0,2.524.77,8.121,8.121,0,0,1,2.586.59,17.127,17.127,0,0,0,2,1.142,4.144,4.144,0,0,0,2.069.033A3.058,3.058,0,0,0,808.8,791.5a3.541,3.541,0,0,0,.3-2.166c-.064-.828-.124-1.676-.186-2.514a1.227,1.227,0,0,0-.155-.608c-.594-.863-2.034.362-2.8.36a5.4,5.4,0,0,1-3.414-1.473,1.035,1.035,0,0,0-.265-.207c-.35-.157-.7.132-1.008.385-.033.029-.068.056-.1.083a6.611,6.611,0,0,1-2.551.91,2.766,2.766,0,0,0-2.1,1.56,1.235,1.235,0,0,0-.041.168A2.213,2.213,0,0,0,797.482,790.124Z" transform="translate(-633.941 -628.977)" opacity="0.05"/>
    <path id="Path_2631" data-name="Path 2631" d="M797.186,790.381a5.691,5.691,0,0,0,2.524.77,8.121,8.121,0,0,1,2.586.59,16.857,16.857,0,0,0,2,1.142,4.144,4.144,0,0,0,2.069.033,3.427,3.427,0,0,0,2.135-1.448,3.541,3.541,0,0,0,.3-2.166c-.064-.828-.124-1.676-.186-2.514a1.227,1.227,0,0,0-.155-.608c-.594-.863-2.034.362-2.8.36a5.4,5.4,0,0,1-3.414-1.473,1.034,1.034,0,0,0-.265-.207c-.35-.157-.7.132-1.008.385a7.241,7.241,0,0,0,.859,1.771,3.705,3.705,0,0,0,2.69,1.684,8.758,8.758,0,0,1,1.635.072c.528.141,1.02.681.828,1.194s-.828.621-1.361.639a6.1,6.1,0,0,1-2.22-.155c-.432-.145-.828-.383-1.241-.559-1.79-.743-4.051-.327-5.531-1.581a3.135,3.135,0,0,0-.451-.345C795.785,788.784,796.5,789.912,797.186,790.381Z" transform="translate(-633.645 -628.953)" fill="#e8eaf2"/>
    <path id="Path_2632" data-name="Path 2632" d="M797.186,790.381a5.691,5.691,0,0,0,2.524.77,8.121,8.121,0,0,1,2.586.59,16.857,16.857,0,0,0,2,1.142,4.144,4.144,0,0,0,2.069.033,3.427,3.427,0,0,0,2.135-1.448,3.541,3.541,0,0,0,.3-2.166c-.064-.828-.124-1.676-.186-2.514a1.227,1.227,0,0,0-.155-.608c-.594-.863-2.034.362-2.8.36a5.4,5.4,0,0,1-3.414-1.473,1.034,1.034,0,0,0-.265-.207c-.35-.157-.7.132-1.008.385a7.241,7.241,0,0,0,.859,1.771,3.705,3.705,0,0,0,2.69,1.684,8.758,8.758,0,0,1,1.635.072c.528.141,1.02.681.828,1.194s-.828.621-1.361.639a6.1,6.1,0,0,1-2.22-.155c-.432-.145-.828-.383-1.241-.559-1.79-.743-4.051-.327-5.531-1.581a3.135,3.135,0,0,0-.451-.345C795.785,788.784,796.5,789.912,797.186,790.381Z" transform="translate(-633.645 -628.953)" opacity="0.05"/>
    <path id="Path_2633" data-name="Path 2633" d="M817.036,534.494a11,11,0,0,1-1.51,8.123,15.719,15.719,0,0,0-1.225,1.966,9.072,9.072,0,0,0-.48,1.56l-1.357,5.626a15.051,15.051,0,0,0-.621,4.624c.077,1.086.35,2.307-.319,3.166a2.327,2.327,0,0,0-.414.555,1.417,1.417,0,0,0,0,.732c.687,4.084,1.2,8.353-.043,12.3-1.126,3.582-1.192,7.55-2.148,11.173a2.483,2.483,0,0,1-.6,1.241,1.944,1.944,0,0,1-.89.414,6.585,6.585,0,0,1-4.217-.666c-.925-.428-1.92-1.179-1.841-2.2a4.473,4.473,0,0,1,.513-1.353,9.323,9.323,0,0,0,.507-2.793,56.57,56.57,0,0,1,1.539-6.989,16.706,16.706,0,0,0,.461-7.091,61.982,61.982,0,0,0-4.552-14.033,1.67,1.67,0,0,0-.414-.621c-.186-.153-.432-.224-.592-.414a1.819,1.819,0,0,1-.269-.735,8.055,8.055,0,0,0-1.227-1.939c-1.035-1.643-.708-3.749-.668-5.69a39.354,39.354,0,0,1,.074-5.657c.308-1.862,1.376-3.766,3.172-4.345a6.841,6.841,0,0,1,2.783-.13A55.037,55.037,0,0,1,817.036,534.494Z" transform="translate(-634.066 -427.853)" fill="#303d5c"/>
    <path id="Path_2634" data-name="Path 2634" d="M817.036,534.494a11,11,0,0,1-1.51,8.123,15.719,15.719,0,0,0-1.225,1.966,9.072,9.072,0,0,0-.48,1.56l-1.357,5.626a15.051,15.051,0,0,0-.621,4.624c.077,1.086.35,2.307-.319,3.166a2.327,2.327,0,0,0-.414.555,1.417,1.417,0,0,0,0,.732c.687,4.084,1.2,8.353-.043,12.3-1.126,3.582-1.192,7.55-2.148,11.173a2.483,2.483,0,0,1-.6,1.241,1.944,1.944,0,0,1-.89.414,6.585,6.585,0,0,1-4.217-.666c-.925-.428-1.92-1.179-1.841-2.2a4.473,4.473,0,0,1,.513-1.353,9.323,9.323,0,0,0,.507-2.793,56.57,56.57,0,0,1,1.539-6.989,16.706,16.706,0,0,0,.461-7.091,61.982,61.982,0,0,0-4.552-14.033,1.67,1.67,0,0,0-.414-.621c-.186-.153-.432-.224-.592-.414a1.819,1.819,0,0,1-.269-.735,8.055,8.055,0,0,0-1.227-1.939c-1.035-1.643-.708-3.749-.668-5.69a39.354,39.354,0,0,1,.074-5.657c.308-1.862,1.376-3.766,3.172-4.345a6.841,6.841,0,0,1,2.783-.13A55.037,55.037,0,0,1,817.036,534.494Z" transform="translate(-634.066 -427.853)" opacity="0.05"/>
    <path id="Path_2635" data-name="Path 2635" d="M795.529,549.841a11.936,11.936,0,0,0,.248,2.181q1.3,7.314,2.779,14.6c.087.414.172.842.285,1.256a10.206,10.206,0,0,0,1.883,3.7c4.1,5.107,4.451,12.524,6.675,18.684.149.414.3.828.459,1.241a30.468,30.468,0,0,0,1.372,3.06.869.869,0,0,0,.281.366.847.847,0,0,0,.447.087,13.035,13.035,0,0,0,5.783-1.31,1.2,1.2,0,0,0,.621-.509,1.253,1.253,0,0,0,.064-.588,8.271,8.271,0,0,0-.718-3.559,7.636,7.636,0,0,0-1.423-1.726,65.52,65.52,0,0,0-1.395-11.415,15.74,15.74,0,0,0-2.069-5.467c-.828-1.194-1.995-2.371-1.85-3.813.064-.621.329-1.419-.186-1.792-.226-.163-.559-.184-.71-.414a.784.784,0,0,1-.1-.356,8.827,8.827,0,0,1,.182-2.957,15.909,15.909,0,0,0,.441-1.926,2.428,2.428,0,0,0-.484-1.862c-.027-1.316,0-2.69-.019-3.993a7.447,7.447,0,0,1,.184-2.23c.1-.346.252-.675.329-1.035.275-1.262-.414-2.777.414-3.778a5.71,5.71,0,0,1,1.312-.923,4.815,4.815,0,0,0,1.8-2.588,14.813,14.813,0,0,0,.511-3.17,3.293,3.293,0,0,0,0-.685,1.224,1.224,0,0,0-.091-.341,2.1,2.1,0,0,0-1.546-.939,49.95,49.95,0,0,0-11.794-1.378c-1.469-1-2.3-.643-2.919.414a11.016,11.016,0,0,0-.828,2.03c-.286.859-.3,5.671-.579,6.534C794.5,546.369,795.543,548.662,795.529,549.841Z" transform="translate(-632.645 -431.359)" fill="#303d5c"/>
    <path id="Path_2636" data-name="Path 2636" d="M889.133,386.578a11.708,11.708,0,0,1-.3,2.266,8.527,8.527,0,0,0,.3,1.976c.474,2.566-.437,5.162-1.366,7.6a3.911,3.911,0,0,0-.323,1.241,12.653,12.653,0,0,0,.559,2.311c.263,1.655-.954,3.205-.981,4.879a9.213,9.213,0,0,1,.039,2.3,8.048,8.048,0,0,1-.66,1.39c-.391.828-.495,1.757-.869,2.586a8.731,8.731,0,0,1-3.5,3.383,3.615,3.615,0,0,1-2.069-1.277,3.142,3.142,0,0,1-.358-1.119,29.22,29.22,0,0,1-.277-5.193,32.246,32.246,0,0,1,.244-4.453c.277-1.887.89-3.706,1.328-5.562a52.2,52.2,0,0,1,1.7-7,23.716,23.716,0,0,1,3.182-5.44c.474-.648.848-1.573,1.769-1.424A1.928,1.928,0,0,1,889.133,386.578Z" transform="translate(-699.684 -311.882)" fill="#019da9"/>
    <path id="Path_2637" data-name="Path 2637" d="M889.133,386.578a11.708,11.708,0,0,1-.3,2.266,8.527,8.527,0,0,0,.3,1.976c.474,2.566-.437,5.162-1.366,7.6a3.911,3.911,0,0,0-.323,1.241,12.653,12.653,0,0,0,.559,2.311c.263,1.655-.954,3.205-.981,4.879a9.213,9.213,0,0,1,.039,2.3,8.048,8.048,0,0,1-.66,1.39c-.391.828-.495,1.757-.869,2.586a8.731,8.731,0,0,1-3.5,3.383,3.615,3.615,0,0,1-2.069-1.277,3.142,3.142,0,0,1-.358-1.119,29.22,29.22,0,0,1-.277-5.193,32.246,32.246,0,0,1,.244-4.453c.277-1.887.89-3.706,1.328-5.562a52.2,52.2,0,0,1,1.7-7,23.716,23.716,0,0,1,3.182-5.44c.474-.648.848-1.573,1.769-1.424A1.928,1.928,0,0,1,889.133,386.578Z" transform="translate(-699.684 -311.882)" opacity="0.05"/>
    <path id="Path_2638" data-name="Path 2638" d="M830,307.447a16.433,16.433,0,0,1,1.5,3.089,7.119,7.119,0,0,0,1.7.207c2.228,0,3.807-1.268,5.117-2.87.114-.515.828-.993.741-1.4-.1-.534-.608-.428-1.061-.4a40.173,40.173,0,0,0-4.126.532C833.517,306.671,830.058,307.536,830,307.447Z" transform="translate(-660.56 -249.247)" opacity="0.1"/>
    <circle id="Ellipse_127" data-name="Ellipse 127" cx="7.14" cy="7.14" r="7.14" transform="translate(165.509 47.02)" fill="#ee8e9e"/>
    <path id="Path_2639" data-name="Path 2639" d="M801.9,536.7c1.241-.072,2.483-.023,3.724.027a12.532,12.532,0,0,1,2.309.238c.937.207,1.815.639,2.739.906a24.938,24.938,0,0,0,4.579.6,26.186,26.186,0,0,1,3,.47,1.226,1.226,0,0,0-.091-.341,2.1,2.1,0,0,0-1.546-.939,49.953,49.953,0,0,0-11.794-1.378C803.35,535.281,802.523,535.639,801.9,536.7Z" transform="translate(-638.274 -431.375)" opacity="0.1"/>
    <path id="Path_2640" data-name="Path 2640" d="M795.387,341.923c.312.36.73.757,1.192.641a1.675,1.675,0,0,0,.464-.248,6.967,6.967,0,0,1,2.8-.8,41.387,41.387,0,0,0,5.771-1.3,5.871,5.871,0,0,1,1.707-.348,4.147,4.147,0,0,1,3.042,1.755c.766.943,1.3,2.046,2.04,3,.53.681,1.161,1.281,1.655,1.986a8.732,8.732,0,0,1,1.2,6.261,25.823,25.823,0,0,1-2.036,6.187,22,22,0,0,1-1.655,3.35,7.943,7.943,0,0,1-.641,4.966,4.85,4.85,0,0,0-.648,1.479,3.675,3.675,0,0,0,.043,1.084l.364,2.584c.11.788.221,1.575.364,2.357.263,1.432.621,2.986-.044,4.281-.794,1.55.039,3.538-.17,5.268a26.5,26.5,0,0,0-6.958-1.655,25.022,25.022,0,0,1-4.579-.6c-.925-.269-1.8-.7-2.739-.91a12.691,12.691,0,0,0-2.311-.236,27.371,27.371,0,0,0-5.127.116c-.139.021-.3.031-.387-.081a.371.371,0,0,1-.052-.207,3.4,3.4,0,0,1,.439-1.817,2.584,2.584,0,0,0,.507-1.192,1.793,1.793,0,0,0-.149-.592l-.749-2c-.635-1.688-.333-3.652-.662-5.425a31.884,31.884,0,0,1-.492-4.2,5.25,5.25,0,0,1,.7-3.472,3.928,3.928,0,0,0,.548-.763,2.3,2.3,0,0,0,.13-.912q.025-3.613-.207-7.223c.635-1.138,1.3-2.3,1.928-3.441a14.727,14.727,0,0,0,1.784-4.161c.207-.985.19-2,.331-2.99a1.293,1.293,0,0,1,.252-.7,1.276,1.276,0,0,1,1.016-.3A4.457,4.457,0,0,1,795.387,341.923Z" transform="translate(-626.894 -276.072)" fill="#019da9"/>
    <path id="Path_2641" data-name="Path 2641" d="M699.07,323.106a3.1,3.1,0,0,0,1.546.621,4.052,4.052,0,0,0,2.758-1.014,1.825,1.825,0,0,0,.263-1.055,1.28,1.28,0,0,0-.306-.06,8.008,8.008,0,0,0-2.4.1,2.71,2.71,0,0,0-1.862,1.4Z" transform="translate(-556.72 -261.546)" opacity="0.1"/>
    <path id="Path_2642" data-name="Path 2642" d="M723.336,339.3a5.055,5.055,0,0,1-1.5,1.417,4.834,4.834,0,0,1-2.344.36,56.061,56.061,0,0,1-9.8-1.076,6.057,6.057,0,0,1-1.078-.29,5.744,5.744,0,0,1-1.09-.679,13.973,13.973,0,0,1-2.948-2.572,8.655,8.655,0,0,1-1.746-4.285,7,7,0,0,1-1.562-2.69,4.153,4.153,0,0,1-.356-1.306c-.021-.461.286-.946.207-1.4a3.7,3.7,0,0,0-1.132-2.038.739.739,0,0,1-.271-.358.579.579,0,0,1,.066-.35,2.693,2.693,0,0,1,1.862-1.4,8.012,8.012,0,0,1,2.4-.1,6.162,6.162,0,0,1,.784.207l.559,1.471a1.909,1.909,0,0,0,.366.67,3.632,3.632,0,0,0,.4.31,2.276,2.276,0,0,1,.786,1.982,2.129,2.129,0,0,1,1.26,2.628,2.512,2.512,0,0,1,1.842,1.622,1.215,1.215,0,0,0,.24.5.985.985,0,0,0,.643.207c.621.039,1.182.536,1.755.267a3.557,3.557,0,0,1,2.075-.292,1.536,1.536,0,0,0,.445.039,1.208,1.208,0,0,0,.364-.126,2.991,2.991,0,0,1,.828-.327.774.774,0,0,1,.784.3c.207-.219.321-.5.5-.735a.8.8,0,0,1,.761-.364c-.19-.17,0-.507.25-.569a3.139,3.139,0,0,1,.761.029c.66,0,1.167-.6,1.808-.761.59-.143,1.376.029,1.678-.5.108-.186.128-.439.31-.552a.594.594,0,0,1,.4-.048,3.917,3.917,0,0,1,1.206.366,16.859,16.859,0,0,1-.178,7.383A6.544,6.544,0,0,1,723.336,339.3Z" transform="translate(-557.226 -262.296)" fill="#019da9"/>
    <path id="Path_2643" data-name="Path 2643" d="M811.233,442.465l3.075,6.207c-.333-.573-1.035-.8-1.587-1.163a4.2,4.2,0,0,1-1.517-2.038,12.509,12.509,0,0,1-.592-2.52,2.265,2.265,0,0,1,0-1.3C810.971,441.722,811.086,442.173,811.233,442.465Z" transform="translate(-645.104 -356.792)" opacity="0.1"/>
    <path id="Path_2644" data-name="Path 2644" d="M851.853,466.392a27.141,27.141,0,0,0,2.307,1.8,21.255,21.255,0,0,1,4.3,5.28,8.358,8.358,0,0,1,.877,1.61c-.145.126-.362,0-.5-.13l-2.417-2.123a5.449,5.449,0,0,1-.8-.815c-.414-.563-.6-1.268-.985-1.862a7.333,7.333,0,0,0-1.467-1.5c-.532-.461-3.1-2.63-2.483-3.466C851.121,465.413,851.491,466.034,851.853,466.392Z" transform="translate(-676.878 -375.462)" opacity="0.1"/>
    <path id="Path_2645" data-name="Path 2645" d="M825.964,335.629a7.226,7.226,0,0,1,2.555-.842,5.381,5.381,0,0,1,1.626-.116c.5.062.985.257,1.492.283a6.548,6.548,0,0,0,2.069-.435,2.445,2.445,0,0,1,2.057.155.892.892,0,0,0,.447.238.778.778,0,0,0,.461-.228,2.636,2.636,0,0,1,3.284.174c1.31,1.227,1.163,3.625,2.69,4.552.424.257.964.393,1.21.828a2.883,2.883,0,0,0,.207.4,1.063,1.063,0,0,0,.368.263,7.225,7.225,0,0,1,1.266.726,1.813,1.813,0,0,1,.728,1.221,2.276,2.276,0,0,1-.226,1.035,9.626,9.626,0,0,1-9.356,5.984,1.486,1.486,0,0,1-.981-.306,1.845,1.845,0,0,1-.343-.565c-.72-1.512-2.069-2.63-2.936-4.068-.513-.857-.842-1.815-1.376-2.659a12.377,12.377,0,0,0-3.226-3.145,3.744,3.744,0,0,0-2.288-1.024c-.759.033-1.314.074-1.035-.859A2.981,2.981,0,0,1,825.964,335.629Z" transform="translate(-656.265 -271.57)" fill="#019da9"/>
    <path id="Path_2646" data-name="Path 2646" d="M825.964,335.629a7.226,7.226,0,0,1,2.555-.842,5.381,5.381,0,0,1,1.626-.116c.5.062.985.257,1.492.283a6.548,6.548,0,0,0,2.069-.435,2.445,2.445,0,0,1,2.057.155.892.892,0,0,0,.447.238.778.778,0,0,0,.461-.228,2.636,2.636,0,0,1,3.284.174c1.31,1.227,1.163,3.625,2.69,4.552.424.257.964.393,1.21.828a2.883,2.883,0,0,0,.207.4,1.063,1.063,0,0,0,.368.263,7.225,7.225,0,0,1,1.266.726,1.813,1.813,0,0,1,.728,1.221,2.276,2.276,0,0,1-.226,1.035,9.626,9.626,0,0,1-9.356,5.984,1.486,1.486,0,0,1-.981-.306,1.845,1.845,0,0,1-.343-.565c-.72-1.512-2.069-2.63-2.936-4.068-.513-.857-.842-1.815-1.376-2.659a12.377,12.377,0,0,0-3.226-3.145,3.744,3.744,0,0,0-2.288-1.024c-.759.033-1.314.074-1.035-.859A2.981,2.981,0,0,1,825.964,335.629Z" transform="translate(-656.265 -271.57)" opacity="0.05"/>
    <path id="Path_2647" data-name="Path 2647" d="M811.058,819.473a4,4,0,0,0,1.918.844,34.913,34.913,0,0,0,4.778.59l1.56.12c1.523.114,3.048.232,4.577.238a31.5,31.5,0,0,0,5.628-.486.476.476,0,0,0,.515-.571,27.2,27.2,0,0,0-.691-5.651c-.178-.761-1.544.946-1.6,1.018a1.58,1.58,0,0,1-1.241.658,8.246,8.246,0,0,1-4.579-1.717,5.723,5.723,0,0,0-.848-.526,2.445,2.445,0,0,0-.685-.207,4.149,4.149,0,0,0-2.338.474c-.937.466-1.761,1.134-2.69,1.612a7.506,7.506,0,0,1-2.41.763c-.85.118-1.862.174-2.3.91A1.633,1.633,0,0,0,811.058,819.473Z" transform="translate(-645.076 -651.914)" fill="#3f3d56"/>
    <path id="Path_2648" data-name="Path 2648" d="M810.645,819.853a4,4,0,0,0,1.918.844,34.921,34.921,0,0,0,4.778.59l1.56.12c1.523.114,3.048.232,4.577.238a31.483,31.483,0,0,0,5.628-.486.621.621,0,0,0,.447-.207,2.566,2.566,0,0,0,.348-.637,27.625,27.625,0,0,0-.972-5.651c-.178-.761-1.544.946-1.6,1.018a1.58,1.58,0,0,1-1.241.658,8.246,8.246,0,0,1-4.579-1.717,5.726,5.726,0,0,0-.848-.526,2.446,2.446,0,0,0-.685-.207c.207,1.13,1.823,2.5,2.659,2.911,1.693.84,3.7.414,5.587.519a.768.768,0,0,1,.4.1c.228.149.24.47.234.741-.017.451-.075.979-.464,1.208a1.32,1.32,0,0,1-.621.13,88.461,88.461,0,0,1-13.946-.488,7.709,7.709,0,0,1-2.276-.5,5.823,5.823,0,0,1-1.318-.848C809.633,818.126,810.13,819.371,810.645,819.853Z" transform="translate(-644.662 -652.012)" fill="#e8eaf2"/>
    <path id="Path_2649" data-name="Path 2649" d="M823.64,264.057c.027.739-.476,2.17.9,1.771.828-.24,1.055-1.215,2.1-1s1.285,1.5,1.639,2.346a4.488,4.488,0,0,0,3.253,2.63,1.955,1.955,0,0,0,.9,0,2.412,2.412,0,0,0,1.335-1.531,12.245,12.245,0,0,0,.59-1.68,7.154,7.154,0,0,0,.207-1.241h0a5.6,5.6,0,0,0,0-.852,6.924,6.924,0,0,0-2.3-4.368,20.632,20.632,0,0,0-4.175-2.818,6.08,6.08,0,0,0-1.542-.687,5.162,5.162,0,0,0-1.626-.066,5.611,5.611,0,0,0-2.069.486,2.929,2.929,0,0,0-.728.511,2.181,2.181,0,0,0-.621,1.053c-.265,1.086.426,2.069.989,2.919A5.269,5.269,0,0,1,823.64,264.057Z" transform="translate(-653.769 -209.974)" fill="#3f3d56"/>
    <path id="Path_2650" data-name="Path 2650" d="M719.77,356.067c.3-.743,1.537-2.8,1.177-3.507a9.352,9.352,0,0,0-.943,1.686C719.77,354.822,719.96,355.593,719.77,356.067Z" transform="translate(-573.137 -286.136)" opacity="0.1"/>
    <path id="Path_2651" data-name="Path 2651" d="M822.328,264.942c-.563-.859-1.256-1.835-.991-2.919a2.3,2.3,0,0,1,.8-1.2,2,2,0,0,0-.207.507c-.265,1.084.428,2.069.991,2.919a5.237,5.237,0,0,1,1.155,2.52c.027.737-.478,2.17.9,1.771.828-.238,1.055-1.215,2.1-1s1.283,1.5,1.637,2.344a4.5,4.5,0,0,0,3.261,2.63,1.955,1.955,0,0,0,.9,0,1.338,1.338,0,0,0,.414-.207,1.817,1.817,0,0,1-1.022.9,1.955,1.955,0,0,1-.9,0,4.5,4.5,0,0,1-3.248-2.63c-.354-.842-.583-2.125-1.637-2.346s-1.277.759-2.1,1c-1.382.4-.877-1.035-.9-1.771A5.218,5.218,0,0,0,822.328,264.942Z" transform="translate(-653.643 -213.378)" opacity="0.1"/>
    <path id="Path_2652" data-name="Path 2652" d="M823.121,260.07a6.443,6.443,0,0,0,.414.6,7.4,7.4,0,0,0,.977,1.012,7.645,7.645,0,0,0,.66.517,10.591,10.591,0,0,0,1.333.8,24.471,24.471,0,0,0,4.266,1.527l2.851.828c.35.265.991.743,1.7,1.241a7.148,7.148,0,0,0,.207-1.241h0a5.582,5.582,0,0,0,0-.852,6.924,6.924,0,0,0-2.3-4.368,20.631,20.631,0,0,0-4.175-2.818,6.079,6.079,0,0,0-1.542-.687,5.161,5.161,0,0,0-1.626-.066,5.611,5.611,0,0,0-2.069.486,2.928,2.928,0,0,0-.728.511,2.72,2.72,0,0,0-.366.774A2.283,2.283,0,0,0,823.121,260.07Z" transform="translate(-654.742 -209.974)" opacity="0.1"/>
    <path id="Path_2653" data-name="Path 2653" d="M823.144,253.963a6.438,6.438,0,0,0,.414.6,7.406,7.406,0,0,0,.977,1.012,7.646,7.646,0,0,0,.66.517,10.594,10.594,0,0,0,1.332.8,24.65,24.65,0,0,0,4.266,1.529l2.851.828c1,.753,4.324,3.22,4.885,2.911.66-.362-2.955-2.922-2.955-2.922l-.168.126a2.667,2.667,0,0,0,.927-1.771,8.977,8.977,0,0,0,.027-3.615,4.288,4.288,0,0,0-2.069-2.855,4.823,4.823,0,0,1-1.407-.792,1.014,1.014,0,0,1-.137-.184.882.882,0,0,1-.054-.1,1.273,1.273,0,0,0-.151-.294c-.207-.23-.559-.161-.859-.124l-.1.01h-.161c-1.072.025-2.11-.573-3.195-.573a8.166,8.166,0,0,0-3.246,1.157c-.207.1-.414.182-.6.271a2.6,2.6,0,0,0-1.637,1.728A2.227,2.227,0,0,0,823.144,253.963Z" transform="translate(-654.765 -204.059)" fill="#019da9"/>
    <path id="Path_2654" data-name="Path 2654" d="M864.686,251.791a.486.486,0,0,0,.112.621.888.888,0,0,0,.451.161,3.27,3.27,0,0,0,.35.027.962.962,0,0,0,.464-.081.412.412,0,0,0,.081-.052,1.013,1.013,0,0,1-.137-.184c-.027.021-.054.017-.161,0a2.485,2.485,0,0,1-.577-.1.567.567,0,0,1-.414-.414Z" transform="translate(-688.017 -206.2)" opacity="0.1"/>
    <path id="Path_2655" data-name="Path 2655" d="M877.708,298.017a1.324,1.324,0,0,1-.492.184,2,2,0,0,1-.383.062A2.121,2.121,0,0,1,875.9,298Z" transform="translate(-696.962 -242.865)" opacity="0.1"/>
    <path id="Path_2656" data-name="Path 2656" d="M424.252,265.129l-.269-.592-.108.029.281.59,2.028,4.273a2.609,2.609,0,0,0-.621,1.448.974.974,0,0,0,.052.308c.1.3.232.424.348.457v-.052a1.273,1.273,0,0,1,0-.207v-.091a.2.2,0,0,1,0-.035v-.014h0a.363.363,0,0,0,.01-.046h0a.047.047,0,0,1,0-.017v-.021l.025-.089.01-.025.012-.046c.01-.029.021-.06.033-.089a.249.249,0,0,1,.017-.041l.025-.058c.025-.058.054-.114.081-.17a1.715,1.715,0,0,1,.085-.151,3.614,3.614,0,0,1,.273-.393Zm2.255,7.159h-.012a.256.256,0,0,1-.126,0h-.021a.262.262,0,0,1-.037-.012.292.292,0,0,1-.085-.052l-.031-.029a.773.773,0,0,1-.149-.236.759.759,0,0,0-.046.242.387.387,0,0,0,.188.362.7.7,0,0,1,.2.194h0a.015.015,0,0,0,0-.012h0a.06.06,0,0,1,0-.019.034.034,0,0,1,0-.014,1.126,1.126,0,0,1,.089-.246c.021-.039.039-.077.062-.112a.355.355,0,0,1,.027-.048l.019-.029.031-.05a.368.368,0,0,1-.105.06Zm0,0h-.012a.256.256,0,0,1-.126,0h-.021a.262.262,0,0,1-.037-.012.292.292,0,0,1-.085-.052l-.031-.029a.773.773,0,0,1-.149-.236.759.759,0,0,0-.046.242.387.387,0,0,0,.188.362.7.7,0,0,1,.2.194h0a.015.015,0,0,0,0-.012h0a.06.06,0,0,1,0-.019.034.034,0,0,1,0-.014,1.126,1.126,0,0,1,.089-.246c.021-.039.039-.077.062-.112a.355.355,0,0,1,.027-.048l.019-.029.031-.05a.368.368,0,0,1-.105.06Zm-2.255-7.159-.269-.592-.108.029.281.59,2.028,4.273a2.609,2.609,0,0,0-.621,1.448.974.974,0,0,0,.052.308c.1.3.232.424.348.457v-.052a1.273,1.273,0,0,1,0-.207.107.107,0,0,1,0-.027v-.029h0a.046.046,0,0,0,0-.017h0v-.01a.05.05,0,0,1,0-.017h0a.117.117,0,0,1,0-.025h0a.32.32,0,0,1,.01-.048.047.047,0,0,1,0-.017v-.021l.025-.089.01-.025.012-.046c.01-.029.021-.06.033-.089a.246.246,0,0,1,.017-.041l.025-.058c.025-.058.054-.114.081-.17a1.715,1.715,0,0,1,.085-.151,3.615,3.615,0,0,1,.273-.393Zm2.255,7.159h-.012a.256.256,0,0,1-.126,0h-.021a.262.262,0,0,1-.037-.012.292.292,0,0,1-.085-.052l-.031-.029a.773.773,0,0,1-.149-.236.759.759,0,0,0-.046.242.387.387,0,0,0,.188.362.7.7,0,0,1,.2.194h0a.015.015,0,0,0,0-.012h0a.06.06,0,0,1,0-.019.034.034,0,0,1,0-.014,1.126,1.126,0,0,1,.089-.246l.043-.085.019-.027a.355.355,0,0,1,.027-.048l.019-.029.031-.05a.368.368,0,0,1-.105.06Zm-2.255-7.159-.269-.592-.108.029.281.59,2.028,4.273a2.609,2.609,0,0,0-.621,1.448.974.974,0,0,0,.052.308c.1.3.232.424.348.457v-.052a1.273,1.273,0,0,1,0-.207.107.107,0,0,1,0-.027v-.029h0a.046.046,0,0,0,0-.017h0a.05.05,0,0,1,0-.017h0a.117.117,0,0,1,0-.025h0a.321.321,0,0,1,.01-.048.047.047,0,0,1,0-.017v-.021L426,271.1l.01-.025.012-.046c.01-.029.021-.06.033-.089a.249.249,0,0,1,.017-.041l.025-.058c.025-.058.054-.114.081-.17a1.715,1.715,0,0,1,.085-.151,3.615,3.615,0,0,1,.273-.393Zm2.255,7.159h-.012a.256.256,0,0,1-.126,0h-.021a.262.262,0,0,1-.037-.012.292.292,0,0,1-.085-.052l-.031-.029a.773.773,0,0,1-.149-.236.759.759,0,0,0-.046.242.387.387,0,0,0,.188.362.7.7,0,0,1,.2.194h0a.015.015,0,0,0,0-.012h0a.05.05,0,0,1,0-.017.049.049,0,0,1,0-.017,1.125,1.125,0,0,1,.089-.246l.043-.085.019-.027a.356.356,0,0,1,.027-.048l.019-.029.031-.05a.368.368,0,0,1-.105.06Zm-2.255-7.159-.269-.592-.108.029.281.59,2.028,4.273a2.609,2.609,0,0,0-.621,1.448.974.974,0,0,0,.052.308c.1.3.232.424.348.457v-.052a1.273,1.273,0,0,1,0-.207.107.107,0,0,1,0-.027v-.029h0a.046.046,0,0,0,0-.017h0a.05.05,0,0,1,0-.017h0a.117.117,0,0,1,0-.025h0a.321.321,0,0,1,.01-.048.047.047,0,0,1,0-.017v-.021L426,271.1l.01-.025.012-.046c.01-.029.021-.06.033-.089a.249.249,0,0,1,.017-.041l.025-.058c.025-.058.054-.114.081-.17a1.715,1.715,0,0,1,.085-.151,3.615,3.615,0,0,1,.273-.393Zm2.255,7.159h-.012a.256.256,0,0,1-.126,0h-.021a.262.262,0,0,1-.037-.012.292.292,0,0,1-.085-.052l-.031-.029a.773.773,0,0,1-.149-.236.759.759,0,0,0-.046.242.387.387,0,0,0,.188.362.7.7,0,0,1,.2.194h0a.015.015,0,0,0,0-.012h0a.05.05,0,0,1,0-.017.049.049,0,0,1,0-.017,1.125,1.125,0,0,1,.089-.246l.043-.085.019-.027a.356.356,0,0,1,.027-.048l.019-.029.031-.05a.368.368,0,0,1-.105.06Zm-2.255-7.159-.269-.592-.108.029.281.59,2.028,4.273a2.609,2.609,0,0,0-.621,1.448.974.974,0,0,0,.052.308c.1.3.232.424.348.457v-.052a1.273,1.273,0,0,1,0-.207.107.107,0,0,1,0-.027v-.029h0a.046.046,0,0,0,0-.017h0a.05.05,0,0,1,0-.017h0a.117.117,0,0,1,0-.025h0a.321.321,0,0,1,.01-.048.047.047,0,0,1,0-.017v-.021L426,271.1l.01-.025.012-.046c.01-.029.021-.06.033-.089a.249.249,0,0,1,.017-.041l.025-.058c.025-.058.054-.114.081-.17a1.715,1.715,0,0,1,.085-.151,3.615,3.615,0,0,1,.273-.393Zm2.255,7.159h-.012a.256.256,0,0,1-.126,0h-.021a.262.262,0,0,1-.037-.012.292.292,0,0,1-.085-.052l-.031-.029a.773.773,0,0,1-.149-.236.759.759,0,0,0-.046.242.387.387,0,0,0,.188.362.7.7,0,0,1,.2.194h0a.015.015,0,0,0,0-.012h0a.05.05,0,0,1,0-.017.049.049,0,0,1,0-.017,1.125,1.125,0,0,1,.089-.246l.043-.085.019-.027a.356.356,0,0,1,.027-.048l.019-.029.031-.05a.368.368,0,0,1-.105.06Zm-2.255-7.159-.269-.592-.108.029.281.59,2.028,4.273a2.609,2.609,0,0,0-.621,1.448.974.974,0,0,0,.052.308c.1.3.232.424.348.457v-.052a1.273,1.273,0,0,1,0-.207.107.107,0,0,1,0-.027v-.029h0a.046.046,0,0,0,0-.017h0a.05.05,0,0,1,0-.017h0a.117.117,0,0,1,0-.025h0a.321.321,0,0,1,.01-.048.047.047,0,0,1,0-.017v-.021L426,271.1l.01-.025.012-.046c.01-.029.021-.06.033-.089a.249.249,0,0,1,.017-.041l.025-.058c.025-.058.054-.114.081-.17a1.715,1.715,0,0,1,.085-.151,3.615,3.615,0,0,1,.273-.393Zm2.255,7.159h-.012a.256.256,0,0,1-.126,0h-.021a.262.262,0,0,1-.037-.012.292.292,0,0,1-.085-.052l-.031-.029a.773.773,0,0,1-.149-.236.759.759,0,0,0-.046.242.387.387,0,0,0,.188.362.7.7,0,0,1,.2.194h0a.015.015,0,0,0,0-.012h0a.05.05,0,0,1,0-.017.049.049,0,0,1,0-.017,1.125,1.125,0,0,1,.089-.246l.043-.085.019-.027a.356.356,0,0,1,.027-.048l.019-.029.031-.05a.368.368,0,0,1-.105.06Zm-2.255-7.159-.269-.592-.108.029.281.59,2.028,4.273a2.609,2.609,0,0,0-.621,1.448.974.974,0,0,0,.052.308c.1.3.232.424.348.457v-.052a1.273,1.273,0,0,1,0-.207.107.107,0,0,1,0-.027v-.029h0a.046.046,0,0,0,0-.017h0a.05.05,0,0,1,0-.017h0a.117.117,0,0,1,0-.025h0a.321.321,0,0,1,.01-.048.047.047,0,0,1,0-.017v-.021L426,271.1l.01-.025.012-.046c.01-.029.021-.06.033-.089a.249.249,0,0,1,.017-.041l.025-.058c.025-.058.054-.114.081-.17a1.715,1.715,0,0,1,.085-.151,3.615,3.615,0,0,1,.273-.393Zm2.255,7.159h-.012a.256.256,0,0,1-.126,0h-.021a.262.262,0,0,1-.037-.012.292.292,0,0,1-.085-.052l-.031-.029a.773.773,0,0,1-.149-.236.759.759,0,0,0-.046.242.387.387,0,0,0,.188.362.7.7,0,0,1,.2.194h0a.015.015,0,0,0,0-.012h0a.05.05,0,0,1,0-.017.049.049,0,0,1,0-.017,1.125,1.125,0,0,1,.089-.246l.043-.085.019-.027a.356.356,0,0,1,.027-.048l.019-.029.031-.05a.368.368,0,0,1-.105.06Zm-2.255-7.159-.269-.592-.108.029.281.59,2.028,4.273a2.609,2.609,0,0,0-.621,1.448.974.974,0,0,0,.052.308c.1.3.232.424.348.457v-.052a1.273,1.273,0,0,1,0-.207.107.107,0,0,1,0-.027v-.029h0a.046.046,0,0,0,0-.017h0a.05.05,0,0,1,0-.017h0a.117.117,0,0,1,0-.025h0a.321.321,0,0,1,.01-.048.047.047,0,0,1,0-.017v-.021L426,271.1l.01-.025.012-.046c.01-.029.021-.06.033-.089a.249.249,0,0,1,.017-.041l.025-.058c.025-.058.054-.114.081-.17a1.715,1.715,0,0,1,.085-.151,3.615,3.615,0,0,1,.273-.393Zm2.255,7.159h-.012a.256.256,0,0,1-.126,0h-.021a.262.262,0,0,1-.037-.012.292.292,0,0,1-.085-.052l-.031-.029a.773.773,0,0,1-.149-.236.759.759,0,0,0-.046.242.387.387,0,0,0,.188.362.7.7,0,0,1,.2.194h0a.015.015,0,0,0,0-.012h0a.05.05,0,0,1,0-.017.049.049,0,0,1,0-.017,1.125,1.125,0,0,1,.089-.246l.043-.085.019-.027a.356.356,0,0,1,.027-.048l.019-.029.031-.05a.368.368,0,0,1-.105.06Zm-2.255-7.159-.269-.592-.108.029.281.59,2.028,4.273a2.609,2.609,0,0,0-.621,1.448.974.974,0,0,0,.052.308c.1.3.232.424.348.457v-.052a1.273,1.273,0,0,1,0-.207.107.107,0,0,1,0-.027v-.029h0a.046.046,0,0,0,0-.017h0a.05.05,0,0,1,0-.017h0a.117.117,0,0,1,0-.025h0a.321.321,0,0,1,.01-.048.047.047,0,0,1,0-.017v-.021L426,271.1l.01-.025.012-.046c.01-.029.021-.06.033-.089a.249.249,0,0,1,.017-.041l.025-.058c.025-.058.054-.114.081-.17a1.715,1.715,0,0,1,.085-.151,3.615,3.615,0,0,1,.273-.393Zm2.255,7.159h-.012a.256.256,0,0,1-.126,0h-.021a.262.262,0,0,1-.037-.012.292.292,0,0,1-.085-.052l-.031-.029a.773.773,0,0,1-.149-.236.759.759,0,0,0-.046.242.387.387,0,0,0,.188.362.7.7,0,0,1,.2.194h0a.015.015,0,0,0,0-.012h0a.05.05,0,0,1,0-.017.049.049,0,0,1,0-.017,1.125,1.125,0,0,1,.089-.246l.043-.085.019-.027a.356.356,0,0,1,.027-.048l.019-.029.031-.05a.368.368,0,0,1-.105.06Zm-2.255-7.159-.269-.592-.108.029.281.59,2.028,4.273a2.609,2.609,0,0,0-.621,1.448.974.974,0,0,0,.052.308c.1.3.232.424.348.457v-.052a1.273,1.273,0,0,1,0-.207.107.107,0,0,1,0-.027v-.029h0a.046.046,0,0,0,0-.017h0v-.01a.05.05,0,0,1,0-.017h0a.117.117,0,0,1,0-.025h0a.32.32,0,0,1,.01-.048.047.047,0,0,1,0-.017v-.021l.025-.089.01-.025.012-.046c.01-.029.021-.06.033-.089a.246.246,0,0,1,.017-.041l.025-.058c.025-.058.054-.114.081-.17a1.715,1.715,0,0,1,.085-.151,3.615,3.615,0,0,1,.273-.393Zm2.255,7.159h-.012a.256.256,0,0,1-.126,0h-.021a.132.132,0,0,1-.037-.012.292.292,0,0,1-.085-.052l-.031-.029a.773.773,0,0,1-.149-.236.759.759,0,0,0-.046.242.387.387,0,0,0,.188.362.7.7,0,0,1,.2.194h0a.084.084,0,0,1,0-.033.049.049,0,0,1,0-.017,1.126,1.126,0,0,1,.089-.246l.043-.085.046-.074.019-.029.031-.05a.37.37,0,0,1-.105.064ZM426.052,271c.01-.029.021-.06.033-.089s.01-.029.017-.041a.288.288,0,0,1,.025-.058c.025-.058.054-.114.081-.17a1.715,1.715,0,0,1,.085-.151,3.606,3.606,0,0,1,.273-.393l-2.3-4.966-.279-.6-.108.029.281.59,2.028,4.273a2.609,2.609,0,0,0-.621,1.448.974.974,0,0,0,.052.308c.1.3.232.424.348.457v-.052a1.273,1.273,0,0,1,0-.207.128.128,0,0,1,0-.027v-.029a.444.444,0,0,1,0-.052h0l.012-.062v-.052l.025-.089A.409.409,0,0,0,426.052,271Zm31.142-29a1.751,1.751,0,0,0-.985-.631,1.477,1.477,0,0,0-1.132.261c.093-.1.606-.66,1.035-1.212.509-.648.912-1.289.414-1.184-.962.207-2.739,2.357-2.739,2.357l-.364.65h0l-1.055,1.885-.112.207a5.674,5.674,0,0,0-1.057.13l-.12.159a2.959,2.959,0,0,0-.538,1.02c-.05.414-1.777,1.177-2.483,1.587a5.138,5.138,0,0,0-1.37,1.742s-2.336.207-3,.828a3.563,3.563,0,0,1-2.228.4h0l-.163-.01c-.182-.012-.3-.027-.3-.027s-.66-.718-1.167-.77a5.074,5.074,0,0,0-.964,0s-.267-.089-.654-.207l-.108-.031c-.091-.025-.188-.052-.292-.077l-.079-.021a1.246,1.246,0,0,0,.105-.13,1.223,1.223,0,0,0,.139-.255h0a1.035,1.035,0,0,0,.064-.542,1.56,1.56,0,0,0-.217-.546l-.192-.3a4.774,4.774,0,0,1-.637-1.8h0a4.9,4.9,0,0,1,.468-2.967,7.1,7.1,0,0,1,.414-.689l.234-.329.147-.207.163-.23h0l.157-.221a5.808,5.808,0,0,0,.6-1.045c.033-.072.058-.147.087-.221a.271.271,0,0,1,.023-.077c.008-.025.033-.1.046-.151s.017-.06.023-.091a1.157,1.157,0,0,0,.033-.141.509.509,0,0,1,.021-.1c.006-.031.017-.093.023-.139a.363.363,0,0,1,.014-.1l.012-.139a.772.772,0,0,0,0-.1h0v-.563a.5.5,0,0,0-.014-.139c-.014-.048,0-.077-.014-.116a.463.463,0,0,1-.017-.118l-.025-.12a.491.491,0,0,0-.023-.11l-.031-.124a.448.448,0,0,0-.027-.1c-.008-.033-.027-.085-.039-.124a.953.953,0,0,0-.035-.1c-.014-.041-.027-.083-.046-.124a.953.953,0,0,1-.035-.089,3.8,3.8,0,0,0-.435-.768l-.3-.377h0l-.081-.1a.443.443,0,0,0-.029-.054c-.019-.035-.037-.07-.054-.108-.153-.3-.277-.621-.4-.937-.035-.1-.077-.192-.116-.29,0-.021-.017-.041-.023-.062-.062-.149-.126-.294-.195-.439-.052-.108-.108-.207-.163-.319-.019-.033-.037-.064-.054-.1l-.13-.207-.064-.1-.139-.207-.062-.089c-.066-.093-.132-.184-.207-.275h0c-.072-.1-.151-.188-.226-.281l-.062-.07-.18-.207-.07-.079-.188-.207-.064-.066c-.294-.3-.6-.6-.921-.886l-.163-.147h0l-.575-.511-.207-.172c-.06-.054-.126-.108-.188-.159a5.171,5.171,0,0,0-1.448-.935,4.62,4.62,0,0,0-2.139-.219,7.281,7.281,0,0,0-3.261,1.14c-.079.05-.153.1-.23.159a6.052,6.052,0,0,0-1.161,1.082c-.058.068-.112.139-.166.207s-.091.126-.137.192a12.063,12.063,0,0,0-1.157,2.462,31.094,31.094,0,0,0-2.423,9.2.825.825,0,0,1-.01.159q-.025.6,0,1.2h0a.16.16,0,0,0,0,.031,1.476,1.476,0,0,0,.012.234c.074,1.188.31,2.375.488,3.559l-.122.043a2.658,2.658,0,0,0-1.717,1.655.026.026,0,0,1,0,.01h0a1.767,1.767,0,0,1,.021.275,3.854,3.854,0,0,1-.54,1.912l-.091.153h0a2.87,2.87,0,0,0-.53,1.55.867.867,0,0,0,.07.343h0v.019a.253.253,0,0,0,0,.037v.019h0a4.139,4.139,0,0,1-.734,1.3c-.507.565-1.879,6.149-1.879,6.149a1.078,1.078,0,0,1,.091.447h0a.875.875,0,0,1-.085.356h0a.639.639,0,0,0,.074.573h0a2.151,2.151,0,0,0,.331.447s.306-.1-.207.461l-.031.037h0a.594.594,0,0,0,.039.743,2.011,2.011,0,0,0,.453.451s4.161,7.169,5.024,7.939a10.271,10.271,0,0,1,1.726,2.766s.087-.139.23-.354c.066-.108.153-.234.242-.37l.265.346h0l.536.7-.207.4h0a9.429,9.429,0,0,0-.552,1.241.308.308,0,0,0-.014.114.451.451,0,0,0,.137.294,15.884,15.884,0,0,0-3.311,9.779h0v.157a12.465,12.465,0,0,0,1.2,4.68,10.006,10.006,0,0,1,.1,1.4h0a.635.635,0,0,1-.054.277,1.483,1.483,0,0,0,.019.571h0c.137,1.02.594,3.011.594,3.011v1.049c.023,1.777.06,5.266-.014,6.021-.043.435-.087.784-.122,1.035-.05.356-.081.544-.081.544s-.019.13-.048.366c0,.085-.023.182-.035.294-.17,1.4-.561,4.794-.792,7.976,0,.139-.021.277-.029.414-.118,1.7-.182,3.311-.137,4.478v.176c.012.3.035.565.066.795.1.745.194,1.62.269,2.528a2.826,2.826,0,0,0,.027.294c.132,1.655.23,3.393.288,4.647v.244a.227.227,0,0,0,0,.054.076.076,0,0,0,0,.023c0,.072,0,.143,0,.207v.635a3.235,3.235,0,0,0,.012.358,2.215,2.215,0,0,0,.012.263v.029h0a.034.034,0,0,1,0,.014v.025l.174,1.448.9,7.312.273,2.3.583,4.98,2.09-.4.021.228.07.772h0l.583-.056c0,.074-.01.149-.015.223-.1,1.73-.066,3.48-.066,3.48h.023c.639.118,1.256.207,1.862.261v1.8h.966l-.126-1.55-.017-.188h.019a20.415,20.415,0,0,0,3.859-.137l.116-.014.155.178,1.477,1.693a23.3,23.3,0,0,0,5.431-.414c1.91-.414,3.9-2.295,3.975-3h0c.025-.232-.161-.337-.621-.223a14.461,14.461,0,0,1-4.864-.207c-.259-.6-1-2.307-1.583-3.671l-.089-.207a4.482,4.482,0,0,0,1.6-1.9c.056-.257-.091-.372-.517-.226a5.968,5.968,0,0,1-1.566.257h-.207a.265.265,0,0,0,.027-.039,3.225,3.225,0,0,0,.439-2.092,7.133,7.133,0,0,0-.1-.795h0v-.043a9.434,9.434,0,0,0-.248-1.018.21.21,0,0,0-.019-.064c-.039-.118-.064-.184-.064-.184s.577-4.039.766-6.929a15.986,15.986,0,0,0,.033-2.249h0a.027.027,0,0,0,0-.012,1.241,1.241,0,0,0-.137-.542,1.122,1.122,0,0,1-.172-.414.035.035,0,0,0,0-.014,9.351,9.351,0,0,1,.621-4.138,5.313,5.313,0,0,0,.25-.621,9.957,9.957,0,0,0,.565-2.514,6.385,6.385,0,0,1,.3-1.639,9.054,9.054,0,0,0,1.275-4.531,12.452,12.452,0,0,0,0-1.465,56.663,56.663,0,0,1,.314-6.462c.046-.414.1-.828.159-1.254.093-.65.207-1.3.339-1.916a32.939,32.939,0,0,0-.083-8.376c0-.093-.019-.184-.027-.275a.078.078,0,0,1,0-.021c-.315-3.083-.759-5.959-.941-7.1h0c-.056-.329-.087-.515-.087-.515a9.755,9.755,0,0,0,.364-2.222h0a2.024,2.024,0,0,0-.188-1,.912.912,0,0,1-.114-.3h0a.235.235,0,0,1,0-.039,4.965,4.965,0,0,1-.041-1.157h0a4.079,4.079,0,0,1,.033-.414v-.041l.025-.248c.019-.145.033-.288.054-.43a1.726,1.726,0,0,0,.176-.087,1.363,1.363,0,0,0,.275-.192c.921-.828,1.035-2.948.892-5.1a.079.079,0,0,1,0-.021v-.06a40.923,40.923,0,0,0-.828-5.38h0a.354.354,0,0,0,0-.046c-.033-.112-.052-.184-.052-.184s0-1.515-.089-2.971a.1.1,0,0,1,0-.025v-.037a5.89,5.89,0,0,0-.466-2.551,1.591,1.591,0,0,1-.294-.912v-.014a.205.205,0,0,1,0-.035,20.6,20.6,0,0,1,0-3.035,6,6,0,0,0,.8-2.613h0a4.249,4.249,0,0,0-.014-.5.256.256,0,0,0-.012-.1,1.281,1.281,0,0,0-.023-.159,2.877,2.877,0,0,0-.141-.557q.261-.046.552-.118l.163-.041h0a79.381,79.381,0,0,0,7.813-2.982c1.169-.414,1.523-2.1,1.523-2.1s.108-.091.286-.257a14.069,14.069,0,0,0,2.344-2.849h0a8.428,8.428,0,0,0,.784-1.635h0a6.067,6.067,0,0,0,.238-.89,2.808,2.808,0,0,0,.041-.3h0v-.037l.2-.176h0a10.306,10.306,0,0,0,2.572-3.126A1.065,1.065,0,0,0,457.194,242Zm-26.95,75.021c-.017.474-.05.912-.079,1.287h0c-.064.739-.132,1.225-.132,1.225a.848.848,0,0,0-.147.159,2.033,2.033,0,0,0-.226.451l-.05-1.227S429.927,318.129,430.244,317.022Zm-7.2-52.284c-.014-.048-.031-.093-.046-.141h0l.228-.046h0c.192-.037.379-.085.569-.139l.072.153.281.59,2.028,4.273a2.608,2.608,0,0,0-.621,1.448.974.974,0,0,0,.052.308c.1.3.232.424.348.457h0a.344.344,0,0,0,.3-.07,1.736,1.736,0,0,0-.207.385h0a.759.759,0,0,0-.046.242.387.387,0,0,0,.188.362.7.7,0,0,1,.2.195h0a.894.894,0,0,1,.137.4h0v.014h0a1.072,1.072,0,0,1,0,.114v.066l-.271-.081-.6-.178a.733.733,0,0,1,.323-.232l-1.846-4.055s-.391-1.746-.9-3.472Zm4.138,81.655-.039-.207-.01-.062.081-.014a.625.625,0,0,0,0,.064.934.934,0,0,0-.037.219Zm-2.93-81.264-.269-.592-.108.029.281.59,2.028,4.273a2.609,2.609,0,0,0-.621,1.448.974.974,0,0,0,.052.308c.1.3.232.424.348.457v-.052a1.273,1.273,0,0,1,0-.207.107.107,0,0,1,0-.027v-.029h0a.046.046,0,0,0,0-.017h0a.019.019,0,0,1,0-.01.052.052,0,0,1,0-.017h0a.117.117,0,0,1,0-.025h0a.181.181,0,0,0,0-.033V271.2h0v-.021l.025-.089.01-.025.012-.046c.01-.029.021-.06.033-.089s.01-.029.017-.041a.288.288,0,0,1,.025-.058c.025-.058.054-.114.081-.17a1.707,1.707,0,0,1,.085-.151,3.609,3.609,0,0,1,.273-.393Zm2.255,7.159h-.012a.256.256,0,0,1-.126,0h-.021a.262.262,0,0,1-.037-.012.292.292,0,0,1-.085-.052l-.031-.029a.773.773,0,0,1-.149-.236.759.759,0,0,0-.046.242.387.387,0,0,0,.188.362.7.7,0,0,1,.2.194h0a.084.084,0,0,1,0-.033.049.049,0,0,1,0-.017,1.126,1.126,0,0,1,.089-.246l.043-.085.019-.027a.351.351,0,0,1,.027-.048l.019-.029.031-.05a.369.369,0,0,1-.105.064Zm-2.255-7.159-.269-.592-.108.029.281.59,2.028,4.273a2.609,2.609,0,0,0-.621,1.448.974.974,0,0,0,.052.308c.1.3.232.424.348.457v-.052a1.273,1.273,0,0,1,0-.207.107.107,0,0,1,0-.027v-.029h0a.046.046,0,0,0,0-.017h0a.05.05,0,0,1,0-.017h0a.117.117,0,0,1,0-.025h0a.321.321,0,0,1,.01-.048.047.047,0,0,1,0-.017v-.021L426,271.1l.01-.025.012-.046c.01-.029.021-.06.033-.089a.249.249,0,0,1,.017-.041l.025-.058c.025-.058.054-.114.081-.17a1.715,1.715,0,0,1,.085-.151,3.615,3.615,0,0,1,.273-.393Zm2.255,7.159h-.012a.256.256,0,0,1-.126,0h-.021a.262.262,0,0,1-.037-.012.292.292,0,0,1-.085-.052l-.031-.029a.773.773,0,0,1-.149-.236.759.759,0,0,0-.046.242.387.387,0,0,0,.188.362.7.7,0,0,1,.2.194h0a.015.015,0,0,0,0-.012h0a.05.05,0,0,1,0-.017.049.049,0,0,1,0-.017,1.125,1.125,0,0,1,.089-.246l.043-.085.019-.027a.356.356,0,0,1,.027-.048l.019-.029.031-.05a.368.368,0,0,1-.105.06Zm-2.255-7.159-.269-.592-.108.029.281.59,2.028,4.273a2.609,2.609,0,0,0-.621,1.448.974.974,0,0,0,.052.308c.1.3.232.424.348.457v-.052a1.273,1.273,0,0,1,0-.207.107.107,0,0,1,0-.027v-.029h0a.046.046,0,0,0,0-.017h0a.05.05,0,0,1,0-.017h0a.117.117,0,0,1,0-.025h0a.321.321,0,0,1,.01-.048.047.047,0,0,1,0-.017v-.021L426,271.1l.01-.025.012-.046c.01-.029.021-.06.033-.089a.249.249,0,0,1,.017-.041l.025-.058c.025-.058.054-.114.081-.17a1.715,1.715,0,0,1,.085-.151,3.615,3.615,0,0,1,.273-.393Zm2.255,7.159h-.012a.256.256,0,0,1-.126,0h-.021a.262.262,0,0,1-.037-.012.292.292,0,0,1-.085-.052l-.031-.029a.773.773,0,0,1-.149-.236.759.759,0,0,0-.046.242.387.387,0,0,0,.188.362.7.7,0,0,1,.2.194h0a.015.015,0,0,0,0-.012h0a.05.05,0,0,1,0-.017.049.049,0,0,1,0-.017,1.125,1.125,0,0,1,.089-.246l.043-.085.019-.027a.356.356,0,0,1,.027-.048l.019-.029.031-.05a.368.368,0,0,1-.105.06Zm-2.255-7.159-.269-.592-.108.029.281.59,2.028,4.273a2.609,2.609,0,0,0-.621,1.448.974.974,0,0,0,.052.308c.1.3.232.424.348.457v-.052a1.273,1.273,0,0,1,0-.207.107.107,0,0,1,0-.027v-.029h0a.046.046,0,0,0,0-.017h0a.05.05,0,0,1,0-.017h0a.117.117,0,0,1,0-.025h0a.321.321,0,0,1,.01-.048.047.047,0,0,1,0-.017v-.021L426,271.1l.01-.025.012-.046c.01-.029.021-.06.033-.089a.249.249,0,0,1,.017-.041l.025-.058c.025-.058.054-.114.081-.17a1.715,1.715,0,0,1,.085-.151,3.615,3.615,0,0,1,.273-.393Zm2.255,7.159h-.012a.256.256,0,0,1-.126,0h-.021a.262.262,0,0,1-.037-.012.292.292,0,0,1-.085-.052l-.031-.029a.773.773,0,0,1-.149-.236.759.759,0,0,0-.046.242.387.387,0,0,0,.188.362.7.7,0,0,1,.2.194h0a.015.015,0,0,0,0-.012h0a.05.05,0,0,1,0-.017.049.049,0,0,1,0-.017,1.125,1.125,0,0,1,.089-.246l.043-.085.019-.027a.356.356,0,0,1,.027-.048l.019-.029.031-.05a.368.368,0,0,1-.105.06Zm-2.255-7.159-.269-.592-.108.029.281.59,2.028,4.273a2.609,2.609,0,0,0-.621,1.448.974.974,0,0,0,.052.308c.1.3.232.424.348.457v-.052a1.273,1.273,0,0,1,0-.207.107.107,0,0,1,0-.027v-.029h0a.046.046,0,0,0,0-.017h0a.05.05,0,0,1,0-.017h0a.117.117,0,0,1,0-.025h0a.321.321,0,0,1,.01-.048.047.047,0,0,1,0-.017v-.021L426,271.1l.01-.025.012-.046c.01-.029.021-.06.033-.089a.249.249,0,0,1,.017-.041l.025-.058c.025-.058.054-.114.081-.17a1.715,1.715,0,0,1,.085-.151,3.615,3.615,0,0,1,.273-.393Zm2.255,7.159h-.012a.256.256,0,0,1-.126,0h-.021a.262.262,0,0,1-.037-.012.292.292,0,0,1-.085-.052l-.031-.029a.773.773,0,0,1-.149-.236.759.759,0,0,0-.046.242.387.387,0,0,0,.188.362.7.7,0,0,1,.2.194h0a.015.015,0,0,0,0-.012h0a.05.05,0,0,1,0-.017.049.049,0,0,1,0-.017,1.125,1.125,0,0,1,.089-.246l.043-.085.019-.027a.356.356,0,0,1,.027-.048l.019-.029.031-.05a.368.368,0,0,1-.105.06Zm-2.255-7.159-.269-.592-.108.029.281.59,2.028,4.273a2.609,2.609,0,0,0-.621,1.448.974.974,0,0,0,.052.308c.1.3.232.424.348.457v-.052a1.273,1.273,0,0,1,0-.207.107.107,0,0,1,0-.027v-.029h0a.046.046,0,0,0,0-.017h0a.05.05,0,0,1,0-.017h0a.117.117,0,0,1,0-.025h0a.321.321,0,0,1,.01-.048.047.047,0,0,1,0-.017v-.021L426,271.1l.01-.025.012-.046c.01-.029.021-.06.033-.089a.249.249,0,0,1,.017-.041l.025-.058c.025-.058.054-.114.081-.17a1.715,1.715,0,0,1,.085-.151,3.615,3.615,0,0,1,.273-.393Zm2.255,7.159h-.012a.256.256,0,0,1-.126,0h-.021a.262.262,0,0,1-.037-.012.292.292,0,0,1-.085-.052l-.031-.029a.773.773,0,0,1-.149-.236.759.759,0,0,0-.046.242.387.387,0,0,0,.188.362.7.7,0,0,1,.2.194h0a.015.015,0,0,0,0-.012h0a.05.05,0,0,1,0-.017.049.049,0,0,1,0-.017,1.125,1.125,0,0,1,.089-.246l.043-.085.019-.027a.356.356,0,0,1,.027-.048l.019-.029.031-.05a.368.368,0,0,1-.105.06Zm-2.255-7.159-.269-.592-.108.029.281.59,2.028,4.273a2.609,2.609,0,0,0-.621,1.448.974.974,0,0,0,.052.308c.1.3.232.424.348.457v-.052a1.273,1.273,0,0,1,0-.207.107.107,0,0,1,0-.027v-.029h0a.046.046,0,0,0,0-.017h0a.05.05,0,0,1,0-.017h0a.117.117,0,0,1,0-.025h0a.321.321,0,0,1,.01-.048.047.047,0,0,1,0-.017v-.021L426,271.1l.01-.025.012-.046c.01-.029.021-.06.033-.089a.249.249,0,0,1,.017-.041l.025-.058c.025-.058.054-.114.081-.17a1.715,1.715,0,0,1,.085-.151,3.615,3.615,0,0,1,.273-.393Zm2.255,7.159h-.012a.256.256,0,0,1-.126,0h-.021a.262.262,0,0,1-.037-.012.292.292,0,0,1-.085-.052l-.031-.029a.773.773,0,0,1-.149-.236.759.759,0,0,0-.046.242.387.387,0,0,0,.188.362.7.7,0,0,1,.2.194h0a.015.015,0,0,0,0-.012h0a.05.05,0,0,1,0-.017.049.049,0,0,1,0-.017,1.125,1.125,0,0,1,.089-.246l.043-.085.019-.027a.356.356,0,0,1,.027-.048l.019-.029.031-.05a.368.368,0,0,1-.105.06Zm-2.255-7.159-.269-.592-.108.029.281.59,2.028,4.273a2.609,2.609,0,0,0-.621,1.448.974.974,0,0,0,.052.308c.1.3.232.424.348.457v-.052a1.273,1.273,0,0,1,0-.207.107.107,0,0,1,0-.027v-.029h0a.046.046,0,0,0,0-.017h0a.05.05,0,0,1,0-.017h0a.117.117,0,0,1,0-.025h0a.321.321,0,0,1,.01-.048.047.047,0,0,1,0-.017v-.021L426,271.1l.01-.025.012-.046c.01-.029.021-.06.033-.089a.249.249,0,0,1,.017-.041l.025-.058c.025-.058.054-.114.081-.17a1.715,1.715,0,0,1,.085-.151,3.615,3.615,0,0,1,.273-.393Zm2.255,7.159h-.012a.256.256,0,0,1-.126,0h-.021a.262.262,0,0,1-.037-.012.292.292,0,0,1-.085-.052l-.031-.029a.773.773,0,0,1-.149-.236.759.759,0,0,0-.046.242.387.387,0,0,0,.188.362.7.7,0,0,1,.2.194h0a.015.015,0,0,0,0-.012h0a.05.05,0,0,1,0-.017.049.049,0,0,1,0-.017,1.125,1.125,0,0,1,.089-.246l.043-.085.019-.027a.356.356,0,0,1,.027-.048l.019-.029.031-.05a.368.368,0,0,1-.105.06Zm-2.255-7.159-.269-.592-.108.029.281.59,2.028,4.273a2.609,2.609,0,0,0-.621,1.448.974.974,0,0,0,.052.308c.1.3.232.424.348.457v-.052a1.273,1.273,0,0,1,0-.207.107.107,0,0,1,0-.027v-.029h0a.046.046,0,0,0,0-.017h0a.05.05,0,0,1,0-.017h0a.117.117,0,0,1,0-.025h0a.321.321,0,0,1,.01-.048.047.047,0,0,1,0-.017v-.021L426,271.1l.01-.025.012-.046c.01-.029.021-.06.033-.089a.249.249,0,0,1,.017-.041l.025-.058c.025-.058.054-.114.081-.17a1.715,1.715,0,0,1,.085-.151,3.615,3.615,0,0,1,.273-.393Zm2.255,7.159h-.012a.256.256,0,0,1-.126,0h-.021a.262.262,0,0,1-.037-.012.292.292,0,0,1-.085-.052l-.031-.029a.773.773,0,0,1-.149-.236.759.759,0,0,0-.046.242.387.387,0,0,0,.188.362.7.7,0,0,1,.2.194h0a.015.015,0,0,0,0-.012h0a.06.06,0,0,1,0-.019.034.034,0,0,1,0-.014,1.126,1.126,0,0,1,.089-.246c.021-.039.039-.077.062-.112a.355.355,0,0,1,.027-.048l.019-.029.031-.05a.368.368,0,0,1-.105.06Zm-2.255-7.159-.269-.592-.108.029.281.59,2.028,4.273a2.609,2.609,0,0,0-.621,1.448.974.974,0,0,0,.052.308c.1.3.232.424.348.457v-.052a1.273,1.273,0,0,1,0-.207.107.107,0,0,1,0-.027v-.029h0a.046.046,0,0,0,0-.017h0v-.01a.05.05,0,0,1,0-.017h0a.117.117,0,0,1,0-.025h0a.32.32,0,0,1,.01-.048.047.047,0,0,1,0-.017v-.021l.025-.089.01-.025.012-.046c.01-.029.021-.06.033-.089a.246.246,0,0,1,.017-.041l.025-.058c.025-.058.054-.114.081-.17a1.715,1.715,0,0,1,.085-.151,3.615,3.615,0,0,1,.273-.393Zm2.255,7.159h-.012a.256.256,0,0,1-.126,0h-.021a.262.262,0,0,1-.037-.012.292.292,0,0,1-.085-.052l-.031-.029a.773.773,0,0,1-.149-.236.759.759,0,0,0-.046.242.387.387,0,0,0,.188.362.7.7,0,0,1,.2.194h0a.015.015,0,0,0,0-.012h0a.06.06,0,0,1,0-.019.034.034,0,0,1,0-.014,1.126,1.126,0,0,1,.089-.246c.021-.039.039-.077.062-.112a.355.355,0,0,1,.027-.048l.019-.029.031-.05a.368.368,0,0,1-.105.06Z" transform="translate(-332.754 -187.581)" fill="url(#linear-gradient-24)"/>
    <path id="Path_2657" data-name="Path 2657" d="M472.336,783.089a14.127,14.127,0,0,0,4.6-.136c1.5-.517-.463,2.224-2.5,2.874a19.423,19.423,0,0,1-4.415.749l-2.392-2.249-2.539.195.443,2.483-.788.074-.306-3.257Z" transform="translate(-370.638 -627.425)" fill="#444053"/>
    <path id="Path_2658" data-name="Path 2658" d="M472.336,783.089a14.127,14.127,0,0,0,4.6-.136c1.5-.517-.463,2.224-2.5,2.874a19.423,19.423,0,0,1-4.415.749l-2.392-2.249-2.539.195.443,2.483-.788.074-.306-3.257Z" transform="translate(-370.638 -627.425)" opacity="0.1"/>
    <path id="Path_2659" data-name="Path 2659" d="M487.157,811.34s3.714.813,5.587.356-.813,2.646-3.358,3.205a23.964,23.964,0,0,1-5.446.414l-2.634-3.011-3.1-.052.254,3.073h-.966V811.34Z" transform="translate(-380.987 -649.99)" fill="#444053"/>
    <path id="Path_2660" data-name="Path 2660" d="M487.157,811.34s3.714.813,5.587.356-.813,2.646-3.358,3.205a23.964,23.964,0,0,1-5.446.414l-2.634-3.011-3.1-.052.254,3.073h-.966V811.34Z" transform="translate(-380.987 -649.99)" opacity="0.1"/>
    <path id="Path_2661" data-name="Path 2661" d="M443.383,469.75s-6.36,7.072-2.545,15.061a5.739,5.739,0,0,1,.052,1.68,22.2,22.2,0,0,0,.61,3.561s.1,6,0,7.023-.207,1.577-.207,1.577-1.421,11.084-.964,14.395.662,9.21.662,9.21l1.883,15.876,9.77-1.831-4.428-21.779-.153-3.867s1.833-4.732,1.018-7.124.207-32.872.207-32.872Z" transform="translate(-350.952 -379.078)" fill="#303d5c"/>
    <path id="Path_2662" data-name="Path 2662" d="M443.383,469.75s-6.36,7.072-2.545,15.061a5.739,5.739,0,0,1,.052,1.68,22.2,22.2,0,0,0,.61,3.561s.1,6,0,7.023-.207,1.577-.207,1.577-1.421,11.084-.964,14.395.662,9.21.662,9.21l1.883,15.876,9.77-1.831-4.428-21.779-.153-3.867s1.833-4.732,1.018-7.124.207-32.872.207-32.872Z" transform="translate(-350.952 -379.078)" opacity="0.05"/>
    <path id="Path_2663" data-name="Path 2663" d="M456.842,504.973c1.119,2.137.414,7.327.414,7.327-1.475,1.273-.662,12.365-.662,12.365s-1.018,10.941-1.678,12.208-.561,6.513-.561,6.513c7.48,1.374,12.365-1.577,12.365-1.577s-2.392-5.446-2.442-5.7c-.029-.143-.346.244-.441.356.05-.068.18-.246.441-.621,1.018-1.426,0-4.173,0-4.173s1.272-8.854.662-9.669.1-3.815.457-4.527a10.028,10.028,0,0,0,.813-3.1,6.265,6.265,0,0,1,.306-1.626c1.577-2.241,1.273-5.955,1.273-5.955a49.407,49.407,0,0,1,.813-9.565c.915-4.223-1.142-16.182-1.142-16.182s.685-2.34.176-3.205a4.419,4.419,0,0,1-.1-2.193c.124-1.086.354-2.131.354-2.131l-13.882-2.464c-.292.486-.559.958-.8,1.411-4.591,8.483-1.5,11.637-1.5,11.637l2.946,9.081S455.719,502.838,456.842,504.973Z" transform="translate(-359.731 -380.109)" fill="#303d5c"/>
    <path id="Path_2664" data-name="Path 2664" d="M586.92,291.6l1.984,1.684s.389-.31.91-.776c1.241-1.121,3.253-3.151,2.5-4.012a1.506,1.506,0,0,0-2.133-.36c.112-.118,2.415-2.586,1.471-2.388s-2.748,2.342-2.748,2.342l-1.426,2.518Z" transform="translate(-467.775 -233.138)" fill="#efb7b9"/>
    <path id="Path_2665" data-name="Path 2665" d="M441.555,415.35l2.34.712-1.779,3.1-2.036-2.646Z" transform="translate(-349.023 -329.41)" fill="#efb7b9"/>
    <circle id="Ellipse_128" data-name="Ellipse 128" cx="6.667" cy="6.667" r="6.667" transform="translate(91.361 43.449)" fill="#efb7b9"/>
    <path id="Path_2666" data-name="Path 2666" d="M453.669,278.2s-6.056,9.611-.306,10.439-7.734,6.667-7.734,6.667l-5.038-5.088s5.241-9.059,4.428-12.518S453.669,278.2,453.669,278.2Z" transform="translate(-351.722 -225.638)" fill="#efb7b9"/>
    <path id="Path_2667" data-name="Path 2667" d="M462.82,472.531a31.513,31.513,0,0,0,4.1.95s7.5,3.329,10.23,2.235c.124-1.086.354-2.131.354-2.131l-13.882-2.464C463.333,471.606,463.064,472.078,462.82,472.531Z" transform="translate(-369.353 -380.165)" opacity="0.1"/>
    <path id="Path_2668" data-name="Path 2668" d="M429.238,332.672l1.355,2.8,1.531,3.157.207.451,1.815,3.931L436.453,348s-.815.966-.561,1.73c.238.714.61.4.658.36-.043.06-.536.722-.1,1.014s.3.966.3.966a35.138,35.138,0,0,0-2.239,4.223c-.356,1.119,5.7,2.088,5.7,2.088s8.6,3.815,10.737,1.933,0-10.737,0-10.737,0-5.088-.561-5.545-.294-3.985-.294-3.985c1.475-2.69.457-4.223.457-4.223l.414-6.919s-.662-.714-1.171-.763a5.09,5.09,0,0,0-.966,0s-.269-.091-.656-.207a5.52,5.52,0,0,0-2.653-.31c-.712.356-5.291-.561-5.291-.561a56.022,56.022,0,0,0-5.955-.559,5.892,5.892,0,0,0-2.019.219,2.7,2.7,0,0,0-1.949,1.713,3.49,3.49,0,0,1-.61,2.34C428.884,332.1,429.238,332.672,429.238,332.672Z" transform="translate(-342.659 -265.46)" fill="#019da9"/>
    <path id="Path_2669" data-name="Path 2669" d="M586.92,310.251l1.984,1.684s.389-.31.91-.776c.157-1.717-1.306-1.945-2.336-1.9Z" transform="translate(-467.775 -251.791)" opacity="0.1"/>
    <path id="Path_2670" data-name="Path 2670" d="M525.741,315.972l.865.052s2.034.252,2.69-.358,3-.813,3-.813a5.04,5.04,0,0,1,1.374-1.73c.712-.406,2.444-1.171,2.483-1.579a3.487,3.487,0,0,1,.662-1.169s3.815-.917,3.257,2.086-3.648,5.595-3.648,5.595-.356,1.68-1.527,2.088-8.752,3.969-9.973,3.052S525.741,315.972,525.741,315.972Z" transform="translate(-418.299 -252.575)" fill="#019da9"/>
    <path id="Path_2671" data-name="Path 2671" d="M429.709,330.908a3.52,3.52,0,0,0,.61-2.34,2.7,2.7,0,0,1,1.949-1.713,5.038,5.038,0,0,1,.991-.194,2.7,2.7,0,0,0-1.922,1.7,3.49,3.49,0,0,1-.61,2.34c-.817,1.322-.459,1.883-.459,1.883l1.357,2.8,1.529,3.155.219.453,1.815,3.921,2.307,4.982s-.815.968-.561,1.732c.238.714.61.4.658.36-.043.058-.536.722-.1,1.014s.3.966.3.966a35.134,35.134,0,0,0-2.239,4.223c-.356,1.119,5.7,2.086,5.7,2.086s5.971,2.651,9.2,2.444c-2.744,1.076-10.217-2.239-10.217-2.239s-6.056-.968-5.7-2.088a35.064,35.064,0,0,1,2.239-4.221.971.971,0,0,0-.3-.966c-.457-.3.054-.954.1-1.014-.048.043-.414.354-.658-.36-.254-.763.561-1.73.561-1.73l-2.307-4.984-1.815-3.931-.207-.451-1.531-3.157-1.355-2.8S428.894,332.232,429.709,330.908Z" transform="translate(-342.672 -265.595)" opacity="0.1"/>
    <path id="Path_2672" data-name="Path 2672" d="M420.189,352.68l-.914.763a4.2,4.2,0,0,1-.764,1.374c-.509.561-1.883,6.106-1.883,6.106a.989.989,0,0,1,0,.815c-.207.414.414,1.018.414,1.018s.3-.1-.207.457.459,1.225.459,1.225,4.171,7.12,5.036,7.883a10.17,10.17,0,0,1,1.73,2.748s1.813-2.843,2.239-2.9l-1.779-4.018s-1.223-5.6-2.137-6.621.457-4.531.457-4.531Z" transform="translate(-332.685 -286.231)" fill="#019da9"/>
    <path id="Path_2673" data-name="Path 2673" d="M428.636,342.329a3.7,3.7,0,0,0,3.3.979c.174-.021.35-.048.521-.081a7.588,7.588,0,0,0,.772-.18,8.044,8.044,0,0,0,2.528-1.241,1.738,1.738,0,0,1,.567-.327,1.2,1.2,0,0,1,1.206.648c.259.414.381.9.646,1.312a3.02,3.02,0,0,0,2.5,1.227,8.909,8.909,0,0,0,2.831-.555,8.44,8.44,0,0,1-1.817-3.019,7.149,7.149,0,0,1-.143-2.276c.219-3.6,1.469-7.395,4.405-9.493.509-.362,1.124-.79,1.293-1.341a5.52,5.52,0,0,0-2.653-.31c-.712.356-5.291-.561-5.291-.561a56.006,56.006,0,0,0-5.955-.559,5.892,5.892,0,0,0-2.019.219,12.7,12.7,0,0,1,.168,4.552A10.194,10.194,0,0,1,430.484,334c-.261.507-.542,1.006-.828,1.506A11.243,11.243,0,0,0,428,339.854,3.477,3.477,0,0,0,428.636,342.329Z" transform="translate(-341.728 -265.5)" opacity="0.1"/>
    <path id="Path_2674" data-name="Path 2674" d="M471.764,436.71a3.6,3.6,0,0,0-1.192-.1,2.193,2.193,0,0,0-.892.519l2.615.014a3.467,3.467,0,0,0,2.2-.435C474.025,436.238,472.436,436.8,471.764,436.71Z" transform="translate(-374.793 -352.721)" opacity="0.1"/>
    <path id="Path_2675" data-name="Path 2675" d="M447.033,240.836a3.95,3.95,0,0,1,.453,3.832c-.414.983-1.227,1.753-1.721,2.7a4.867,4.867,0,0,0,.166,4.713,2.38,2.38,0,0,1,.414.846c.118.776-.685,1.333-1.324,1.79-2.938,2.094-4.186,5.891-4.405,9.493a7.137,7.137,0,0,0,.141,2.276,8.445,8.445,0,0,0,1.819,3.019,8.911,8.911,0,0,1-2.833.555,3.02,3.02,0,0,1-2.5-1.227c-.265-.414-.389-.9-.646-1.312a1.2,1.2,0,0,0-1.2-.648,1.68,1.68,0,0,0-.569.325A8.051,8.051,0,0,1,431,268.7a3.687,3.687,0,0,1-3.294-.979,3.375,3.375,0,0,1-.621-2.46c.265-3.081,2.874-5.5,3.478-8.537.488-2.458-.4-4.966-.559-7.461-.242-3.7,1.1-7.3,2.423-10.759a11.418,11.418,0,0,1,1.159-2.446,6.843,6.843,0,0,1,4.966-2.789,4.649,4.649,0,0,1,2.146.207,6.513,6.513,0,0,1,1.839,1.26,12.38,12.38,0,0,1,3.286,3.741c.3.621.49,1.277.828,1.875Z" transform="translate(-340.998 -191.494)" fill="#3f3d56"/>
    <g id="Group_269" data-name="Group 269" transform="translate(86.453 44.525)" opacity="0.1">
      <path id="Path_2676" data-name="Path 2676" d="M510.543,250.186c-.331-.6-.523-1.26-.828-1.875a7.514,7.514,0,0,0-1.055-1.591,8.933,8.933,0,0,1,1.862,2.46c.288.6.48,1.241.792,1.823l-.4-.339a3.387,3.387,0,0,1,.281.441,4.553,4.553,0,0,1-.652-.919Z" transform="translate(-492.161 -246.72)"/>
      <path id="Path_2677" data-name="Path 2677" d="M431.651,393.326a8.018,8.018,0,0,0,3.824-1.5,1.721,1.721,0,0,1,.569-.325,1.2,1.2,0,0,1,1.2.648c.054.087.1.18.147.273a.828.828,0,0,0-.536-.052,1.68,1.68,0,0,0-.569.325,8.05,8.05,0,0,1-3.824,1.5,3.687,3.687,0,0,1-3.294-.979,2.565,2.565,0,0,1-.252-.379A4.244,4.244,0,0,0,431.651,393.326Z" transform="translate(-428.92 -361.524)"/>
      <path id="Path_2678" data-name="Path 2678" d="M477.534,296.673a8.92,8.92,0,0,0,2.831-.555,8.441,8.441,0,0,1-1.817-3.019,7.141,7.141,0,0,1-.143-2.276c.219-3.6,1.469-7.4,4.407-9.493.639-.457,1.448-1.014,1.324-1.792a2.423,2.423,0,0,0-.414-.844,4.867,4.867,0,0,1-.168-4.713c.5-.948,1.3-1.717,1.724-2.7a3.964,3.964,0,0,0-.174-3.389,4.745,4.745,0,0,0,.447.414,4.544,4.544,0,0,0,.368.451,3.962,3.962,0,0,1,.172,3.391c-.414.983-1.227,1.753-1.721,2.7a4.867,4.867,0,0,0,.166,4.713,2.379,2.379,0,0,1,.414.846c.118.776-.685,1.332-1.324,1.79-2.938,2.094-4.186,5.891-4.405,9.493a7.138,7.138,0,0,0,.141,2.276,8.445,8.445,0,0,0,1.819,3.019,8.911,8.911,0,0,1-2.833.555,3.021,3.021,0,0,1-2.5-1.227c-.035-.054-.066-.11-.1-.166A3.47,3.47,0,0,0,477.534,296.673Z" transform="translate(-466.06 -263.51)"/>
    </g>
    <path id="Path_2679" data-name="Path 2679" d="M264.056,179.57v4.345H245.19q.863-1.2,1.763-2.359c.083-.108.166-.207.252-.321l.884-1.111h0l.122-.151h0l.321-.391Z" transform="translate(-196.752 -148.939)" fill="#019da9" opacity="0.2"/>
    <rect id="Rectangle_926" data-name="Rectangle 926" width="19.824" height="4.341" transform="translate(86.515 30.631)" fill="#019da9" opacity="0.2"/>
    <rect id="Rectangle_927" data-name="Rectangle 927" width="19.824" height="4.341" transform="translate(132.046 30.631)" fill="#019da9" opacity="0.2"/>
    <rect id="Rectangle_928" data-name="Rectangle 928" width="19.824" height="4.341" transform="translate(170.554 30.631)" fill="#019da9" opacity="0.2"/>
  </g>
</svg>
