<svg id="Group_252" data-name="Group 252" xmlns="http://www.w3.org/2000/svg" width="12.144" height="12.144" viewBox="0 0 12.144 12.144">
  <path id="Path_2140" data-name="Path 2140" d="M2.691,142.327l-.423,1.578-1.545.033a6.083,6.083,0,0,1-.045-5.67h0l1.375.252.6,1.367a3.624,3.624,0,0,0,.034,2.44Z" transform="translate(0 -134.988)" fill="#fbbb00"/>
  <path id="Path_2141" data-name="Path 2141" d="M267.46,208.176a6.07,6.07,0,0,1-2.165,5.869h0l-1.732-.088-.245-1.531a3.619,3.619,0,0,0,1.557-1.848h-3.247v-2.4h5.832Z" transform="translate(-255.423 -203.238)" fill="#518ef8"/>
  <path id="Path_2142" data-name="Path 2142" d="M39.658,312.877h0a6.074,6.074,0,0,1-9.15-1.858l1.968-1.611a3.611,3.611,0,0,0,5.2,1.849Z" transform="translate(-29.785 -302.07)" fill="#28b446"/>
  <path id="Path_2143" data-name="Path 2143" d="M37.893,1.4l-1.967,1.61A3.611,3.611,0,0,0,30.6,4.9L28.624,3.28h0A6.073,6.073,0,0,1,37.893,1.4Z" transform="translate(-27.945)" fill="#f14336"/>
</svg>
