<svg id="icon" xmlns="http://www.w3.org/2000/svg" width="16.107" height="20.161" viewBox="0 0 16.107 20.161">
  <path id="Path_502" data-name="Path 502" d="M76.909,38.8a4.749,4.749,0,1,0,4.749,4.749A4.755,4.755,0,0,0,76.909,38.8Zm0,8.221a3.472,3.472,0,1,1,3.472-3.472A3.476,3.476,0,0,1,76.909,47.021Z" transform="translate(-68.856 -35.933)" fill="#a7a7a7"/>
  <path id="Path_503" data-name="Path 503" d="M41.415,0c-4.441,0-8.053,3.343-8.053,7.452,0,2.37,2.148,5.9,3.428,7.793a33.951,33.951,0,0,0,2.549,3.338c1.286,1.456,1.746,1.578,2.077,1.578s.77-.122,2.052-1.578a34.963,34.963,0,0,0,2.55-3.336c1.289-1.9,3.451-5.435,3.451-7.794C49.469,3.343,45.856,0,41.415,0Zm3.716,14.326a24.114,24.114,0,0,1-3.724,4.585,22.76,22.76,0,0,1-3.725-4.577c-1.934-2.917-3.043-5.425-3.043-6.882a6.545,6.545,0,0,1,6.776-6.27,6.545,6.545,0,0,1,6.776,6.27C48.191,8.9,47.076,11.405,45.132,14.326Z" transform="translate(-33.362)" fill="#a7a7a7"/>
</svg>
