<svg xmlns="http://www.w3.org/2000/svg" width="568.952" height="220.116" viewBox="0 0 568.952 220.116">
    <defs>
        <style>
            .prefix__cls-2{fill:#ff7171}.prefix__cls-3,.prefix__cls-5{fill:none;stroke-miterlimit:10}.prefix__cls-3{stroke:#2e3034}.prefix__cls-4{fill:#cfe7ff}.prefix__cls-5{stroke:#41a0ff}
        </style>
    </defs>
    <g id="prefix__undraw_page_not_found_su7k" transform="translate(.211 -167.654)">
        <ellipse id="prefix__Ellipse_148" cx="279.111" cy="18.478" fill="#f2f2f2" data-name="Ellipse 148" rx="279.111" ry="18.478" transform="translate(6.954 350.814)"/>
        <path id="prefix__Tracé_2750" d="M258.872 472.721h-18.8v-55.367a11.088 11.088 0 0 0-11.088-11.088h-4.406a11.088 11.088 0 0 0-11.088 11.088v55.367h-53.035a6.33 6.33 0 0 1-5.6-9.287L210.988 357.2a11.088 11.088 0 0 0-5.069-15.206l-3.314-1.565a11.088 11.088 0 0 0-14.513 4.8l-68.458 128.06a15.035 15.035 0 0 0-1.776 7.088 15.035 15.035 0 0 0 15.035 15.035h80.6v35.01a13.291 13.291 0 0 0 13.291 13.291 13.291 13.291 0 0 0 13.291-13.291v-35.01h18.8a11.346 11.346 0 0 0 11.346-11.346 11.346 11.346 0 0 0-11.346-11.346z" class="prefix__cls-2" data-name="Tracé 2750" transform="translate(-88.86 -164.697)"/>
        <path id="prefix__Tracé_2751" d="M916.868 472.721h-18.8v-55.367a11.088 11.088 0 0 0-11.087-11.088h-4.406a11.088 11.088 0 0 0-11.088 11.088v55.367h-53.036a6.33 6.33 0 0 1-5.6-9.287L868.985 357.2a11.088 11.088 0 0 0-5.069-15.206l-3.314-1.565a11.088 11.088 0 0 0-14.513 4.8l-68.458 128.06a15.036 15.036 0 0 0-1.776 7.088 15.035 15.035 0 0 0 15.035 15.035h80.594v35.01a13.291 13.291 0 0 0 13.291 13.291 13.291 13.291 0 0 0 13.291-13.291v-35.01h18.8a11.346 11.346 0 0 0 11.346-11.346 11.346 11.346 0 0 0-11.347-11.346z" class="prefix__cls-2" data-name="Tracé 2751" transform="translate(-398.698 -164.697)"/>
        <path id="prefix__Tracé_2752" d="M268.675 460.468h-18.8V405.1a11.088 11.088 0 0 0-11.088-11.088h-4.407a11.088 11.088 0 0 0-11.089 11.088v55.367h-53.034a6.33 6.33 0 0 1-5.6-9.287l56.13-106.237a11.088 11.088 0 0 0-5.069-15.206l-3.314-1.565a11.088 11.088 0 0 0-14.513 4.8l-68.454 128.064a15.035 15.035 0 0 0-1.776 7.088A15.035 15.035 0 0 0 142.7 483.16h80.594v35.01a13.291 13.291 0 0 0 13.291 13.291 13.291 13.291 0 0 0 13.291-13.291v-35.01h18.8a11.346 11.346 0 0 0 11.346-11.346 11.346 11.346 0 0 0-11.345-11.346z" class="prefix__cls-3" data-name="Tracé 2752" transform="translate(-93.476 -158.928)"/>
        <path id="prefix__Tracé_2753" d="M935.248 460.468h-18.8V405.1a11.088 11.088 0 0 0-11.088-11.088h-4.4a11.088 11.088 0 0 0-11.095 11.088v55.367h-53.034a6.33 6.33 0 0 1-5.6-9.287l56.13-106.237a11.088 11.088 0 0 0-5.069-15.206l-3.314-1.565a11.088 11.088 0 0 0-14.513 4.8L796.01 461.036a15.035 15.035 0 0 0-1.776 7.088 15.035 15.035 0 0 0 15.036 15.036h80.595v35.01a13.291 13.291 0 0 0 13.291 13.291 13.291 13.291 0 0 0 13.291-13.291v-35.01h18.8a11.346 11.346 0 0 0 11.346-11.346 11.346 11.346 0 0 0-11.347-11.346z" class="prefix__cls-3" data-name="Tracé 2753" transform="translate(-407.352 -158.928)"/>
        <path id="prefix__Tracé_2770" d="M1063.465 558.423a11.012 11.012 0 1 0 1.467-21.12l.276 5.668-2.682-4.858a10.971 10.971 0 0 0-5.653 6.2 10.8 10.8 0 0 0-.633 2.979 11.01 11.01 0 0 0 7.226 11.128z" class="prefix__cls-4" data-name="Tracé 2770" transform="translate(-530.712 -257.789)"/>
        <path id="prefix__Tracé_2771" d="M1093.154 615.74c-.947-4.82 3.155-9.094 7.207-11.872s8.786-5.507 10.168-10.221c1.987-6.775-3.931-12.979-8.538-18.33a66.294 66.294 0 0 1-8.743-12.994 17.886 17.886 0 0 1-2.091-5.908c-.363-3 .6-5.991 1.574-8.856q4.857-14.314 10.386-28.387" class="prefix__cls-5" data-name="Tracé 2771" transform="translate(-547.131 -249.366)"/>
        <path id="prefix__Tracé_2772" d="M1064.315 555.665a11.012 11.012 0 1 0 1.466-21.12l.276 5.668-2.682-4.858a10.971 10.971 0 0 0-5.653 6.2 10.8 10.8 0 0 0-.634 2.979 11.01 11.01 0 0 0 7.227 11.131z" class="prefix__cls-5" data-name="Tracé 2772" transform="translate(-531.112 -256.491)"/>
        <path id="prefix__Tracé_2773" d="M1091.862 509.017a11 11 0 0 1 7.926-6.983l.907 5.388 1.681-5.659a11.011 11.011 0 1 1-10.514 7.254z" class="prefix__cls-4" data-name="Tracé 2773" transform="translate(-547.188 -241.169)"/>
        <path id="prefix__Tracé_2774" d="M1093 505.339a11 11 0 0 1 7.926-6.983l.907 5.388 1.681-5.659a11.011 11.011 0 1 1-10.514 7.254z" class="prefix__cls-5" data-name="Tracé 2774" transform="translate(-547.724 -239.437)"/>
        <path id="prefix__Tracé_2775" d="M1101.58 606.475a11.011 11.011 0 0 0 9.746-19.589l-1.292 4.349-.916-5.452-.028-.011a11.012 11.012 0 0 0-7.51 20.7z" class="prefix__cls-4" data-name="Tracé 2775" transform="translate(-548.657 -280.414)"/>
        <path id="prefix__Tracé_2776" d="M1102.579 602.75a11.011 11.011 0 0 0 9.746-19.589l-1.292 4.349-.916-5.452-.028-.011a11.012 11.012 0 1 0-7.51 20.7z" class="prefix__cls-5" data-name="Tracé 2776" transform="translate(-549.127 -278.66)"/>
        <path id="prefix__Tracé_2777" d="M1086.229 648.56a11.006 11.006 0 1 0 2.122-8.623l4.906 7.385-6.7-3.92a10.908 10.908 0 0 0-.328 5.158z" class="prefix__cls-4" data-name="Tracé 2777" transform="translate(-544.767 -304.212)"/>
        <path id="prefix__Tracé_2778" d="M1087.079 645.8a11.006 11.006 0 1 0 2.122-8.623l4.906 7.385-6.7-3.92a10.907 10.907 0 0 0-.328 5.158z" class="prefix__cls-5" data-name="Tracé 2778" transform="translate(-545.167 -302.914)"/>
        <path id="prefix__Tracé_2779" d="M67.82 615.642a7.235 7.235 0 1 0 .964-13.876l.181 3.724-1.765-3.19a7.208 7.208 0 0 0-3.714 4.075 7.094 7.094 0 0 0-.416 1.957 7.234 7.234 0 0 0 4.748 7.311z" class="prefix__cls-4" data-name="Tracé 2779" transform="translate(-63.054 -288.183)"/>
        <path id="prefix__Tracé_2780" d="M87.325 653.3c-.622-3.167 2.073-5.975 4.735-7.8s5.773-3.618 6.681-6.715c1.305-4.451-2.583-8.528-5.609-12.043a43.558 43.558 0 0 1-5.744-8.537 11.752 11.752 0 0 1-1.374-3.882 13.4 13.4 0 0 1 1.034-5.818q3.191-9.4 6.824-18.651" class="prefix__cls-5" data-name="Tracé 2780" transform="translate(-73.841 -282.649)"/>
        <path id="prefix__Tracé_2781" d="M68.383 613.83a7.235 7.235 0 1 0 .964-13.876l.181 3.724-1.762-3.191a7.208 7.208 0 0 0-3.714 4.075 7.094 7.094 0 0 0-.416 1.957 7.234 7.234 0 0 0 4.747 7.311z" class="prefix__cls-5" data-name="Tracé 2781" transform="translate(-63.319 -287.33)"/>
        <path id="prefix__Tracé_2782" d="M86.48 583.182a7.227 7.227 0 0 1 5.208-4.588l.6 3.54 1.1-3.718a7.234 7.234 0 1 1-6.908 4.766z" class="prefix__cls-4" data-name="Tracé 2782" transform="translate(-73.88 -277.263)"/>
        <path id="prefix__Tracé_2783" d="M87.231 580.766a7.227 7.227 0 0 1 5.208-4.588l.6 3.54 1.1-3.718a7.234 7.234 0 1 1-6.908 4.766z" class="prefix__cls-5" data-name="Tracé 2783" transform="translate(-74.234 -276.125)"/>
        <path id="prefix__Tracé_2784" d="M92.867 647.213a7.234 7.234 0 0 0 6.4-12.871l-.849 2.857-.6-3.582-.018-.007a7.235 7.235 0 1 0-4.934 13.6z" class="prefix__cls-4" data-name="Tracé 2784" transform="translate(-74.846 -303.048)"/>
        <path id="prefix__Tracé_2785" d="M93.517 644.766a7.234 7.234 0 0 0 6.4-12.871l-.849 2.857-.6-3.582-.018-.007a7.235 7.235 0 1 0-4.934 13.6z" class="prefix__cls-5" data-name="Tracé 2785" transform="translate(-75.152 -301.896)"/>
        <path id="prefix__Tracé_2786" d="M82.777 674.864a7.231 7.231 0 1 0 1.394-5.666l3.224 4.852-4.4-2.575a7.167 7.167 0 0 0-.213 3.389z" class="prefix__cls-4" data-name="Tracé 2786" transform="translate(-72.289 -318.684)"/>
        <path id="prefix__Tracé_2787" d="M83.34 673.052a7.231 7.231 0 1 0 1.394-5.666l3.224 4.852-4.4-2.575a7.167 7.167 0 0 0-.218 3.389z" class="prefix__cls-5" data-name="Tracé 2787" transform="translate(-72.554 -317.831)"/>
        <g id="prefix__Groupe_375" data-name="Groupe 375" transform="translate(-260.743 -212.232)">
            <path id="prefix__Tracé_2824" fill="#26beb5" d="M538.586 605.767a84.246 84.246 0 1 0-32.442-66.3 75.258 75.258 0 0 0 0 8.313 21.435 21.435 0 0 0 .507 4.562v1.216a83.637 83.637 0 0 0 28.488 49.879z" data-name="Tracé 2824" transform="translate(-47.741 -50.55)"/>
            <path id="prefix__Tracé_2825" fill="#fff" d="M537.659 578.331h2.94c1.115-11.76 33.861-30.414 60.828-45.519 28.285-16.12 45.824-26.46 48.662-35.179 3.751-11.152-7.4-24.23-19.363-31.529-14.194-8.82-34.47-12.976-48.865 1.419a442.8 442.8 0 0 1-75.73 52.515l.507 4.562v1.216c2.23-1.216 54.846-30.414 78.975-54.745 11.963-11.861 29.3-8.11 41.465 0s18.958 17.944 16.829 24.534-25.548 20.276-46.026 31.833c-29.1 16.728-59.206 33.759-62.957 48.257z" data-name="Tracé 2825" transform="translate(-46.813 -23.115)"/>
        </g>
    </g>
</svg>
