<svg xmlns="http://www.w3.org/2000/svg" width="641.295" height="427.612" viewBox="0 0 641.295 427.612">
    <defs>
        <clipPath id="prefix__clip-path">
            <path id="prefix__Rectangle_3" d="M1 .913h9.927v128.662H1z" class="prefix__cls-1" data-name="Rectangle 3" transform="translate(-1 -.913)"/>
        </clipPath>
        <clipPath id="prefix__clip-path-2">
            <path id="prefix__Rectangle_2_copy" d="M2 2h76.108v9.927H2z" class="prefix__cls-1" data-name="Rectangle 2 copy" transform="translate(-2 -2)"/>
        </clipPath>
        <clipPath id="prefix__clip-path-3">
            <path id="prefix__Rectangle_2" d="M2 1h132.362v9.927H2z" class="prefix__cls-1" data-name="Rectangle 2" transform="translate(-2 -1)"/>
        </clipPath>
        <clipPath id="prefix__clip-path-4">
            <path id="prefix__Path_17" d="M4.53 24.874c-.93-4.263-2.341-7.433-.93-13.187s17.589-9.015 19.63-7.172 1.709 2.829 9.8 7.125 31.264 9.292 36.226 14.86 5.886 9.257-4.427 9.257h-31.9a50.612 50.612 0 0 1-10.861-5.114 8.625 8.625 0 0 0 0 4.457H8.33a59.7 59.7 0 0 1-3.8-10.226z" class="prefix__cls-2" data-name="Path 17" transform="translate(-3 -4)"/>
        </clipPath>
        <clipPath id="prefix__clip-path-5">
            <path id="prefix__Path_17_Copy" d="M13.092 40.171c-3.044-2.874-5.873-4.628-7.864-9.946s9.1-16.625 11.713-16.265 2.885 1.321 11.627.365S52.946 2.738 59.9 4.479s13.188 1.777 5 7.336c-3.854 2.613-18.755 18.537-23.38 21.676a48.69 48.69 0 0 1-11.385 1.8 8.268 8.268 0 0 0 2.407 3.532L21.634 46.23a57.334 57.334 0 0 1-8.542-6.059z" data-name="Path 17 Copy" transform="translate(-4.991 -4.287)"/>
        </clipPath>
        <clipPath id="prefix__clip-path-6">
            <path id="prefix__Path_7" d="M10.058 51.969c6.188-8.348 21.336-25.76 53.947-32.1S126.566 7.6 181.54 23.953c4.526 53.079 9.684 106.521 14.889 117.344-3.97 4.831-18.313 8.522-26.727 8.522-3.053-11.95-12.618-40.741-17.477-54.982s-6.582-31.918-5.644-38.151c-16.567 4.707-50.5 19.013-62.4 23.251S31.46 97.611 17.947 86.794 3.87 60.316 10.058 51.969z" data-name="Path 7" transform="translate(-6.267 -13.384)" style="fill:#3f5dd1"/>
        </clipPath>
        <clipPath id="prefix__clip-path-7">
            <path id="prefix__Path_4" d="M7.868 32.837c-1.64-8.226-4.8-22.646-5.436-25.727S32.4 14.672 32.4 14.672l3.848 20.17 4.4 34.112S9.508 41.063 7.868 32.837z" data-name="Path 4" transform="translate(-2.423 -6.551)"/>
        </clipPath>
        <clipPath id="prefix__clip-path-8">
            <path id="prefix__Union_1" d="M56.052 101.636c-4.233-12.622-39.043-44.18-44.689-48.628S7.9 44.286 6.474 30.661C5.464 20.988 0 12.615 0 8.571c0-1.652.916-2.582 3.42-2.582 6.8 2.533 13.433-2.645 16.424-2.645 10.9 2.714 13.383 13.442 17.908 11.192s7.423-2.25 7.423-2.25c1.056 2.142 1.4 5.811 2.451 7.953s5.473 6.438 7.437 10.421l-3.471-11.59.968-6.93L52.341 0s11.619 1.891 12.42 3.345c7.556 5.488 14.826 21.822 17.93 30.283s9.056 17.2 14.422 23.995 7.94 8.2 14.97 13.223c4.779 3.417 7.5 6.354 7.507 9.061a5.071 5.071 0 0 1-1.873 3.7c-3.979 3.747-26.891 2.292-43.2 22.671-6.629 2.718-10.171 4.634-12.489 4.634-2.665.003-3.712-2.526-5.976-9.276z" data-name="Union 1" style="fill:none"/>
        </clipPath>
        <clipPath id="prefix__clip-path-9">
            <path id="prefix__Path_13" d="M33.967 26.783c8.277 3.351 35.083-9.988 43.589-8.8 7.819 1.089-2.1-11.139-5.039-13.3s-61.649-1.19-64.73 3.326S27.1 24 33.967 26.783z" data-name="Path 13" transform="translate(-7.497 -3.575)" style="fill:#ffecd9"/>
        </clipPath>
        <clipPath id="prefix__clip-path-10">
            <path id="prefix__Mask" d="M124.359 150.994c63.974 39.975 130.044 44.344 152.259 8.792 26.68-51.827-64.8-29.4-128.776-69.377S85.449 17.065 41.322 1.174c-22.215 35.552 19.063 109.845 83.037 149.82z" class="prefix__cls-8" transform="translate(-35.253 -1.174)"/>
        </clipPath>
        <linearGradient id="prefix__linear-gradient" x1=".5" x2=".334" y2="1" gradientUnits="objectBoundingBox">
            <stop offset="0" stop-color="#91baff"/>
            <stop offset="1" stop-color="#5b87d2"/>
        </linearGradient>
        <linearGradient id="prefix__linear-gradient-2" x1=".5" x2=".5" y1=".164" y2=".766" gradientUnits="objectBoundingBox">
            <stop offset="0" stop-color="#6081c1"/>
            <stop offset="1" stop-color="#90aadb"/>
        </linearGradient>
        <linearGradient id="prefix__linear-gradient-3" x1=".5" x2=".757" y1="1" y2="-.084" gradientUnits="objectBoundingBox">
            <stop offset="0" stop-color="#fffbf3" stop-opacity=".31"/>
            <stop offset="1" stop-color="#26beb5" stop-opacity=".031"/>
        </linearGradient>
        <linearGradient id="prefix__linear-gradient-4" x1=".303" x2=".85" y2=".897" gradientUnits="objectBoundingBox">
            <stop offset="0" stop-color="#acd6ff" stop-opacity=".153"/>
            <stop offset="1" stop-color="#26beb5" stop-opacity=".6"/>
        </linearGradient>
        <linearGradient id="prefix__linear-gradient-7" x1=".876" x2=".579" y1=".163" y2=".8" gradientUnits="objectBoundingBox">
            <stop offset="0" stop-color="#f5f8ff"/>
            <stop offset="1" stop-color="#fff"/>
        </linearGradient>
        <radialGradient id="prefix__radial-gradient" cx=".5" cy=".147" r=".853" gradientUnits="objectBoundingBox">
            <stop offset="0" stop-color="#08635d"/>
            <stop offset="1" stop-color="#26beb5"/>
        </radialGradient>
        <radialGradient id="prefix__radial-gradient-2" cx=".421" cy=".455" r=".414" gradientUnits="objectBoundingBox">
            <stop offset="0" stop-color="#2ee1d6"/>
            <stop offset="1" stop-color="#26beb5"/>
        </radialGradient>
        <radialGradient id="prefix__radial-gradient-3" cx=".529" cy=".286" r=".533" gradientUnits="objectBoundingBox">
            <stop offset="0" stop-color="#4ecbc4"/>
            <stop offset="1" stop-color="#35aba4"/>
        </radialGradient>
        <style>
            .prefix__cls-1{fill:#ffce9e}.prefix__cls-2{fill:#585c6b}.prefix__cls-8{fill:transparent}.prefix__cls-10{fill:url(#prefix__linear-gradient-4)}.prefix__cls-11{fill:#f8ad94}.prefix__cls-16{fill:#775298}.prefix__cls-17{fill:#fff}.prefix__cls-56{stroke-miterlimit:10}.prefix__cls-20,.prefix__cls-51{fill:#26beb5}.prefix__cls-20{opacity:.48}.prefix__cls-25{fill:#666b7e}.prefix__cls-29{fill:url(#prefix__linear-gradient-7)}.prefix__cls-30{fill:#fcd6cb}.prefix__cls-41{fill:#a2a2a2}.prefix__cls-43{fill:#eef5ff}.prefix__cls-49{fill:#ffc52d}.prefix__cls-50{fill:#1c9c97}.prefix__cls-53{fill:#9780da}.prefix__cls-54{fill:#c2baef}.prefix__cls-55{fill:#3a4774}.prefix__cls-56{fill:#ff8760;stroke:transparent}
        </style>
    </defs>
    <g id="prefix__Illustration_Club" data-name="Illustration Club" transform="translate(-152.047 .017)">
        <path id="prefix__background" d="M188.8 366.954c-90.9-.065-165.728-41.66-184.427-111.093C-20.7 162.777 64.609 54.91 194.91 14.933c105.871-32.481 208.873-10.15 257.223 49.294 75.037 8.759 134.553 46.96 151.338 105.331 25.443 88.485-56.932 189.816-183.992 226.329a331.156 331.156 0 0 1-91.16 13.149c-55.288.002-104.903-15.086-139.519-42.082z" transform="translate(185.259 -.017)"/>
        <g id="prefix__programs" transform="translate(687.171 103.854)">
            <path id="prefix___3" d="M15.393 2h30.226a3.6 3.6 0 0 1 3.6 3.6L38.423 45.2a3.6 3.6 0 0 1-3.6 3.6H4.6A3.6 3.6 0 0 1 1 45.2L11.8 5.6A3.6 3.6 0 0 1 15.393 2z" class="prefix__cls-10" data-name="3" transform="translate(-1 -2)"/>
            <path id="prefix___2" d="M19.909 2h39.708a4.727 4.727 0 0 1 4.727 4.727l-14.182 52a4.727 4.727 0 0 1-4.727 4.727H5.727A4.727 4.727 0 0 1 1 58.727l14.182-52A4.727 4.727 0 0 1 19.909 2z" class="prefix__cls-10" data-name="2" transform="translate(40.127 15.018)"/>
            <path id="prefix___1" d="M19.909 2h39.708a4.727 4.727 0 0 1 4.727 4.727l-14.182 52a4.727 4.727 0 0 1-4.727 4.727H5.727A4.727 4.727 0 0 1 1 58.727l14.182-52A4.727 4.727 0 0 1 19.909 2z" class="prefix__cls-10" data-name="1" transform="translate(1.836 56.145)"/>
        </g>
        <g id="prefix__laptop" transform="translate(612.06 216.866)">
            <g id="prefix__table" transform="translate(0 56.86)">
                <path id="prefix__Rectangle_3-2" d="M1 .913h9.927v128.662H1z" class="prefix__cls-11" data-name="Rectangle 3" transform="translate(59.981 8.973)"/>
                <path id="prefix__Rectangle_2_copy-2" d="M2 2h76.108v9.927H2z" class="prefix__cls-11" data-name="Rectangle 2 copy" transform="translate(25.891 136.507)"/>
                <path id="prefix__Rectangle_2-2" d="M2 1h132.362v9.927H2z" class="prefix__cls-11" data-name="Rectangle 2" transform="translate(-2 -1)"/>
            </g>
            <g id="prefix__laptop-2" data-name="laptop" transform="translate(4.898)">
                <path id="prefix__Fill_38" d="M73.768 51.479H4.025A3.915 3.915 0 0 1 .08 46.653L7.686 4.826A6.05 6.05 0 0 1 13.391 0h69.74a3.914 3.914 0 0 1 3.947 4.826l-7.605 41.827a6.052 6.052 0 0 1-5.7 4.826" data-name="Fill 38" transform="translate(29.402)" style="fill:#ac81d4"/>
                <path id="prefix__Fill_39" d="M73.768 51.479H4.025A3.915 3.915 0 0 1 .08 46.653L7.686 4.826A6.047 6.047 0 0 1 13.388 0h69.74a3.915 3.915 0 0 1 3.95 4.826L79.47 46.653a6.05 6.05 0 0 1-5.7 4.826" class="prefix__cls-16" data-name="Fill 39" transform="translate(31.107)"/>
                <ellipse id="prefix__Ellipse_13" cx="4.223" cy="6.07" class="prefix__cls-17" data-name="Ellipse 13" rx="4.223" ry="6.07" transform="rotate(13 -56.39 329.393)"/>
                <path id="prefix__Fill_41" d="M0 0a3.975 3.975 0 0 0 3.964 3.962h72.955A3.975 3.975 0 0 0 80.883 0z" class="prefix__cls-16" data-name="Fill 41" transform="translate(21.195 52.816)"/>
                <path id="prefix__Fill_42" d="M0 0a3.973 3.973 0 0 0 3.962 3.962h28.689A3.975 3.975 0 0 0 36.615 0z" class="prefix__cls-16" data-name="Fill 42" transform="translate(0 52.816)"/>
            </g>
        </g>
        <g id="prefix__message" transform="translate(188.022 86.528)">
            <path id="prefix__line" d="M35.606 4C-58.7 125.443 79.888 297.219 163.982 168.182c141.663-217.374 262.3-54.038 262.3-54.038" transform="translate(-3.971 -4)" style="stroke-miterlimit:10;stroke-linecap:round;stroke:#d1d1d1;stroke-width:5px;stroke-dasharray:5 20;fill:none"/>
            <g id="prefix__rocket" transform="rotate(9 -447.152 2719.856)">
                <path id="prefix__Shape_5" d="M0 26.217L7.016 15.7l23.709 17.069L12.364 9.08 20.9 0l22.725 43.991z" data-name="Shape 5" style="stroke-linejoin:round;stroke:#26beb5;stroke-width:1.5px;fill:#26beb5;stroke-linecap:round"/>
                <path id="prefix__Shape_6" d="M0 .725L5.46 0l19.5 18.38z" class="prefix__cls-20" data-name="Shape 6" transform="translate(6.773 15.252)"/>
                <path id="prefix__Shape_7" d="M0 6.161L.63 0l18.615 23.975z" class="prefix__cls-20" data-name="Shape 7" transform="translate(11.983 9.085)"/>
            </g>
        </g>
        <g id="prefix__Person" transform="translate(214.228 112.137)">
            <path id="prefix__chair_shadow" d="M99.617 41.236c53.912 0 97.617-8.783 97.617-19.618S153.529 2 99.617 2 2 10.783 2 21.618s43.7 19.618 97.617 19.618z" data-name="chair shadow" transform="translate(48.424 271.623)"/>
            <path id="prefix__chair" d="M164.812 263.012c59.822 28.7 147.655 24.907 187.055-52.971 26.033-50.109-29.508-110.111-90.51-151.833-54.751-37.446-103.448-45.937-132.021-24.856-3.263 2.407-9.063 1.934-11.7 5.21-72.522 82.782-12.646 195.752 47.176 224.45z" transform="translate(-84.333 18.071)"/>
            <path id="prefix__cushion" d="M124.359 201c63.974 39.975 130.044 44.344 152.26 8.792 20.613-38.41-29.394-107.877-93.367-147.852S63.537 15.629 41.322 51.181 60.385 161.025 124.359 201z" transform="translate(-6.927 8.382)"/>
            <path id="prefix__shadow" d="M55.759 90.176c28.684 17.934 58.309 19.894 68.269 3.944 9.242-17.232-13.179-48.4-41.864-66.332S28.489 7.012 18.528 22.961s8.547 49.281 37.231 67.215z" transform="translate(76.129 91.162)" style="fill:#94b0d7"/>
            <g id="prefix__shoe" transform="translate(314.675 277.405)">
                <path id="prefix__Path_17-2" d="M4.53 24.874c-.93-4.263-2.341-7.433-.93-13.187s17.589-9.015 19.63-7.172 1.709 2.829 9.8 7.125 31.264 9.292 36.226 14.86 5.886 9.257-4.427 9.257h-31.9a50.612 50.612 0 0 1-10.861-5.114 8.625 8.625 0 0 0 0 4.457H8.33a59.7 59.7 0 0 1-3.8-10.226z" class="prefix__cls-25" data-name="Path 17" transform="translate(-3 -4)"/>
                <g id="prefix__shoe-2" data-name="shoe">
                    <path id="prefix__Path_21" d="M4.31 28.209C7.269 20.583 18.8 6.355 22.147 1.725S0 7.182 0 7.182s1.35 28.653 4.31 21.027z" class="prefix__cls-2" data-name="Path 21" transform="translate(-2.745 -.335)"/>
                </g>
            </g>
            <g id="prefix__shoe-3" data-name="shoe" transform="translate(334.998 146.596)">
                <path id="prefix__Path_17_Copy-2" d="M13.092 40.171c-3.044-2.874-5.873-4.628-7.864-9.946s9.1-16.625 11.713-16.265 2.885 1.321 11.627.365S52.946 2.738 59.9 4.479s13.188 1.777 5 7.336c-3.854 2.613-18.755 18.537-23.38 21.676a48.69 48.69 0 0 1-11.385 1.8 8.268 8.268 0 0 0 2.407 3.532L21.634 46.23a57.334 57.334 0 0 1-8.542-6.059z" class="prefix__cls-25" data-name="Path 17 Copy" transform="translate(-4.991 -4.287)"/>
                <g id="prefix__shoe-4" data-name="shoe">
                    <path id="prefix__Path_19" d="M16.532 33.025c-4.58-9.488.137-30.895-1.952-32.79S2.28 15.554 2.28 15.554s-4.862 4.82 2.945 12.026 15.887 14.933 11.307 5.445z" data-name="Path 19" transform="translate(-3.926 7.795)" style="opacity:.2;fill:#242527"/>
                </g>
            </g>
            <path id="prefix__sleeve" d="M6.94 71.768c21.245-11.313 33.351-44.337 42.126-53.622s12.649 8.48 11.2 13.71S48.12 72.24 25.8 100.632c0 18.547-21.6-13.982-18.86-28.864z" class="prefix__cls-29" transform="translate(138.127 5.451)"/>
            <path id="prefix__arm" d="M1.984 22.443S52.341 2.528 59.148 3.844s-13.539 24.523-17.7 26.4-9.821 6.441-16.082 6.6-20.654 3.262-20.654 3.262z" class="prefix__cls-30" transform="translate(133.995 17.305)"/>
            <g id="prefix__leg" transform="translate(144.621 150.424)">
                <path id="prefix__Path_7-2" d="M10.058 51.969c6.188-8.348 21.336-25.76 53.947-32.1S126.566 7.6 181.54 23.953c4.526 53.079 9.684 106.521 14.889 117.344-3.97 4.831-18.313 8.522-26.727 8.522-3.053-11.95-12.618-40.741-17.477-54.982s-6.582-31.918-5.644-38.151c-16.567 4.707-50.5 19.013-62.4 23.251S31.46 97.611 17.947 86.794 3.87 60.316 10.058 51.969z" data-name="Path 7" transform="translate(-6.267 -13.384)" style="fill:#8da4ff"/>
            </g>
            <g id="prefix__neck" transform="translate(102.15 55.486)">
                <path id="prefix__Path_4-2" d="M7.868 32.837c-1.64-8.226-4.8-22.646-5.436-25.727S32.4 14.672 32.4 14.672l3.848 20.17 4.4 34.112S9.508 41.063 7.868 32.837z" class="prefix__cls-30" data-name="Path 4" transform="translate(-2.423 -6.551)"/>
                <g id="prefix__neck-2" data-name="neck">
                    <path id="prefix__Path_22" d="M0 3.088c0 3.1 11.612 16.34 17.886 19.971s17.576 3.294 17.576 3.294L33.74 8.519 0 0z" data-name="Path 22" transform="translate(1.679 -1.671)" style="fill:#dc876e;opacity:.2"/>
                </g>
            </g>
            <g id="prefix__shirt" transform="translate(81.939 74.747)">
                <g id="prefix__Path_9" data-name="Path 9">
                    <path id="prefix__Path_9-2" d="M65.009 1.3s11.619 1.891 12.42 3.345c7.556 5.488 14.826 21.822 17.93 30.284s9.056 17.2 14.422 23.995 7.94 8.2 14.97 13.223 9.613 9.015 5.634 12.763-26.891 2.292-43.2 22.671c-14.248 5.841-14.231 7.977-18.464-4.644S29.677 58.753 24.031 54.3s-3.465-8.722-4.888-22.347S7.454 7.287 16.088 7.287c6.8 2.533 13.433-2.645 16.425-2.645 10.9 2.713 13.387 13.442 17.908 11.192s7.423-2.25 7.423-2.25c1.056 2.142 1.4 5.811 2.451 7.953s5.474 6.438 7.437 10.421l-3.471-11.59.968-6.93z" class="prefix__cls-17" data-name="Path 9" transform="translate(-12.668 -1.297)"/>
                </g>
                <g id="prefix__shirt-2" data-name="shirt">
                    <path id="prefix__Shape_1" d="M1 3c1.027 2.058 12.266 21.75 14.654 24.582S25.871 38.3 28.891 41.29s23.141 18.232 23.361 21.919" data-name="Shape 1" transform="translate(52.102 27.587)" style="stroke:#b5b5b5;stroke-width:4px;opacity:.6;stroke-miterlimit:10;fill:transparent"/>
                    <path id="prefix__Path_23" d="M2.256 18.507s5.16-9.383 8.164-9.383S9.368 0 9.368 0L0 7.085z" data-name="Path 23" transform="translate(36.618 8.385)" style="fill:#ccdffd;opacity:.3"/>
                </g>
            </g>
            <path id="prefix__leg-3" d="M60.462 52.607C77.586 36.888 126.6 6.466 154.555 1.821c16.013 2.664 57.685 47.83 57.685 47.83-1.879 1.98-6.832 19.536-14.654 25.054-19.7-16.354-40.242-23.991-45.757-32.447-6.88 4.188-24.565 16.419-34.737 34.387s-16.92 38.44-28.512 38.952-27.94 1.836-43-7.853c-8.746-5.627-33.925-18.171-21.693-26.389C30.9 76.644 53.283 59.2 60.462 52.607z" data-name="leg" transform="translate(137.889 100.592)" style="fill:#98adff"/>
            <path id="prefix__face" d="M42.572 6.387c1.16 2.927 7.524 15.774 8.137 18.976s6.669 24.563 3.062 27.852-14.426 4.955-17.449 3.9-9.522-1.727-12.055-6.17c-1.945-3.414-8.127-11.345-9.748-10.887-.592 1.217-2.657 2.518-3.691 1.682-4.467-3.611-8.3-7.522-6.479-16.378s8.19-13.226 15.023-16.1 22.04-5.802 23.2-2.875z" class="prefix__cls-30" transform="translate(89.028 15.626)"/>
            <g id="prefix__arm-2" data-name="arm" transform="translate(27.023 47.934)">
                <path id="prefix__Path_13-2" d="M33.967 26.783c8.277 3.351 35.083-9.988 43.589-8.8 7.819 1.089-2.1-11.139-5.039-13.3s-61.649-1.19-64.73 3.326S27.1 24 33.967 26.783z" class="prefix__cls-30" data-name="Path 13" transform="translate(-7.497 -3.575)"/>
                <g id="prefix__arm-3" data-name="arm">
                    <path id="prefix__Path_24" d="M.139.022c1.74.633 37.043 16.017 45.777 13.886S24.15 21.964 24.15 21.964-1.6-.611.139.022z" data-name="Path 24" transform="translate(10.034 4.833)" style="fill:#f5c6b8;opacity:.79"/>
                </g>
            </g>
            <path id="prefix__colar" d="M3.916 19.257c4.134 1.469 4.926 9.1 5.635 11.257S6.572 13.637 6.572 13.637c-1.3 1.79-4.075-10.363-3.553-8.58 1.404 4.792.228 10.221.897 14.2z" class="prefix__cls-41" transform="translate(130.647 67.308)"/>
            <path id="prefix__colar-2" d="M21.056 38.649c0-6.764 2.689-15.632 6.008-18.8-4.814.3-18.975-8.164-20.487-12.88s-1.792-5.39-1.792-5.39S1.869 7.223 1.869 10.8c2.063 7.762 11.266 21.236 19.187 27.849z" class="prefix__cls-41" data-name="colar" transform="translate(100.019 67.155)"/>
            <path id="prefix__sleeve-2" d="M59.675 32.967c-13.981-7.686-41.91-29.536-49.25-27.753s-5.436 5.1-5.436 12.7S43.353 51.17 49.26 63.868c2.529 5.436 9.007 18.862 20.6 16.675s8.078-13.71 5.579-23C72.5 46.614 68.285 37.7 59.675 32.967z" class="prefix__cls-29" data-name="sleeve" transform="translate(20.02 45.912)"/>
            <g id="prefix__cushion-2" data-name="cushion" transform="translate(28.326 59.562)">
                <g id="prefix__Mask_by_Oval" data-name="Mask by Oval">
                    <g id="prefix__Oval_3_Oval_3_Copy_Oval_3_Copy_2_Oval_3_Copy_4_Oval_3_Copy_3_Mask" data-name="Oval 3 + Oval 3 Copy + Oval 3 Copy 2 + Oval 3 Copy 4 + Oval 3 Copy 3 Mask">
                        <path id="prefix__Mask-2" d="M124.359 150.994c63.974 39.975 130.044 44.344 152.259 8.792 26.68-51.827-64.8-29.4-128.776-69.377S85.449 17.065 41.322 1.174c-22.215 35.552 19.063 109.845 83.037 149.82z" class="prefix__cls-8" data-name="Mask" transform="translate(-35.253 -1.174)"/>
                        <g id="prefix__Oval_3_Oval_3_Copy_Oval_3_Copy_2_Oval_3_Copy_4_Oval_3_Copy_3_Mask-2" data-name="Oval 3 + Oval 3 Copy + Oval 3 Copy 2 + Oval 3 Copy 4 + Oval 3 Copy 3 Mask">
                            <path id="prefix__Oval_3" d="M60.543 106.155c33.391 21.684 71.641 22.046 85.434.807s-2.095-56.035-35.486-77.719S38.849 7.2 25.057 28.435s2.095 56.035 35.486 77.72z" class="prefix__cls-43" data-name="Oval 3" transform="translate(-85.873 -6.799)"/>
                            <path id="prefix__Oval_3_Copy" d="M96.443 139.785C121.05 128.31 128.7 92.633 113.529 60.1S66.111 10.491 41.5 21.966 9.245 69.118 24.416 101.653s47.418 49.607 72.027 38.132z" class="prefix__cls-43" data-name="Oval 3 Copy" transform="translate(-4.629 46.001)"/>
                            <path id="prefix__Oval_3_Copy_2" d="M96.443 139.785C121.05 128.31 128.7 92.633 113.529 60.1S66.111 10.491 41.5 21.966 9.245 69.118 24.416 101.653s47.418 49.607 72.027 38.132z" class="prefix__cls-43" data-name="Oval 3 Copy 2" transform="translate(59.188 100.837)"/>
                            <path id="prefix__Oval_3_Copy_4" d="M96.442 139.785C121.05 128.31 128.7 92.633 113.529 60.1S66.111 10.491 41.5 21.966 9.245 69.118 24.416 101.653s47.418 49.607 72.026 38.132z" class="prefix__cls-43" data-name="Oval 3 Copy 4" transform="translate(178.314 119.273)"/>
                            <path id="prefix__Oval_3_Copy_3" d="M50.6 82.161c26.95 3.309 50.847-10.709 53.377-31.311S86.714 10.865 59.764 7.556 8.917 18.266 6.387 38.867 23.654 78.852 50.6 82.161z" class="prefix__cls-43" data-name="Oval 3 Copy 3" transform="translate(139.862 140.841)"/>
                        </g>
                    </g>
                </g>
            </g>
            <path id="prefix__pocket" d="M1.308 8.408s11.192-2.115 12.53-3.62 8.919 15.881 8.919 15.881l-3.679 4.177h-8.77z" transform="translate(143.333 99.549)" style="fill:#b5b5b5;opacity:.28"/>
            <path id="prefix__Fill_57" d="M15.691 51.436c-3.266-4.316-3.707-.406-4.653-4 2.535.02 11.9-17.527 10.747-20.211-.454-1.054-1.223-1.957-1.715-3s-.62-2.4.132-2.988a2.476 2.476 0 0 1 1.3-.372c3.758-.386 10.2.741 13.656-.541 3.293-1.22 6.822-3.594 6.479-7.628-.3-3.513-3.4-6.361-6.251-8.513-1.633-1.234-6.3-4.46-8.057-4.167C24.642.465 23.991 4.05 23.8 7.05A4.666 4.666 0 0 0 17.512 7c-1.634 1.456-2.408 3.769-3.119 6s-1.468 4.554-3.081 6.037C9.809 20.425-.3 35.88.007 38.232c.371 2.8 4.032 3.8 5.725 6.191-.417-.586-.771 3.157-.53 3.791.722 1.912 2.526 3.177 3.829 4.639 2.777 3.116 7.461 2.613 11.14 4.431" data-name="Fill 57" transform="rotate(12.04 48.53 458.838)" style="fill:#bc6f3b"/>
        </g>
        <g id="prefix__Clock" transform="translate(215.383 26.854)">
            <path id="prefix__Ellipse_4" d="M29.38 1A27.38 27.38 0 1 1 2 28.38 27.38 27.38 0 0 1 29.38 1z" data-name="Ellipse 4" transform="translate(-2.336 -1)" style="fill:#d2d2d2"/>
            <path id="prefix__Shape_8" d="M7.756 4.659v16.075l7.356 7.356" data-name="Shape 8" transform="translate(19.408 10.203)" style="stroke:#fff;stroke-width:3px;stroke-linejoin:round;stroke-miterlimit:10;stroke-linecap:round;fill:none"/>
        </g>
        <g id="prefix__Groupe_10" data-name="Groupe 10" transform="translate(152.047 282.364)">
            <ellipse id="prefix__Ellipse_1" cx="38.518" cy="5.061" data-name="Ellipse 1" rx="38.518" ry="5.061" transform="translate(25.917 135.109)" style="fill:#5960a3;opacity:.2"/>
            <path id="prefix__Tracé_44" d="M1923.711 1189.957c-3.521 4.807-4.255 10.767-7.058 15.922a26.486 26.486 0 0 1-10.875 10.509 11.308 11.308 0 0 0-2.587 1.562 3.468 3.468 0 0 0-.817 2.164c-.484 3.777-.544 7.615-.675 11.41-.458 13.262-.516 26.536-.558 39.8q-.016 5-.016 10h-1.912c.033-6.388.445-12.81.613-19.118.452-16.884 2.075-33.991 1.3-50.835-.2-4.409.069-9.031 2.552-12.875a29.565 29.565 0 0 1 6.031-6.164c5.467-4.6 11.018-9.261 17.672-12.455a8.29 8.29 0 0 1-.756 6.124 38.108 38.108 0 0 1-2.914 3.956z" class="prefix__cls-49" data-name="Tracé 44" transform="translate(-1837.75 -1170.237)"/>
            <path id="prefix__Tracé_45" d="M1995.284 1265.975h-3.093c-1.5-20.254-5.45-65.17-11.4-72.959-1.289 0-16.744-7.547-17.372-9.856s-.66-6.684-1.948-9.7a37.818 37.818 0 0 1-3.011-10.6c-.263-2.217-3.768-5.443-2.877-7.581.736-1.766 6.624 2.891 8.831 4.817s5.7 6.1 9.2 7.869 8.1 10.438 9.18 13.971 0 10.1 0 10.1 9.6 36.143 11.046 56.059c.56 7.668 1.048 13.545 1.444 17.88z" class="prefix__cls-50" data-name="Tracé 45" transform="translate(-1930.231 -1154.885)"/>
            <path id="prefix__Tracé_46" d="M1864.492 1287.2c.058 7.269.1 12.235.125 15.63h-4c-.739-12.88.417-39.549 20.313-53.742 0 0-2.912-.328-1.824-4.607s8.2-9.2 7.957-11.557c-.223-2.185 2.076-4.089 3.189-6.1 2.336-4.225 6.2-3.559 9.425-6.76.859-.853 4.148-5.848 5.793-5.1s1.08 7.427.949 8.194c-.407 2.391-1.3 5.52-3.839 6.876-3.312 1.766-4.048 9.8-6.624 11.4s-12.143 8.19-14.167 8.351-17.482 14.448-17.297 37.415z" class="prefix__cls-50" data-name="Tracé 46" transform="translate(-1799.58 -1191.738)"/>
            <path id="prefix__Tracé_47" d="M1960.172 1240.147a39.54 39.54 0 0 0 6.209 1.7 13.091 13.091 0 0 1 4.228 1.21c1.2.7 2.012 1.826 3.184 2.569 1.341.851 3.037 1.137 4.507 1.806a11.032 11.032 0 0 1 5.111 5.28c1.079 2.151 1.675 4.46 2.535 6.686a5.4 5.4 0 0 0 1.076 1.89 7.661 7.661 0 0 0 2.111 1.337 53.426 53.426 0 0 1 21.852 20.541 60.382 60.382 0 0 1 7.6 22.457 64.123 64.123 0 0 1 .586 11.086h-3.935a75.862 75.862 0 0 0-.677-17.881 52.4 52.4 0 0 0-4.635-14.731 43.271 43.271 0 0 0-14.469-16.678 49.678 49.678 0 0 0-6.216-3.6c-1.514-.742-3.95-2.317-5.564-2.147-2.171.229-4.324.935-6.51.354a11.489 11.489 0 0 1-4.029-2.355c-3.946-3.1-8.022-6.084-11.6-9.5s-6.68-7.318-8.308-11.726a.888.888 0 0 1-.081-.439c.055-.339.5-.544.887-.518a2.67 2.67 0 0 1 1.072.4 37.785 37.785 0 0 0 5.066 2.259z" class="prefix__cls-49" data-name="Tracé 47" transform="translate(-1953.135 -1205.616)"/>
            <path id="prefix__Tracé_48" d="M1877 1338.068c-5.805 2.6-9.031 11.048-10.885 15.693-1.581 3.959-1.756 13.594-1.772 16.351h-1.831c-.042-25.3 13.925-33.24 13.925-33.24.323-9.219 8.869-9.641 12.981-9.641s8.3-1.619 11.046-2.323 4.112-.7 4.112.423-7.046 2.813-10.24 4.5c-.4.212-11.692 6.826-13.183 7.354a26.808 26.808 0 0 1-4.153.883z" class="prefix__cls-50" data-name="Tracé 48" transform="translate(-1798.453 -1259.022)"/>
            <path id="prefix__Tracé_49" d="M1962.389 1308.006c3.128.8 7.912 2.65 12.6 2.65s14.444.482 14.812 11c0 0 15.973 9.08 15.887 38.032h-2.088c-.016-3-.2-14.192-2.023-18.762-2.116-5.3-5.8-14.934-12.42-17.905a30.581 30.581 0 0 1-4.737-1c-1.7-.6-14.583-8.148-15.042-8.39-3.644-1.929-11.684-3.854-11.684-5.139s1.567-1.292 4.695-.486z" class="prefix__cls-51" data-name="Tracé 49" transform="translate(-1941.636 -1248.598)"/>
            <path id="prefix__Tracé_50" d="M1871.778 1292.2c-1.8-.21-9.745 31.611-7.27 44.75h-1.958c-.132-4.424-.362-27.634 8.368-45.285.313-.632.086-2.211.206-2.941.409-2.488.721-5.2 3.124-6.87 3.135-2.177 6.615-4.442 10.523-5.4 3.987-.973 8.232-.923 12.152-2.137 3.8-1.177 8.709-5.245 9.077-3.426 0 0-6.623 11.027-9.691 11.99s-10.059 3.747-12.143 5.567-10.548 3.964-12.388 3.752z" class="prefix__cls-51" data-name="Tracé 50" transform="translate(-1799.875 -1225.858)"/>
            <path id="prefix__Tracé_51" d="M1953.36 1214.135a.848.848 0 0 1 .112-.093c6.836 4.945 16.68 5.042 24.594 8.557a54.171 54.171 0 0 1 10.65 6.851 13.426 13.426 0 0 1 3.759 3.725c1.233 2.182.927 4.793.142 7.128a6.124 6.124 0 0 0-.433 1.762 5.225 5.225 0 0 0 .235 1.429 251.053 251.053 0 0 1 7.744 44.209c.373 4.86.6 9.737.55 14.608h-3.156c1.61-13.795-.134-27.929-2.436-41.59-.963-5.715-2.2-11.389-3.408-17.067a2.149 2.149 0 0 0-.333-.885c-.582-.771-1.97-.657-2.873-.836a19.5 19.5 0 0 1-4.29-1.605 92.8 92.8 0 0 1-13.388-7.071c-6.884-4.675-12.031-10.982-17.071-17.2-.466-.572-.898-1.428-.398-1.922z" class="prefix__cls-51" data-name="Tracé 51" transform="translate(-1934.65 -1191.222)"/>
            <path id="prefix__Tracé_52" d="M1912.947 1435.642h37.534s1.063 26.914-10.725 33.074a2.955 2.955 0 0 1-1.365.328h-13.355a2.957 2.957 0 0 1-1.365-.328c-11.787-6.16-10.724-33.074-10.724-33.074z" data-name="Tracé 52" transform="translate(-1866.661 -1327.336)" style="fill:#ffcdbc"/>
            <path id="prefix__Tracé_53" d="M1967.586 1468.716a2.963 2.963 0 0 0 1.365.328h6.061a2.953 2.953 0 0 1-1.365-.328c-11.791-6.16-10.727-33.074-10.727-33.074h-6.057s-1.063 26.914 10.723 33.074z" class="prefix__cls-11" data-name="Tracé 53" transform="translate(-1910.577 -1327.336)"/>
            <path id="prefix__Tracé_54" d="M1890.37 1325.56a62.971 62.971 0 0 0-7.748 1.61c-1.265.355-2.51.764-3.76 1.151s-2.5.792-3.732 1.214-2.462.88-3.652 1.4c-.6.254-1.18.539-1.766.817-.575.3-1.145.6-1.7.93a18.548 18.548 0 0 0-3.084 2.23 8.669 8.669 0 0 0-2.178 2.914l.034.013a9.831 9.831 0 0 1 2.349-2.75 22.412 22.412 0 0 1 3.092-2.131 50.781 50.781 0 0 1 6.978-3.263c1.21-.469 2.44-.907 3.7-1.271s2.531-.687 3.805-1c2.546-.638 5.1-1.256 7.667-1.834z" class="prefix__cls-53" data-name="Tracé 54" transform="translate(-1784.356 -1259.72)"/>
            <path id="prefix__Tracé_55" d="M1898.047 1271.517a7.016 7.016 0 0 1-1.162 2.059c-.13.154-.249.315-.389.463l-.421.441a12.489 12.489 0 0 1-1.971 1.509l-.556.305a5.372 5.372 0 0 1-.568.286c-.393.169-.771.362-1.182.5l-.606.223c-.2.072-.416.122-.623.185-.825.26-1.69.449-2.54.664l-2.564.619c-1.709.418-3.411.859-5.083 1.387a33.363 33.363 0 0 0-4.844 1.955c-.748.422-1.534.8-2.238 1.28-.36.23-.722.459-1.074.7l-1.009.768a25.861 25.861 0 0 0-6.462 7.36l.031.016 1.441-1.948 1.584-1.854.865-.875c.295-.286.558-.6.884-.857l.934-.816c.157-.135.3-.278.47-.405l.5-.376 1-.753 1.057-.691c.686-.484 1.456-.863 2.189-1.29a39.006 39.006 0 0 1 4.741-2.05 45.82 45.82 0 0 1 5.044-1.443c1.712-.408 3.454-.687 5.164-1.14a12.77 12.77 0 0 0 4.657-2.276 8.738 8.738 0 0 0 1.725-1.792 6.3 6.3 0 0 0 1.039-2.144z" class="prefix__cls-54" data-name="Tracé 55" transform="translate(-1792.948 -1226.525)"/>
            <path id="prefix__Tracé_56" d="M1863.012 1241.966a17.561 17.561 0 0 1 1.237-3.469 32.158 32.158 0 0 1 1.9-3.488 31.04 31.04 0 0 1 2.34-3.282 21.393 21.393 0 0 1 2.845-2.964 14.871 14.871 0 0 1 1.678-1.265 13.033 13.033 0 0 0 1.751-1.156 9.042 9.042 0 0 0 2.267-3.228 25.2 25.2 0 0 0 1.91-7.457h.037a19.632 19.632 0 0 1-.427 3.841 16.21 16.21 0 0 1-1.236 3.719 9.917 9.917 0 0 1-2.462 3.205 18.325 18.325 0 0 1-1.763 1.166 8.451 8.451 0 0 0-.835.62c-.279.205-.522.449-.776.677a33.08 33.08 0 0 0-4.993 6.282c-.7 1.124-1.38 2.261-1.973 3.43a21.857 21.857 0 0 0-1.442 3.363z" class="prefix__cls-53" data-name="Tracé 56" transform="translate(-1773.073 -1192.213)"/>
            <path id="prefix__Tracé_57" d="M1924.262 1181.415a3.234 3.234 0 0 1-.384.577c-.141.19-.29.376-.438.562l-.91 1.105c-.612.733-1.245 1.452-1.88 2.17q-1.909 2.151-3.967 4.192c-.685.68-1.388 1.347-2.129 1.98-.367.32-.752.624-1.143.921s-.822.562-1.185.891a28.159 28.159 0 0 0-3.795 4.333 52.969 52.969 0 0 0-3.113 4.734c-.949 1.62-1.841 3.268-2.626 4.955a44.753 44.753 0 0 0-2.083 5.15 17.122 17.122 0 0 0-1.013 5.377h.037a12.748 12.748 0 0 1 .434-2.686c.225-.884.513-1.754.817-2.619.623-1.728 1.365-3.422 2.158-5.1a74.531 74.531 0 0 1 5.559-9.723c.536-.776 1.1-1.541 1.708-2.274a15.87 15.87 0 0 1 2-2.071 13.744 13.744 0 0 1 1.193-.87c.405-.288.805-.582 1.188-.892.769-.616 1.505-1.263 2.214-1.932a57.482 57.482 0 0 0 3.965-4.22c.627-.727 1.223-1.473 1.813-2.223.294-.375.578-.756.856-1.141.138-.193.275-.386.407-.583.067-.1.13-.2.192-.3a1.088 1.088 0 0 0 .155-.323z" class="prefix__cls-55" data-name="Tracé 57" transform="translate(-1834.561 -1171.178)"/>
            <path id="prefix__Tracé_58" d="M1973.46 1214.614a7.752 7.752 0 0 0 .934 1.138 14.942 14.942 0 0 0 1.092 1.027 25.3 25.3 0 0 0 2.424 1.835 44.173 44.173 0 0 0 5.375 3.047c1.883.882 3.818 1.671 5.769 2.423.977.375 1.933.781 2.9 1.177.479.2.941.434 1.409.654s.943.43 1.391.681c.9.488 1.822.958 2.691 1.493.437.264.889.509 1.312.789l1.277.83c.434.267.827.581 1.242.869s.825.583 1.21.9l1.178.932 1.131.977a34.07 34.07 0 0 1 4.04 4.279 18.944 18.944 0 0 1 2.877 4.938l.035-.008a17.121 17.121 0 0 0-2.672-5.068 30.076 30.076 0 0 0-4.007-4.371 43.36 43.36 0 0 0-10.213-6.715c-.458-.241-.946-.433-1.417-.651s-.945-.433-1.427-.633l-2.9-1.177-1.448-.589c-.482-.2-.948-.422-1.422-.633-.953-.414-1.872-.883-2.8-1.332a56.81 56.81 0 0 1-5.353-3.011 29.1 29.1 0 0 1-2.461-1.76 12.981 12.981 0 0 1-2.126-2.058z" class="prefix__cls-54" data-name="Tracé 58" transform="translate(-1954.654 -1191.564)"/>
            <path id="prefix__Tracé_59" d="M1992.534 1155.459c2.7 2.666 5.288 5.412 7.813 8.2 1.266 1.394 2.532 2.792 3.7 4.246s2.288 2.945 3.334 4.474c1.03 1.531 2.017 3.086 2.944 4.666q1.363 2.38 2.488 4.856a31.713 31.713 0 0 1 1.77 5.078 21.649 21.649 0 0 1 .46 2.418c.07.045.136.089.2.135a18.4 18.4 0 0 0-.383-2.6 27.012 27.012 0 0 0-1.7-5.148 50.945 50.945 0 0 0-5.615-9.5c-1.093-1.5-2.244-2.974-3.4-4.445s-2.333-2.923-3.566-4.342-2.531-2.794-3.864-4.146-2.709-2.666-4.162-3.918z" class="prefix__cls-53" data-name="Tracé 59" transform="translate(-1966.586 -1155.224)"/>
            <path id="prefix__Tracé_60" d="M2030.94 1238.017a.039.039 0 0 0-.033.046.344.344 0 0 0 .015.038.483.483 0 0 0 .042.063c.03.04.063.077.1.114.067.073.137.144.21.212.144.137.293.271.443.4.3.264.607.523.921.774.628.5 1.263 1 1.916 1.477 1.3.956 2.639 1.884 4.034 2.74a28.532 28.532 0 0 0 4.412 2.261c.4.139.8.243 1.184.407s.756.335 1.124.519c.74.364 1.451.77 2.154 1.184a79.116 79.116 0 0 1 8 5.488q.942.745 1.846 1.525c.6.517 1.192 1.051 1.745 1.609a17.288 17.288 0 0 1 1.558 1.745 6.649 6.649 0 0 1 1.108 1.979l.036-.007a6.285 6.285 0 0 0-.987-2.059 15.553 15.553 0 0 0-1.494-1.82 33.4 33.4 0 0 0-3.555-3.217c-1.26-1.006-2.581-1.951-3.941-2.849s-2.757-1.753-4.2-2.542c-.719-.4-1.458-.771-2.2-1.136-.373-.181-.753-.35-1.139-.51s-.8-.283-1.183-.421a14.922 14.922 0 0 1-2.207-1.09c-.707-.408-1.4-.843-2.076-1.284-1.364-.88-2.713-1.781-4.033-2.714-.658-.468-1.322-.931-1.967-1.413l-.964-.727c-.158-.123-.314-.248-.467-.376-.075-.065-.152-.129-.224-.2a1.445 1.445 0 0 1-.1-.1c-.029-.027-.07-.091-.057-.09z" class="prefix__cls-55" data-name="Tracé 60" transform="translate(-2030.05 -1205.948)"/>
            <path id="prefix__Tracé_61" d="M1996.774 1308.042c2.721.918 5.454 1.8 8.192 2.663 1.371.428 2.751.838 4.1 1.321.677.232 1.339.5 2.008.753l2 .771a79.647 79.647 0 0 1 7.8 3.388c.625.321 1.225.673 1.819 1.033a17.507 17.507 0 0 1 1.7 1.167 9.868 9.868 0 0 1 2.679 2.947l.033-.012a8.883 8.883 0 0 0-2.518-3.12 20.485 20.485 0 0 0-3.522-2.3 39.73 39.73 0 0 0-3.885-1.781c-1.326-.536-2.677-1.021-4.034-1.485s-2.7-.952-4.038-1.464c-1.344-.492-2.683-1-4.041-1.468q-4.084-1.371-8.287-2.444z" class="prefix__cls-54" data-name="Tracé 61" transform="translate(-1980.327 -1248.941)"/>
        </g>
        <g id="prefix__Groupe_3441" data-name="Groupe 3441" transform="translate(469.698 62.829)">
            <path id="prefix__Fill_9" d="M.015.008C.106-.078 1 .89 2.558 2.726c.788.91 1.722 2.051 2.725 3.447S7.5 9.1 8.659 10.936l1.87 2.847c.644 1 1.24 2.077 1.9 3.174 1.339 2.18 2.573 4.621 3.908 7.17a138.544 138.544 0 0 1 7.129 17.258 134.616 134.616 0 0 1 4.464 17.943c.422 2.785.863 5.429 1.056 7.9.112 1.237.265 2.432.326 3.578s.1 2.239.152 3.286c.136 2.1.054 3.972.044 5.622a41.843 41.843 0 0 1-.207 4.2c-.2 2.286-.366 3.528-.5 3.5-.333-.072-.056-5.149-.665-13.43q-.131-1.555-.27-3.25c-.1-1.13-.286-2.309-.428-3.526-.256-2.435-.748-5.034-1.207-7.768a150.479 150.479 0 0 0-4.528-17.6 154.586 154.586 0 0 0-6.869-17c-1.272-2.524-2.437-4.951-3.7-7.128-.62-1.1-1.178-2.179-1.781-3.179s-1.19-1.956-1.746-2.871C3.095 4.38-.223.227.015.008" class="prefix__cls-56" data-name="Fill 9" transform="rotate(-60 44.68 11.766)"/>
            <path id="prefix__Fill_11" d="M.021.009C.17-.135 2.468 2.236 5.489 6.7a74.861 74.861 0 0 1 4.767 8.193 86.028 86.028 0 0 1 4.424 10.725 83.58 83.58 0 0 1 2.779 11.149 68.87 68.87 0 0 1 .951 9.171c.161 5.2-.34 8.286-.552 8.234-.3-.063-.277-3.226-.772-8.334-.233-2.551-.675-5.594-1.319-8.951a101.352 101.352 0 0 0-2.842-10.817 103.718 103.718 0 0 0-4.172-10.477C7.258 12.451 5.784 9.675 4.43 7.409 1.746 2.863-.2.206.021.009" class="prefix__cls-56" data-name="Fill 11" transform="rotate(-60 35.445 -7.366)"/>
        </g>
    </g>
</svg>
