<svg xmlns="http://www.w3.org/2000/svg" xmlns:xlink="http://www.w3.org/1999/xlink" width="669.249" height="598.553" viewBox="0 0 669.249 598.553">
    <defs>
        <linearGradient id="prefix__linear-gradient" x1=".452" x2=".222" y1=".395" y2=".78" gradientUnits="objectBoundingBox">
            <stop offset="0" stop-color="#fff"/>
            <stop offset="1" stop-color="#eef2f9"/>
        </linearGradient>
        <linearGradient id="prefix__linear-gradient-2" x1=".915" x2=".396" y1=".125" y2="1" gradientUnits="objectBoundingBox">
            <stop offset="0" stop-color="#cbdaf1"/>
            <stop offset="1" stop-color="#7089b9"/>
        </linearGradient>
        <linearGradient id="prefix__linear-gradient-12" x1="1.04" x2=".061" y1=".168" y2="1" gradientUnits="objectBoundingBox">
            <stop offset="0" stop-color="#565b63"/>
            <stop offset="1" stop-color="#223762"/>
        </linearGradient>
        <linearGradient id="prefix__linear-gradient-15" x1=".832" x2="0" y1="2.774" y2="0" xlink:href="#prefix__linear-gradient-2"/>
        <clipPath id="prefix__clip-path">
            <rect id="prefix__screen" width="201.56" height="304.115" class="prefix__cls-1" rx="12"/>
        </clipPath>
        <clipPath id="prefix__clip-path-2">
            <ellipse id="prefix__Oval_6" cx="25.815" cy="25.812" class="prefix__cls-2" data-name="Oval 6" rx="25.815" ry="25.812"/>
        </clipPath>
        <clipPath id="prefix__clip-path-11">
            <ellipse id="prefix__Oval_6-11" cx="37.655" cy="37.651" class="prefix__cls-2" data-name="Oval 6" rx="37.655" ry="37.651"/>
        </clipPath>
        <clipPath id="prefix__clip-path-12">
            <path id="prefix__Union_3" d="M89.4 279.085s-40.474-36.286-57.34-63L.847 137.95A12.631 12.631 0 0 1 0 133.271c0-4.621 2.158-9.55 5.7-12.124 4.3-3.126 12.388-1.876 15.546 2.4l44.43 60.188L12.153 15.65a9.036 9.036 0 0 1-.4-2.746C11.75 7.76 15.52 1.861 20.239.49c6.283-1.824 14.6 1.619 17.756 7.351l42.128 76.543c.82-15.721 30.081-25.215 39.974-12.969l10.478 12.969c6.221-8.606 22.7-9.778 30.081-2.14l10.814 11.2c6.248-7.823 21.858-8.318 28.589-.907l9.384 10.331c13.3 33.974 19.131 80.872 19.131 80.872v104.485L113.91 309.317z" class="prefix__cls-3" data-name="Union 3"/>
        </clipPath>
        <filter id="prefix__base" width="406.926" height="166.592" x="148.139" y="56.58" filterUnits="userSpaceOnUse">
            <feOffset dx="-20" dy="15"/>
            <feGaussianBlur result="blur" stdDeviation="17"/>
            <feFlood flood-color="#ff8760" flood-opacity=".141"/>
            <feComposite in2="blur" operator="in"/>
            <feComposite in="SourceGraphic"/>
        </filter>
        <filter id="prefix__Oval_6-10" width="111.31" height="111.302" x="316.234" y="158.032" filterUnits="userSpaceOnUse">
            <feOffset dy="3"/>
            <feGaussianBlur result="blur-2" stdDeviation="6"/>
            <feFlood flood-opacity=".09"/>
            <feComposite in2="blur-2" operator="in"/>
            <feComposite in="SourceGraphic"/>
        </filter>
        <style>
            .prefix__cls-1{fill:url(#prefix__linear-gradient)}.prefix__cls-2{opacity:.6;fill:url(#prefix__linear-gradient-2)}.prefix__cls-3{fill:#ff9a9a}.prefix__cls-12,.prefix__cls-14{fill:#ffe5d9}.prefix__cls-5{fill:url(#prefix__linear-gradient-12)}.prefix__cls-8{opacity:.4;fill:url(#prefix__linear-gradient-15)}.prefix__cls-24{fill:none;stroke-linecap:round;stroke-miterlimit:10}.prefix__cls-12{opacity:.37}.prefix__cls-15{fill:#ff8760}.prefix__cls-17{fill:#fff}.prefix__cls-18{fill:#fff5f1}.prefix__cls-24{stroke:#ff9a9a;stroke-width:3px;opacity:.36}
        </style>
    </defs>
    <g id="prefix__Illustration_entraîneur" data-name="Illustration entraîneur" transform="translate(102.575 58.767)">
        <path id="prefix__window" d="M220.005 391.316C115.259 401.168 25.346 355.487 4.442 273.772c-25.477-99.6 61.218-215.018 193.639-257.793C304.85-18.51 408.745 4.753 458.347 67.266c77.835 5.678 140.816 47.688 157.805 114.1 24.22 94.679-54.193 203.1-175.139 242.171a283 283 0 0 1-86.775 14.07c-53.393.005-101.226-16.607-134.233-46.291z" transform="rotate(-7 86.525 846.972)" style="opacity:.62;fill:#ffe5d9"/>
        <g id="prefix__Groupe_3463" data-name="Groupe 3463" transform="translate(31 -1)">
            <g id="prefix__phone" transform="translate(86.268 113.789)">
                <path id="prefix__back" d="M20 0h179.487a20 20 0 0 1 20 20v336.578a70 70 0 0 1-70 70H70a70 70 0 0 1-70-70V20A20 20 0 0 1 20 0z" class="prefix__cls-5" transform="translate(19.918 .419)"/>
                <rect id="prefix__front" width="219.487" height="426.578" class="prefix__cls-5" rx="20" transform="translate(.232)"/>
                <rect id="prefix__front_speaker" width="115.315" height="7.654" data-name="front speaker" rx="3.827" transform="translate(64.232 27.554)" style="fill:#bbb"/>
                <rect id="prefix__screen-2" width="201.56" height="304.115" class="prefix__cls-1" data-name="screen" rx="12" transform="translate(19.206 61.231)"/>
                <g id="prefix__phone-2" data-name="phone" transform="translate(9.206 61.231)">
                    <g id="prefix__screen_content" data-name="screen content" transform="translate(16.799 16.66)">
                        <rect id="prefix__Rectangle_3" width="160.223" height="9.647" class="prefix__cls-8" data-name="Rectangle 3" rx="4.823" transform="translate(0 146.085)"/>
                        <rect id="prefix__Rectangle_3_Copy" width="115.763" height="9.647" class="prefix__cls-8" data-name="Rectangle 3 Copy" rx="4.823" transform="translate(0 161.604)"/>
                        <rect id="prefix__Rectangle_3_Copy_2" width="155.189" height="9.647" class="prefix__cls-8" data-name="Rectangle 3 Copy 2" rx="4.823" transform="translate(0 193.062)"/>
                        <g id="prefix__my_group" data-name="my group">
                            <g id="prefix__empty_slot" data-name="empty slot" transform="translate(46.976)" style="opacity:.325">
                                <path id="prefix__empty_slot-2" d="M0 8.389A8.389 8.389 0 0 1 8.389 0h37.13a8.389 8.389 0 0 1 8.389 8.389V60.75a8.389 8.389 0 0 1-8.389 8.389H0z" data-name="empty slot" style="fill:none"/>
                                <path id="prefix__empty_slot-3" d="M0 8.389A8.389 8.389 0 0 1 8.389 0h37.13a8.389 8.389 0 0 1 8.389 8.389V60.75a8.389 8.389 0 0 1-8.389 8.389H0z" data-name="empty slot" style="stroke-miterlimit:10;stroke-linejoin:round;stroke-linecap:round;stroke:#7188b0;stroke-width:7px;stroke-dasharray:8 20;mix-blend-mode:overlay;isolation:isolate;fill:none"/>
                            </g>
                            <g id="prefix__user" transform="translate(.228 18.51)">
                                <ellipse id="prefix__Oval_6-12" cx="25.815" cy="25.812" class="prefix__cls-12" data-name="Oval 6" rx="25.815" ry="25.812"/>
                                <g id="prefix__Groupe_3446" data-name="Groupe 3446" transform="translate(-603.177 -144.915)">
                                    <circle id="prefix__Oval" cx="6.5" cy="6.5" r="6.5" class="prefix__cls-14" transform="translate(622.067 154)"/>
                                    <rect id="prefix__Rectangle" width="19" height="18" class="prefix__cls-15" rx="4.993" transform="translate(619.067 170)"/>
                                </g>
                            </g>
                            <g id="prefix__user-3" data-name="user" transform="translate(63.228 18.51)">
                                <ellipse id="prefix__Oval_6-13" cx="25.815" cy="25.812" class="prefix__cls-15" data-name="Oval 6" rx="25.815" ry="25.812"/>
                                <path id="prefix__Combined_Shape" d="M9.482 20.767v-7.682H1.8a1.8 1.8 0 1 1 0-3.6h7.682V1.8a1.8 1.8 0 1 1 3.6 0v7.682h7.681a1.8 1.8 0 0 1 0 3.6h-7.678v7.681a1.8 1.8 0 0 1-3.6 0z" data-name="Combined Shape" transform="translate(14.5 14.5)" style="stroke-width:2px;stroke:#fff;fill:#fff;stroke-miterlimit:10"/>
                            </g>
                            <g id="prefix__user-5" data-name="user" transform="translate(.228 76.51)">
                                <ellipse id="prefix__Oval_6-14" cx="25.815" cy="25.812" class="prefix__cls-12" data-name="Oval 6" rx="25.815" ry="25.812"/>
                                <g id="prefix__Groupe_3446-2" data-name="Groupe 3446" transform="translate(-603.177 -144.915)">
                                    <circle id="prefix__Oval-2" cx="6.5" cy="6.5" r="6.5" class="prefix__cls-14" data-name="Oval" transform="translate(622.067 154)"/>
                                    <rect id="prefix__Rectangle-2" width="19" height="18" class="prefix__cls-15" data-name="Rectangle" rx="4.993" transform="translate(619.067 170)"/>
                                </g>
                            </g>
                            <g id="prefix__user-7" data-name="user" transform="translate(63.228 76.51)">
                                <ellipse id="prefix__Oval_6-15" cx="25.815" cy="25.812" class="prefix__cls-12" data-name="Oval 6" rx="25.815" ry="25.812"/>
                                <g id="prefix__Groupe_3446-3" data-name="Groupe 3446" transform="translate(-603.177 -144.915)">
                                    <circle id="prefix__Oval-3" cx="6.5" cy="6.5" r="6.5" class="prefix__cls-14" data-name="Oval" transform="translate(622.067 154)"/>
                                    <rect id="prefix__Rectangle-3" width="19" height="18" class="prefix__cls-15" data-name="Rectangle" rx="4.993" transform="translate(619.067 170)"/>
                                </g>
                            </g>
                        </g>
                    </g>
                </g>
            </g>
            <g id="prefix__my_friends" data-name="my friends" transform="translate(85.564 34.813)">
                <g transform="translate(-219.14 -92.58)">
                    <rect id="prefix__base-2" width="304.926" height="64.592" class="prefix__cls-17" data-name="base" rx="32.296" transform="translate(219.14 92.58)"/>
                </g>
                <g id="prefix__user-9" data-name="user" transform="translate(67.936 6.291)">
                    <ellipse id="prefix__Oval_6-16" cx="25.815" cy="25.812" class="prefix__cls-18" data-name="Oval 6" rx="25.815" ry="25.812"/>
                    <g id="prefix__Groupe_3446-4" data-name="Groupe 3446" transform="translate(-603.177 -144.915)">
                        <circle id="prefix__Oval-4" cx="6.5" cy="6.5" r="6.5" class="prefix__cls-14" data-name="Oval" transform="translate(622.067 154)"/>
                        <rect id="prefix__Rectangle-4" width="19" height="18" class="prefix__cls-15" data-name="Rectangle" rx="4.993" transform="translate(619.067 170)"/>
                    </g>
                </g>
                <g id="prefix__user-11" data-name="user" transform="translate(7.936 6.291)">
                    <ellipse id="prefix__Oval_6-17" cx="25.815" cy="25.812" class="prefix__cls-18" data-name="Oval 6" rx="25.815" ry="25.812"/>
                    <g id="prefix__Groupe_3446-5" data-name="Groupe 3446" transform="translate(-603.177 -144.915)">
                        <circle id="prefix__Oval-5" cx="6.5" cy="6.5" r="6.5" class="prefix__cls-14" data-name="Oval" transform="translate(622.067 154)"/>
                        <rect id="prefix__Rectangle-5" width="19" height="18" class="prefix__cls-15" data-name="Rectangle" rx="4.993" transform="translate(619.067 170)"/>
                    </g>
                </g>
                <g id="prefix__user-13" data-name="user" transform="translate(126.936 6.291)">
                    <ellipse id="prefix__Oval_6-18" cx="25.815" cy="25.812" class="prefix__cls-18" data-name="Oval 6" rx="25.815" ry="25.812"/>
                    <g id="prefix__Groupe_3446-6" data-name="Groupe 3446" transform="translate(-603.177 -144.915)">
                        <circle id="prefix__Oval-6" cx="6.5" cy="6.5" r="6.5" class="prefix__cls-14" data-name="Oval" transform="translate(622.067 154)"/>
                        <rect id="prefix__Rectangle-6" width="19" height="18" class="prefix__cls-15" data-name="Rectangle" rx="4.993" transform="translate(619.067 170)"/>
                    </g>
                </g>
                <g id="prefix__user-15" data-name="user" transform="translate(185.936 6.291)">
                    <ellipse id="prefix__Oval_6-19" cx="25.815" cy="25.812" data-name="Oval 6" rx="25.815" ry="25.812" style="stroke:#fff5f1;stroke-width:2px;fill:none"/>
                </g>
                <g id="prefix__user-17" data-name="user" transform="translate(245.936 6.287)">
                    <ellipse id="prefix__Oval_6-20" cx="25.815" cy="25.812" class="prefix__cls-18" data-name="Oval 6" rx="25.815" ry="25.812"/>
                    <g id="prefix__Groupe_3446-7" data-name="Groupe 3446" transform="translate(-603.177 -144.915)">
                        <circle id="prefix__Oval-7" cx="6.5" cy="6.5" r="6.5" class="prefix__cls-14" data-name="Oval" transform="translate(622.067 154)"/>
                        <rect id="prefix__Rectangle-7" width="19" height="18" class="prefix__cls-15" data-name="Rectangle" rx="4.993" transform="translate(619.067 170)"/>
                    </g>
                </g>
            </g>
            <path id="prefix__path" d="M136.741 22a37.58 37.58 0 0 1 4.685 4.478c.662.717 1.581 1.764 2.552 2.924 10.232 12.221 6.782 15.428-2.24 31.357-11.507 20.316-22.048 35.168-58.249 11.561-31.053-20.25-11.737-7.56-42.6 55.359-.678 1.382-1.448 2.968-2.231 4.6-2.121 4.41 6.432-14.592 3.491-7.975" transform="rotate(3 -1254.585 3347.094)" style="stroke:#ff8760;stroke-width:5px;stroke-dasharray:11 37;stroke-miterlimit:10;stroke-linejoin:round;stroke-linecap:round;fill:none"/>
            <g id="prefix__user-19" data-name="user" transform="translate(200.659 115.265)">
                <g transform="translate(-334.23 -173.03)">
                    <ellipse id="prefix__Oval_6-21" cx="37.655" cy="37.651" class="prefix__cls-17" data-name="Oval 6" rx="37.655" ry="37.651" transform="translate(334.23 173.03)"/>
                </g>
                <g id="prefix__Groupe_3446-8" data-name="Groupe 3446" transform="translate(23.178 13.252)">
                    <circle id="prefix__Oval-8" cx="9.481" cy="9.481" r="9.481" class="prefix__cls-14" data-name="Oval" transform="translate(4.376)"/>
                    <rect id="prefix__Rectangle-8" width="27.715" height="26.255" class="prefix__cls-15" data-name="Rectangle" rx="4.993" transform="translate(0 23.339)"/>
                </g>
            </g>
            <g id="prefix__hand" transform="translate(213.919 163.157)">
                <g id="prefix__hand-2" data-name="hand" transform="translate(4.469)">
                    <g id="prefix__Mask">
                        <path id="prefix__Mask-2" d="M66.614 184.026L13.09 15.939C11.323 10.389 15.582 2.4 21.176.779c6.283-1.825 14.6 1.621 17.755 7.351L81.06 84.672c.819-15.721 30.08-25.215 39.974-12.969l10.477 12.969c6.221-8.606 22.7-9.778 30.081-2.14l10.814 11.2c6.248-7.823 21.858-8.319 28.59-.907l9.384 10.331c13.3 33.973 19.131 80.872 19.131 80.872v104.485l-114.664 21.092-24.511-30.232s-40.474-36.286-57.34-63L1.783 138.238c-2.2-5.509.055-13.317 4.855-16.8 4.3-3.125 12.388-1.876 15.547 2.4z" data-name="Mask" transform="translate(-.937 -.288)" style="fill:#ffcfcf"/>
                    </g>
                    <g id="prefix__hand-3" data-name="hand">
                        <path id="prefix__Path_32" d="M0 0s13.584 26.8 18.591 40.077" class="prefix__cls-24" data-name="Path 32" transform="translate(79.571 81.772)"/>
                        <path id="prefix__Path_32_Copy" d="M0 0s9.752 15.96 13.135 27.7" class="prefix__cls-24" data-name="Path 32 Copy" transform="translate(127.947 79.076)"/>
                        <path id="prefix__Path_32_Copy_2" d="M0 0s9.752 15.96 13.135 27.7" class="prefix__cls-24" data-name="Path 32 Copy 2" transform="translate(161.764 73.374)"/>
                        <path id="prefix__Path_2" d="M4.992 26.761C2.061 17.927 0 15.022 0 11.6S.309 3.475 5.627.916s11.4.689 13.468 4.244 6.283 10.124 6.283 13.7c-.001 6.713-15.887 14.033-20.386 7.901z" class="prefix__cls-3" data-name="Path 2" transform="translate(12.493 -2.739)"/>
                        <path id="prefix__Path_3" d="M0 0c2.279 3.857 9.822 14.981 12.81 21.238" class="prefix__cls-24" data-name="Path 3" transform="translate(62.576 178.649)"/>
                    </g>
                </g>
                <path id="prefix__thumb_nail" d="M9.553 27.161c4.951 0 11.269-5.26 11.269-8.151S13.04 3.379 10.847.767-1.91 2.56.3 8.8s5.1 11.067 9.253 18.361z" class="prefix__cls-3" data-name="thumb nail" transform="rotate(8 -869.142 87.937)"/>
            </g>
        </g>
    </g>
</svg>
