<svg xmlns="http://www.w3.org/2000/svg" width="596" height="399.536" viewBox="0 0 596 399.536">
    <defs>
        <linearGradient id="prefix__linear-gradient" x1=".66" x2=".66" y1="1" y2=".179" gradientUnits="objectBoundingBox">
            <stop offset="0" stop-color="#8da6d5"/>
            <stop offset="1" stop-color="#6a87bd"/>
        </linearGradient>
        <linearGradient id="prefix__linear-gradient-2" x1=".5" x2=".215" y1="1" y2=".11" gradientUnits="objectBoundingBox">
            <stop offset="0" stop-color="#001c44"/>
            <stop offset="1" stop-color="#89a3d0"/>
        </linearGradient>
        <linearGradient id="prefix__linear-gradient-3" x1=".124" x2=".5" y1="-.183" y2=".704" gradientUnits="objectBoundingBox">
            <stop offset="0" stop-color="#70b8f9"/>
            <stop offset="1" stop-color="#3d82f0"/>
        </linearGradient>
        <linearGradient id="prefix__linear-gradient-4" x1=".122" x2=".316" y1=".269" y2=".739" gradientUnits="objectBoundingBox">
            <stop offset="0" stop-color="#47689b"/>
            <stop offset="1" stop-color="#223762"/>
        </linearGradient>
        <linearGradient id="prefix__linear-gradient-5" x1=".7" x2="1.164" y1=".55" y2=".764" gradientUnits="objectBoundingBox">
            <stop offset="0" stop-color="#a5beec"/>
            <stop offset="1" stop-color="#7b90b6"/>
        </linearGradient>
        <linearGradient id="prefix__linear-gradient-6" x1=".57" x2="-.056" y1=".5" y2=".91" gradientUnits="objectBoundingBox">
            <stop offset="0" stop-color="#fff"/>
            <stop offset="1" stop-color="#eaefff"/>
        </linearGradient>
        <linearGradient id="prefix__linear-gradient-7" x1=".154" x2=".259" y1=".231" y2="1" gradientUnits="objectBoundingBox">
            <stop offset="0" stop-color="#fff"/>
            <stop offset="1" stop-color="#e9f0fc"/>
        </linearGradient>
        <clipPath id="prefix__clip-path">
            <path id="prefix__Union_4" d="M62.431 126.557c0-9.05-.933-27.154-.932-40.16 0-6.493.234-11.716.932-13.907-4.2 1.993-31.637 15.978-42.963 18.957-5.55 1.46-17.22-12.178-19.142-25.711A33.777 33.777 0 0 1 0 60.971c.006-12.32 6.188-23.354 6.188-23.354S51.11 12.612 62.431 8.025 91.626-1.4 94.089.374s17.457 14.657 22.251 34.456 8.129 77.436 13.811 81.781c-5.625 4.467-40.538 10.884-58.805 10.884a30.967 30.967 0 0 1-8.915-.938z" data-name="Union 4" style="fill:none"/>
        </clipPath>
        <clipPath id="prefix__clip-path-2">
            <path id="prefix__Tracé_2725" d="M4 11.5C6.773 9.406 15.013 2.192 17.12 1.193c-3.594 7.163-6.93 21.545-6.93 28.152a87.465 87.465 0 0 1-8.961-6.607Q1.229 13.6 4 11.5z" data-name="Tracé 2725" transform="translate(-1.229 -1.193)"/>
        </clipPath>
        <clipPath id="prefix__clip-path-3">
            <path id="prefix__Tracé_2727" d="M8.718 1.321c-2.432 1.923-4.8 50.146 0 51.133s17.365-10.113 14.2-30.673-11.753-18.133-14.2-20.46z" data-name="Tracé 2727" transform="translate(-5.936 -1.321)"/>
        </clipPath>
        <clipPath id="prefix__clip-path-4">
            <path id="prefix__Tracé_2729" d="M32.316 5.734q-8.179 4.25-22.43-3.872-3.478 7.856-4.517 11.007-4.563 13.842 2.88 14.369 9.985.707 24.067.707 8.179-26.461 0-22.211z" data-name="Tracé 2729" transform="translate(-3.635 -1.862)"/>
        </clipPath>
        <clipPath id="prefix__clip-path-5">
            <path id="prefix__Tracé_2731" d="M51.2 6.177a110.972 110.972 0 0 0 11.462 6.234c1.928.9-3.617 3.239-9.182 10.95-4.816 6.673 1.951 12.016 0 12.184-2.925.255-3.452-.724-12.68 2.455q-8.309 2.87-28.39 10.934a7.751 7.751 0 0 1-8.174-1.524 5.018 5.018 0 0 1-.3-7.029Q18.259 24.486 22.07 20.4a68.534 68.534 0 0 1 11.88-4.75l-3.474-3.239L40.461 1.7A51.816 51.816 0 0 1 51.2 6.177z" data-name="Tracé 2731" transform="translate(-2.64 -1.703)"/>
        </clipPath>
        <clipPath id="prefix__clip-path-6">
            <path id="prefix__Tracé_2733" d="M32.891 11.093c4.316 5.117 5.122 7.45 9.786 11.6s11.066 5.629 12.918 6.282-3.705 4.793-1.853 10.157S59.515 52.4 59.515 54.5s-7.329 5.8-14.262 8.926-7.913 5.754-7.11 11.052 1.942 12.138 7.11 15.133Q50.42 92.6 16.006 78.964 1.4 46.212 8.7 25.582C16.006 4.951 28.574 5.976 32.891 11.093z" class="prefix__cls-6" data-name="Tracé 2733" transform="translate(-6.266 -7.976)"/>
        </clipPath>
        <radialGradient id="prefix__radial-gradient" cx=".747" cy="0" r=".438" gradientUnits="objectBoundingBox">
            <stop offset="0" stop-color="#e6f1ff" stop-opacity=".502"/>
            <stop offset="1" stop-color="#a7c0eb" stop-opacity="0"/>
        </radialGradient>
        <filter id="prefix__Mask_Path" width="110.647" height="74.576" x="178.442" y="152.562" filterUnits="userSpaceOnUse">
            <feOffset dy="-1"/>
            <feGaussianBlur result="blur" stdDeviation=".5"/>
            <feFlood flood-opacity=".031"/>
            <feComposite in2="blur" operator="in"/>
            <feComposite in="SourceGraphic"/>
        </filter>
        <style>
            .prefix__cls-6{fill:#fcd6cb}.prefix__cls-8{fill:#ffc52d}.prefix__cls-9{fill:#004491}.prefix__cls-10{fill:#0c6ad5}.prefix__cls-13{fill:#9780da}.prefix__cls-14{fill:#c2baef}.prefix__cls-15{fill:#3a4774}.prefix__cls-18{fill:#7e9aca}.prefix__cls-19{fill:#fff}.prefix__cls-21{fill:#c8a5ee}.prefix__cls-22{fill:#ffcd67}.prefix__cls-23{fill:#26beb5}.prefix__cls-24{fill:#666b7e}.prefix__cls-27{fill:#8da4ff}.prefix__cls-39{fill:#eaeaea}
        </style>
    </defs>
    <g id="prefix__illustration_joueur" data-name="illustration joueur" transform="translate(-71.019 -90.364)">
        <g id="prefix__Groupe_3457" data-name="Groupe 3457" transform="translate(71.019 296.4)">
            <ellipse id="prefix__Ellipse_1" cx="38.518" cy="5.061" data-name="Ellipse 1" rx="38.518" ry="5.061" transform="translate(25.917 135.109)" style="fill:#5960a3;opacity:.2"/>
            <path id="prefix__Tracé_44" d="M1923.711 1189.957c-3.521 4.807-4.255 10.767-7.058 15.922a26.486 26.486 0 0 1-10.875 10.509 11.308 11.308 0 0 0-2.587 1.562 3.468 3.468 0 0 0-.817 2.164c-.484 3.777-.544 7.615-.675 11.41-.458 13.262-.516 26.536-.558 39.8q-.016 5-.016 10h-1.912c.033-6.388.445-12.81.613-19.118.452-16.884 2.075-33.991 1.3-50.835-.2-4.409.069-9.031 2.552-12.875a29.565 29.565 0 0 1 6.031-6.164c5.467-4.6 11.018-9.261 17.672-12.455a8.29 8.29 0 0 1-.756 6.124 38.108 38.108 0 0 1-2.914 3.956z" class="prefix__cls-8" data-name="Tracé 44" transform="translate(-1837.75 -1170.237)"/>
            <path id="prefix__Tracé_45" d="M1995.284 1265.975h-3.093c-1.5-20.254-5.45-65.17-11.4-72.959-1.289 0-16.744-7.547-17.372-9.856s-.66-6.684-1.948-9.7a37.818 37.818 0 0 1-3.011-10.6c-.263-2.217-3.768-5.443-2.877-7.581.736-1.766 6.624 2.891 8.831 4.817s5.7 6.1 9.2 7.869 8.1 10.438 9.18 13.971 0 10.1 0 10.1 9.6 36.143 11.046 56.059c.56 7.668 1.048 13.545 1.444 17.88z" class="prefix__cls-9" data-name="Tracé 45" transform="translate(-1930.231 -1154.885)"/>
            <path id="prefix__Tracé_46" d="M1864.492 1287.2c.058 7.269.1 12.235.125 15.63h-4c-.739-12.88.417-39.549 20.313-53.742 0 0-2.912-.328-1.824-4.607s8.2-9.2 7.957-11.557c-.223-2.185 2.076-4.089 3.189-6.1 2.336-4.225 6.2-3.559 9.425-6.76.859-.853 4.148-5.848 5.793-5.1s1.08 7.427.949 8.194c-.407 2.391-1.3 5.52-3.839 6.876-3.312 1.766-4.048 9.8-6.624 11.4s-12.143 8.19-14.167 8.351-17.482 14.448-17.297 37.415z" class="prefix__cls-9" data-name="Tracé 46" transform="translate(-1799.58 -1191.738)"/>
            <path id="prefix__Tracé_47" d="M1960.172 1240.147a39.54 39.54 0 0 0 6.209 1.7 13.091 13.091 0 0 1 4.228 1.21c1.2.7 2.012 1.826 3.184 2.569 1.341.851 3.037 1.137 4.507 1.806a11.032 11.032 0 0 1 5.111 5.28c1.079 2.151 1.675 4.46 2.535 6.686a5.4 5.4 0 0 0 1.076 1.89 7.661 7.661 0 0 0 2.111 1.337 53.426 53.426 0 0 1 21.852 20.541 60.382 60.382 0 0 1 7.6 22.457 64.123 64.123 0 0 1 .586 11.086h-3.935a75.862 75.862 0 0 0-.677-17.881 52.4 52.4 0 0 0-4.635-14.731 43.271 43.271 0 0 0-14.469-16.678 49.678 49.678 0 0 0-6.216-3.6c-1.514-.742-3.95-2.317-5.564-2.147-2.171.229-4.324.935-6.51.354a11.489 11.489 0 0 1-4.029-2.355c-3.946-3.1-8.022-6.084-11.6-9.5s-6.68-7.318-8.308-11.726a.888.888 0 0 1-.081-.439c.055-.339.5-.544.887-.518a2.67 2.67 0 0 1 1.072.4 37.785 37.785 0 0 0 5.066 2.259z" class="prefix__cls-8" data-name="Tracé 47" transform="translate(-1953.135 -1205.616)"/>
            <path id="prefix__Tracé_48" d="M1877 1338.068c-5.805 2.6-9.031 11.048-10.885 15.693-1.581 3.959-1.756 13.594-1.772 16.351h-1.831c-.042-25.3 13.925-33.24 13.925-33.24.323-9.219 8.869-9.641 12.981-9.641s8.3-1.619 11.046-2.323 4.112-.7 4.112.423-7.046 2.813-10.24 4.5c-.4.212-11.692 6.826-13.183 7.354a26.808 26.808 0 0 1-4.153.883z" class="prefix__cls-9" data-name="Tracé 48" transform="translate(-1798.453 -1259.022)"/>
            <path id="prefix__Tracé_49" d="M1962.389 1308.006c3.128.8 7.912 2.65 12.6 2.65s14.444.482 14.812 11c0 0 15.973 9.08 15.887 38.032h-2.088c-.016-3-.2-14.192-2.023-18.762-2.116-5.3-5.8-14.934-12.42-17.905a30.581 30.581 0 0 1-4.737-1c-1.7-.6-14.583-8.148-15.042-8.39-3.644-1.929-11.684-3.854-11.684-5.139s1.567-1.292 4.695-.486z" class="prefix__cls-10" data-name="Tracé 49" transform="translate(-1941.636 -1248.598)"/>
            <path id="prefix__Tracé_50" d="M1871.778 1292.2c-1.8-.21-9.745 31.611-7.27 44.75h-1.958c-.132-4.424-.362-27.634 8.368-45.285.313-.632.086-2.211.206-2.941.409-2.488.721-5.2 3.124-6.87 3.135-2.177 6.615-4.442 10.523-5.4 3.987-.973 8.232-.923 12.152-2.137 3.8-1.177 8.709-5.245 9.077-3.426 0 0-6.623 11.027-9.691 11.99s-10.059 3.747-12.143 5.567-10.548 3.964-12.388 3.752z" class="prefix__cls-10" data-name="Tracé 50" transform="translate(-1799.875 -1225.858)"/>
            <path id="prefix__Tracé_51" d="M1953.36 1214.135a.848.848 0 0 1 .112-.093c6.836 4.945 16.68 5.042 24.594 8.557a54.171 54.171 0 0 1 10.65 6.851 13.426 13.426 0 0 1 3.759 3.725c1.233 2.182.927 4.793.142 7.128a6.124 6.124 0 0 0-.433 1.762 5.225 5.225 0 0 0 .235 1.429 251.053 251.053 0 0 1 7.744 44.209c.373 4.86.6 9.737.55 14.608h-3.156c1.61-13.795-.134-27.929-2.436-41.59-.963-5.715-2.2-11.389-3.408-17.067a2.149 2.149 0 0 0-.333-.885c-.582-.771-1.97-.657-2.873-.836a19.5 19.5 0 0 1-4.29-1.605 92.8 92.8 0 0 1-13.388-7.071c-6.884-4.675-12.031-10.982-17.071-17.2-.466-.572-.898-1.428-.398-1.922z" class="prefix__cls-10" data-name="Tracé 51" transform="translate(-1934.65 -1191.222)"/>
            <path id="prefix__Tracé_52" d="M1912.955 1435.642h49.3s1.4 26.914-14.086 33.074a4.894 4.894 0 0 1-1.793.328h-17.541a4.9 4.9 0 0 1-1.793-.328c-15.484-6.16-14.087-33.074-14.087-33.074z" data-name="Tracé 52" transform="translate(-1873.552 -1327.336)" style="fill:#ffcdbc"/>
            <path id="prefix__Tracé_53" d="M1970.955 1468.716a4.909 4.909 0 0 0 1.793.328h7.961a4.891 4.891 0 0 1-1.793-.328c-15.487-6.16-14.09-33.074-14.09-33.074h-7.956s-1.397 26.914 14.085 33.074z" data-name="Tracé 53" transform="translate(-1917.468 -1327.336)" style="fill:#f8ad94"/>
            <path id="prefix__Tracé_54" d="M1890.37 1325.56a62.971 62.971 0 0 0-7.748 1.61c-1.265.355-2.51.764-3.76 1.151s-2.5.792-3.732 1.214-2.462.88-3.652 1.4c-.6.254-1.18.539-1.766.817-.575.3-1.145.6-1.7.93a18.548 18.548 0 0 0-3.084 2.23 8.669 8.669 0 0 0-2.178 2.914l.034.013a9.831 9.831 0 0 1 2.349-2.75 22.412 22.412 0 0 1 3.092-2.131 50.781 50.781 0 0 1 6.978-3.263c1.21-.469 2.44-.907 3.7-1.271s2.531-.687 3.805-1c2.546-.638 5.1-1.256 7.667-1.834z" class="prefix__cls-13" data-name="Tracé 54" transform="translate(-1784.356 -1259.72)"/>
            <path id="prefix__Tracé_55" d="M1898.047 1271.517a7.016 7.016 0 0 1-1.162 2.059c-.13.154-.249.315-.389.463l-.421.441a12.489 12.489 0 0 1-1.971 1.509l-.556.305a5.372 5.372 0 0 1-.568.286c-.393.169-.771.362-1.182.5l-.606.223c-.2.072-.416.122-.623.185-.825.26-1.69.449-2.54.664l-2.564.619c-1.709.418-3.411.859-5.083 1.387a33.363 33.363 0 0 0-4.844 1.955c-.748.422-1.534.8-2.238 1.28-.36.23-.722.459-1.074.7l-1.009.768a25.861 25.861 0 0 0-6.462 7.36l.031.016 1.441-1.948 1.584-1.854.865-.875c.295-.286.558-.6.884-.857l.934-.816c.157-.135.3-.278.47-.405l.5-.376 1-.753 1.057-.691c.686-.484 1.456-.863 2.189-1.29a39.006 39.006 0 0 1 4.741-2.05 45.82 45.82 0 0 1 5.044-1.443c1.712-.408 3.454-.687 5.164-1.14a12.77 12.77 0 0 0 4.657-2.276 8.738 8.738 0 0 0 1.725-1.792 6.3 6.3 0 0 0 1.039-2.144z" class="prefix__cls-14" data-name="Tracé 55" transform="translate(-1792.948 -1226.525)"/>
            <path id="prefix__Tracé_56" d="M1863.012 1241.966a17.561 17.561 0 0 1 1.237-3.469 32.158 32.158 0 0 1 1.9-3.488 31.04 31.04 0 0 1 2.34-3.282 21.393 21.393 0 0 1 2.845-2.964 14.871 14.871 0 0 1 1.678-1.265 13.033 13.033 0 0 0 1.751-1.156 9.042 9.042 0 0 0 2.267-3.228 25.2 25.2 0 0 0 1.91-7.457h.037a19.632 19.632 0 0 1-.427 3.841 16.21 16.21 0 0 1-1.236 3.719 9.917 9.917 0 0 1-2.462 3.205 18.325 18.325 0 0 1-1.763 1.166 8.451 8.451 0 0 0-.835.62c-.279.205-.522.449-.776.677a33.08 33.08 0 0 0-4.993 6.282c-.7 1.124-1.38 2.261-1.973 3.43a21.857 21.857 0 0 0-1.442 3.363z" class="prefix__cls-13" data-name="Tracé 56" transform="translate(-1773.073 -1192.213)"/>
            <path id="prefix__Tracé_57" d="M1924.262 1181.415a3.234 3.234 0 0 1-.384.577c-.141.19-.29.376-.438.562l-.91 1.105c-.612.733-1.245 1.452-1.88 2.17q-1.909 2.151-3.967 4.192c-.685.68-1.388 1.347-2.129 1.98-.367.32-.752.624-1.143.921s-.822.562-1.185.891a28.159 28.159 0 0 0-3.795 4.333 52.969 52.969 0 0 0-3.113 4.734c-.949 1.62-1.841 3.268-2.626 4.955a44.753 44.753 0 0 0-2.083 5.15 17.122 17.122 0 0 0-1.013 5.377h.037a12.748 12.748 0 0 1 .434-2.686c.225-.884.513-1.754.817-2.619.623-1.728 1.365-3.422 2.158-5.1a74.531 74.531 0 0 1 5.559-9.723c.536-.776 1.1-1.541 1.708-2.274a15.87 15.87 0 0 1 2-2.071 13.744 13.744 0 0 1 1.193-.87c.405-.288.805-.582 1.188-.892.769-.616 1.505-1.263 2.214-1.932a57.482 57.482 0 0 0 3.965-4.22c.627-.727 1.223-1.473 1.813-2.223.294-.375.578-.756.856-1.141.138-.193.275-.386.407-.583.067-.1.13-.2.192-.3a1.088 1.088 0 0 0 .155-.323z" class="prefix__cls-15" data-name="Tracé 57" transform="translate(-1834.561 -1171.178)"/>
            <path id="prefix__Tracé_58" d="M1973.46 1214.614a7.752 7.752 0 0 0 .934 1.138 14.942 14.942 0 0 0 1.092 1.027 25.3 25.3 0 0 0 2.424 1.835 44.173 44.173 0 0 0 5.375 3.047c1.883.882 3.818 1.671 5.769 2.423.977.375 1.933.781 2.9 1.177.479.2.941.434 1.409.654s.943.43 1.391.681c.9.488 1.822.958 2.691 1.493.437.264.889.509 1.312.789l1.277.83c.434.267.827.581 1.242.869s.825.583 1.21.9l1.178.932 1.131.977a34.07 34.07 0 0 1 4.04 4.279 18.944 18.944 0 0 1 2.877 4.938l.035-.008a17.121 17.121 0 0 0-2.672-5.068 30.076 30.076 0 0 0-4.007-4.371 43.36 43.36 0 0 0-10.213-6.715c-.458-.241-.946-.433-1.417-.651s-.945-.433-1.427-.633l-2.9-1.177-1.448-.589c-.482-.2-.948-.422-1.422-.633-.953-.414-1.872-.883-2.8-1.332a56.81 56.81 0 0 1-5.353-3.011 29.1 29.1 0 0 1-2.461-1.76 12.981 12.981 0 0 1-2.126-2.058z" class="prefix__cls-14" data-name="Tracé 58" transform="translate(-1954.654 -1191.564)"/>
            <path id="prefix__Tracé_59" d="M1992.534 1155.459c2.7 2.666 5.288 5.412 7.813 8.2 1.266 1.394 2.532 2.792 3.7 4.246s2.288 2.945 3.334 4.474c1.03 1.531 2.017 3.086 2.944 4.666q1.363 2.38 2.488 4.856a31.713 31.713 0 0 1 1.77 5.078 21.649 21.649 0 0 1 .46 2.418c.07.045.136.089.2.135a18.4 18.4 0 0 0-.383-2.6 27.012 27.012 0 0 0-1.7-5.148 50.945 50.945 0 0 0-5.615-9.5c-1.093-1.5-2.244-2.974-3.4-4.445s-2.333-2.923-3.566-4.342-2.531-2.794-3.864-4.146-2.709-2.666-4.162-3.918z" class="prefix__cls-13" data-name="Tracé 59" transform="translate(-1966.586 -1155.224)"/>
            <path id="prefix__Tracé_60" d="M2030.94 1238.017a.039.039 0 0 0-.033.046.344.344 0 0 0 .015.038.483.483 0 0 0 .042.063c.03.04.063.077.1.114.067.073.137.144.21.212.144.137.293.271.443.4.3.264.607.523.921.774.628.5 1.263 1 1.916 1.477 1.3.956 2.639 1.884 4.034 2.74a28.532 28.532 0 0 0 4.412 2.261c.4.139.8.243 1.184.407s.756.335 1.124.519c.74.364 1.451.77 2.154 1.184a79.116 79.116 0 0 1 8 5.488q.942.745 1.846 1.525c.6.517 1.192 1.051 1.745 1.609a17.288 17.288 0 0 1 1.558 1.745 6.649 6.649 0 0 1 1.108 1.979l.036-.007a6.285 6.285 0 0 0-.987-2.059 15.553 15.553 0 0 0-1.494-1.82 33.4 33.4 0 0 0-3.555-3.217c-1.26-1.006-2.581-1.951-3.941-2.849s-2.757-1.753-4.2-2.542c-.719-.4-1.458-.771-2.2-1.136-.373-.181-.753-.35-1.139-.51s-.8-.283-1.183-.421a14.922 14.922 0 0 1-2.207-1.09c-.707-.408-1.4-.843-2.076-1.284-1.364-.88-2.713-1.781-4.033-2.714-.658-.468-1.322-.931-1.967-1.413l-.964-.727c-.158-.123-.314-.248-.467-.376-.075-.065-.152-.129-.224-.2a1.445 1.445 0 0 1-.1-.1c-.029-.027-.07-.091-.057-.09z" class="prefix__cls-15" data-name="Tracé 60" transform="translate(-2030.05 -1205.948)"/>
            <path id="prefix__Tracé_61" d="M1996.774 1308.042c2.721.918 5.454 1.8 8.192 2.663 1.371.428 2.751.838 4.1 1.321.677.232 1.339.5 2.008.753l2 .771a79.647 79.647 0 0 1 7.8 3.388c.625.321 1.225.673 1.819 1.033a17.507 17.507 0 0 1 1.7 1.167 9.868 9.868 0 0 1 2.679 2.947l.033-.012a8.883 8.883 0 0 0-2.518-3.12 20.485 20.485 0 0 0-3.522-2.3 39.73 39.73 0 0 0-3.885-1.781c-1.326-.536-2.677-1.021-4.034-1.485s-2.7-.952-4.038-1.464c-1.344-.492-2.683-1-4.041-1.468q-4.084-1.371-8.287-2.444z" class="prefix__cls-14" data-name="Tracé 61" transform="translate(-1980.327 -1248.941)"/>
        </g>
        <g id="prefix__board" transform="translate(319.395 72)">
            <rect id="prefix__Rectangle_1055" width="368" height="318" data-name="Rectangle 1055" rx="40" transform="translate(-20.377 18.364)" style="fill:#fff9e2;opacity:.82"/>
            <g id="prefix__shadow" transform="translate(58.943 58.439)" style="opacity:.1">
                <path id="prefix___copy_5" d="M94.782 93.7H6.116a5.038 5.038 0 0 1-5.038-5.038V6.038A5.038 5.038 0 0 1 6.116 1h88.666a5.038 5.038 0 0 1 5.038 5.038v82.621a5.049 5.049 0 0 1-5.038 5.041z" class="prefix__cls-18" data-name="copy 5" transform="translate(-1.078 -1)"/>
                <path id="prefix___copy_6" d="M94.782 93.7H6.116a5.038 5.038 0 0 1-5.038-5.038V6.038A5.038 5.038 0 0 1 6.116 1h88.666a5.038 5.038 0 0 1 5.038 5.038v82.621a5.049 5.049 0 0 1-5.038 5.041z" class="prefix__cls-18" data-name="copy 6" transform="translate(124.365 -1)"/>
                <path id="prefix___copy_7" d="M53.976 59.936H6.116A5.038 5.038 0 0 1 1.078 54.9V7.038A5.038 5.038 0 0 1 6.116 2h47.86a5.038 5.038 0 0 1 5.038 5.038V54.9a5.048 5.048 0 0 1-5.038 5.036z" class="prefix__cls-18" data-name="copy 7" transform="translate(-1.078 115.886)"/>
                <path id="prefix___copy_8" d="M53.976 58.936H6.116A5.038 5.038 0 0 1 1.078 53.9V6.038A5.038 5.038 0 0 1 6.116 1h47.86a5.038 5.038 0 0 1 5.038 5.038V53.9a5.048 5.048 0 0 1-5.038 5.036z" class="prefix__cls-18" data-name="copy 8" transform="translate(-1.078 187.417)"/>
            </g>
            <g id="prefix__chart" transform="translate(53.401 52.897)">
                <path id="prefix__base" d="M94.782 93.7H6.116a5.038 5.038 0 0 1-5.038-5.038V6.038A5.038 5.038 0 0 1 6.116 1h88.666a5.038 5.038 0 0 1 5.038 5.038v82.621a5.049 5.049 0 0 1-5.038 5.041z" class="prefix__cls-19" transform="translate(-1.078 -1)"/>
                <g id="prefix__chart-2" data-name="chart" transform="translate(7.338 19.338)">
                    <path id="prefix__Tracé_2712" d="M4.644 52.31l10.814-23.856 17.48 3.468 13.446-18.38L68.662 4.6l19.462 12.94" data-name="Tracé 2712" transform="translate(-4.644 -1.972)" style="fill:transparent;stroke:#f5f9ff;stroke-linecap:round;stroke-linejoin:round;stroke-miterlimit:10;stroke-width:4px"/>
                    <path id="prefix__Tracé_2713" d="M4.492 7.385a3 3 0 1 0-3-3 3 3 0 0 0 3 3z" class="prefix__cls-21" data-name="Tracé 2713" transform="translate(24.117 25.812)"/>
                    <path id="prefix__Tracé_2714" d="M4.492 8.769a3 3 0 1 0-3-3 3 3 0 0 0 3 3z" class="prefix__cls-21" data-name="Tracé 2714" transform="translate(5.988 21.606)"/>
                    <path id="prefix__Tracé_2715" d="M4.492 7.385a3 3 0 1 0-3-3 3 3 0 0 0 3 3z" class="prefix__cls-21" data-name="Tracé 2715" transform="translate(37.719 7.676)"/>
                    <path id="prefix__Tracé_2716" d="M4.492 7.385a3 3 0 1 0-3-3 3 3 0 0 0 3 3z" class="prefix__cls-21" data-name="Tracé 2716" transform="translate(59.886 -1.385)"/>
                    <path id="prefix__Tracé_2741" d="M4.492 7.385a3 3 0 1 0-3-3 3 3 0 0 0 3 3z" class="prefix__cls-21" data-name="Tracé 2741" transform="translate(79.886 11.615)"/>
                </g>
            </g>
            <g id="prefix__graph" transform="translate(178.844 52.897)">
                <path id="prefix__base-2" d="M94.782 93.7H6.116a5.038 5.038 0 0 1-5.038-5.038V6.038A5.038 5.038 0 0 1 6.116 1h88.666a5.038 5.038 0 0 1 5.038 5.038v82.621a5.049 5.049 0 0 1-5.038 5.041z" class="prefix__cls-19" data-name="base" transform="translate(-1.078 -1)"/>
                <g id="prefix__graph-2" data-name="graph" transform="translate(16.625 20.716)">
                    <path id="prefix__Tracé_2717" d="M14.68 53.386H3.093a2.015 2.015 0 0 1-2.015-2.015V4.015A2.015 2.015 0 0 1 3.093 2H14.68a2.015 2.015 0 0 1 2.02 2.015v47.356a2.025 2.025 0 0 1-2.02 2.015z" class="prefix__cls-22" data-name="Tracé 2717" transform="translate(-1.078 -2)"/>
                    <path id="prefix___copy_9" d="M14.68 40.825H3.093a1.827 1.827 0 0 1-2.015-1.541V3.07a1.827 1.827 0 0 1 2.015-1.541H14.68A1.827 1.827 0 0 1 16.7 3.07v36.214c0 .839-.882 1.521-2.02 1.541z" class="prefix__cls-22" data-name="copy 9" transform="translate(24.111 10.562)"/>
                    <path id="prefix___copy_10" d="M14.68 30.88H3.093c-1.113 0-2.015-.522-2.015-1.166V2.322c0-.644.9-1.166 2.015-1.166H14.68c1.113 0 2.015.522 2.015 1.166v27.393c.005.634-.877 1.151-2.015 1.165z" class="prefix__cls-22" data-name="copy 10" transform="translate(48.797 20.506)"/>
                </g>
            </g>
            <g id="prefix__list" transform="translate(53.401 170.784)">
                <path id="prefix__Tracé_2722" d="M53.976 59.936H6.116A5.038 5.038 0 0 1 1.078 54.9V7.038A5.038 5.038 0 0 1 6.116 2h47.86a5.038 5.038 0 0 1 5.038 5.038V54.9a5.048 5.048 0 0 1-5.038 5.036z" class="prefix__cls-23" data-name="Tracé 2722" transform="translate(-1.078 -2.42)"/>
                <path id="prefix__Tracé_2723" d="M53.976 58.936H6.116A5.038 5.038 0 0 1 1.078 53.9V6.038A5.038 5.038 0 0 1 6.116 1h47.86a5.038 5.038 0 0 1 5.038 5.038V53.9a5.049 5.049 0 0 1-5.038 5.036z" class="prefix__cls-19" data-name="Tracé 2723" transform="translate(-.856 69.58)"/>
                <path id="prefix__TICK" d="M891.924 855.914l-15.554 15.554a2.028 2.028 0 0 1-2.869 0l-8.791-8.791a2.029 2.029 0 0 1 2.869-2.869l7.356 7.357 14.119-14.119a2.029 2.029 0 1 1 2.869 2.869z" class="prefix__cls-23" transform="translate(-848.894 -762.871)"/>
                <path id="prefix__TICK-2" d="M891.924 855.914l-15.554 15.554a2.028 2.028 0 0 1-2.869 0l-8.791-8.791a2.029 2.029 0 0 1 2.869-2.869l7.356 7.357 14.119-14.119a2.029 2.029 0 1 1 2.869 2.869z" class="prefix__cls-19" data-name="TICK" transform="translate(-848.895 -833.871)"/>
            </g>
            <g id="prefix__Groupe_3451" data-name="Groupe 3451" transform="translate(0 4)">
                <rect id="prefix__Rectangle_35" width="127" height="9" class="prefix__cls-22" data-name="Rectangle 35" rx="4.5" transform="translate(124.623 252.364)"/>
                <rect id="prefix__Rectangle_35-2" width="81" height="9" class="prefix__cls-22" data-name="Rectangle 35" rx="4.5" transform="translate(124.623 267.364)"/>
            </g>
            <g id="prefix__Groupe_3452" data-name="Groupe 3452" transform="translate(0 -66)">
                <rect id="prefix__Rectangle_35-3" width="127" height="9" class="prefix__cls-22" data-name="Rectangle 35" rx="4.5" transform="translate(124.623 252.364)"/>
                <rect id="prefix__Rectangle_35-4" width="81" height="9" class="prefix__cls-22" data-name="Rectangle 35" rx="4.5" transform="translate(124.623 267.364)"/>
            </g>
        </g>
        <g id="prefix__person" transform="translate(127.443 157.195)">
            <g id="prefix__trouser" transform="translate(0 172.513)">
                <g id="prefix__shoe" transform="translate(194.179 110.034)">
                    <path id="prefix__shoe-2" d="M23.4 37.148H8.758a51.822 51.822 0 0 1-4.049-10.9c-1-4.542-2.5-7.921-1-14.053s18.744-9.607 20.92-7.643 1.822 3.015 10.441 7.593q7.811 4.148 28.915 13.372a7.527 7.527 0 0 1 4.512 6.9 5.023 5.023 0 0 1-4.933 5.022q-22.969.414-28.6.414A68.534 68.534 0 0 1 23.4 32.4z" class="prefix__cls-24" data-name="shoe" transform="translate(-3.078 -4)"/>
                </g>
                <g id="prefix__leg" transform="translate(121.946)">
                    <g id="prefix__Groupe_3442" data-name="Groupe 3442">
                        <path id="prefix__Mask_Path-2" d="M10.888 42.2s44.921-25 56.242-29.588 29.2-9.421 31.658-7.651 17.457 14.657 22.251 34.456 8.128 77.436 13.811 81.781c-6.813 5.411-56.6 13.682-67.721 9.946 0-13.568-2.1-47.488 0-54.066-4.2 1.992-31.637 15.978-42.963 18.956-5.55 1.459-17.22-12.179-19.142-25.712C3.025 56.237 10.888 42.2 10.888 42.2z" data-name="Mask Path" transform="translate(-4.699 -4.586)"/>
                        <path id="prefix__Mask_Path-3" d="M10.888 42.2s44.921-25 56.242-29.588 29.2-9.421 31.658-7.651 17.457 14.657 22.251 34.456 8.128 77.436 13.811 81.781c-6.813 5.411-56.6 13.682-67.721 9.946 0-13.568-2.1-47.488 0-54.066-4.2 1.992-31.637 15.978-42.963 18.956-5.55 1.459-17.22-12.179-19.142-25.712C3.025 56.237 10.888 42.2 10.888 42.2z" data-name="Mask Path" transform="translate(-4.699 -4.586)"/>
                        <path id="prefix__Mask_Path-4" d="M10.888 42.2s44.921-25 56.242-29.588 29.2-9.421 31.658-7.651 17.457 14.657 22.251 34.456 8.128 77.436 13.811 81.781c-6.813 5.411-56.6 13.682-67.721 9.946 0-13.568-2.1-47.488 0-54.066-4.2 1.992-31.637 15.978-42.963 18.956-5.55 1.459-17.22-12.179-19.142-25.712C3.025 56.237 10.888 42.2 10.888 42.2z" class="prefix__cls-27" data-name="Mask Path" transform="translate(-4.699 -4.586)"/>
                    </g>
                </g>
                <g id="prefix__shadow-2" data-name="shadow" transform="translate(183.675 60.256)">
                    <path id="prefix__Tracé_2724" d="M4 11.5C6.773 9.406 15.013 2.192 17.12 1.193c-3.594 7.163-6.93 21.545-6.93 28.152a87.465 87.465 0 0 1-8.961-6.607Q1.229 13.6 4 11.5z" data-name="Tracé 2724" transform="translate(-1.229 -1.193)" style="fill:#7591ff"/>
                </g>
                <g id="prefix__shadow-4" data-name="shadow" transform="translate(59.092 95.586)">
                    <path id="prefix__Tracé_2726" d="M8.718 1.321c-2.432 1.923-4.8 50.146 0 51.133s17.365-10.113 14.2-30.673-11.753-18.133-14.2-20.46z" class="prefix__cls-27" data-name="Tracé 2726" transform="translate(-5.936 -1.321)"/>
                </g>
                <g id="prefix__ankle" transform="translate(48.865 121.048)">
                    <path id="prefix__Tracé_2728" d="M32.316 5.734q-8.179 4.25-22.43-3.872-3.478 7.856-4.517 11.007-4.563 13.842 2.88 14.369 9.985.707 24.067.707 8.179-26.461 0-22.211z" class="prefix__cls-6" data-name="Tracé 2728" transform="translate(-3.635 -1.862)"/>
                </g>
                <g id="prefix__shoe-3" data-name="shoe" transform="translate(0 112.404)">
                    <g id="prefix__shoe-4" data-name="shoe">
                        <path id="prefix__Tracé_2730" d="M51.2 6.177a110.972 110.972 0 0 0 11.462 6.234c1.928.9-3.617 3.239-9.182 10.95-4.816 6.673 1.951 12.016 0 12.184-2.925.255-3.452-.724-12.68 2.455q-8.309 2.87-28.39 10.934a7.751 7.751 0 0 1-8.174-1.524 5.018 5.018 0 0 1-.3-7.029Q18.259 24.486 22.07 20.4a68.534 68.534 0 0 1 11.88-4.75l-3.474-3.239L40.461 1.7A51.816 51.816 0 0 1 51.2 6.177z" class="prefix__cls-24" data-name="Tracé 2730" transform="translate(-2.64 -1.703)"/>
                    </g>
                </g>
                <g id="prefix__leg-3" data-name="leg" transform="translate(61.72 39.79)">
                    <g id="prefix__leg-4" data-name="leg" transform="translate(.016)">
                        <path id="prefix__leg-5" d="M18.679 16.078c-6.24 8.872-8.145 23.878-3.92 34.212 3.75 9.173 18.414 19.236 21.687 20.6-7.377 0-32.086-1.222-35.262-2.471 2.879 15.086 17.5 39.347 2.879 51.231 10.7 1.208 102.793 2.415 112.375 1.208s41.236 3.6 44.051-13.092-19.431-39.605-26.482-45.364S87.363 31.91 80.62 24.493 24.918 7.206 18.679 16.078z" data-name="leg" transform="translate(-1.184 -12.568)" style="fill:#98adff"/>
                    </g>
                    <path id="prefix__shadow-6" d="M1.151 1.743q2.86 13.284 27.686 21.336c24.827 8.053 49.275-2.142 54.465 0-8.432-2.734-29.792-8.846-47.069-18.924q-9.007.01-35.082-2.412z" data-name="shadow" transform="translate(-1.151 54.265)" style="fill:#728fff"/>
                </g>
            </g>
            <g id="prefix__face" transform="translate(96.539 10.49)">
                <path id="prefix__Tracé_2732" d="M32.891 11.093c4.316 5.117 5.122 7.45 9.786 11.6s11.066 5.629 12.918 6.282-3.705 4.793-1.853 10.157S59.515 52.4 59.515 54.5s-7.329 5.8-14.262 8.926-7.913 5.754-7.11 11.052 1.942 12.138 7.11 15.133Q50.42 92.6 16.006 78.964 1.4 46.212 8.7 25.582C16.006 4.951 28.574 5.976 32.891 11.093z" class="prefix__cls-6" data-name="Tracé 2732" transform="translate(-6.266 -7.976)"/>
                <g id="prefix__face-2" data-name="face">
                    <path id="prefix__Path_2" d="M2.149.76c1.994 2.419 5.413 7.01 9.68 9.6 4.023 2.44 11.151 2.5 15.443 2.5 8.844 0-11.9 16.414-11.9 16.414L2.149 26.623S-1.725-3.941 2.149.76z" class="prefix__cls-6" data-name="Path 2" transform="translate(14.813 41.995)"/>
                </g>
            </g>
            <g id="prefix__hand" transform="translate(210.99 35.744)">
                <path id="prefix__finger" d="M3.34 25.08c-.666-1.048-1.288-16.059.5-18.136s6.393-4.628 7.053-4.03 2.286 3.833 1.007 4.533-3.7 3.153-3.522 4.03.557 3.482 1.511 4.534S4.9 27.527 3.34 25.08z" class="prefix__cls-6" transform="translate(7.015 7.614)"/>
                <g id="prefix__marker">
                    <path id="prefix__Tracé_2734" d="M3.484 8.087c1.453-1.236 8.409-4.623 9.15-2.026q.741 2.6-6.856 6.723-3.747-3.461-2.294-4.697z" data-name="Tracé 2734" transform="translate(28.979 -5.105)" style="fill:#9db6e2"/>
                    <path id="prefix__Tracé_2735" d="M7.137 16.775L35.869 2.806a4.113 4.113 0 0 1 5.218 1.413 3.686 3.686 0 0 1-.933 5.055L13.731 28.006a6.511 6.511 0 0 1-9.078-1.546q-.161-.227-.3-.467a6.556 6.556 0 0 1 2.332-8.974q.22-.132.452-.244z" data-name="Tracé 2735" transform="translate(-3.447 -1.24)" style="fill:#223762"/>
                </g>
                <path id="prefix__hand-2" d="M1.078 49.989q5.269-6.576 6.653-8.564c.65-.934-.395-7.07.985-9.591a37.747 37.747 0 0 1 3.351-4.78 22.778 22.778 0 0 0 2.353-4.217 35.957 35.957 0 0 0 1.756-7.38c.341-2.819 7.92-8.569 8.848-10.589s3.033-2.657 4.156 0-6.495 9.625-6.495 13.291c0 .22 3.253-4.839 5.277-5.344 1.844 0 1.617 2.537 2.419 6.053.781 3.429 5.188 7.6 5.188 12.061 0 2.588.007 4.684 0 5.084C35.5 39.82 21.681 50.6 18.664 54.927q-3.017 4.324-6.6 8.966z" class="prefix__cls-6" data-name="hand" transform="translate(1.759 -.586)"/>
            </g>
            <g id="prefix__shirt" transform="translate(57.98 73.518)">
                <path id="prefix__shirt_bottom" d="M7.881 1.84Q5.038 14.193 3.92 17.01c-1.118 2.816 21.343 6.3 45.865 6.07 21.138-.2 35.706-2.64 39.8-5.542a16.038 16.038 0 0 1-5.439-8.817Q78.266 1.84 7.881 1.84z" class="prefix__cls-39" data-name="shirt bottom" transform="translate(3.753 141.113)"/>
                <path id="prefix__colar" d="M8.345 4.174C13.3 5.427 24.86 7.272 27.216 7.232s6.3 17.105 6.049 18.626-23.343-6.8-24.92-8.772-4.958-14.164 0-12.912z" transform="translate(45.649 -4.084)" style="fill:#b5b5b5"/>
                <g id="prefix__shirt-2" data-name="shirt" transform="translate(0 11.132)">
                    <g id="prefix__Groupe_3443" data-name="Groupe 3443">
                        <path id="prefix__Mask_Path-5" d="M1.728 132.924C5.2 126.01 29.153 61.739 29.395 47.013S34.044 2.081 46.886 2.182 86.295 14.446 90.642 17.7s8.367 17.325 8.367 25.1c0 3.84.061 26.971 0 50.472-.059 22.626 7.3 45.585 7.705 46.518-20.288 6.733-99.607 3.323-104.986-6.866z" data-name="Mask Path" transform="translate(-1.728 -2.181)"/>
                        <path id="prefix__Mask_Path-6" d="M1.728 132.924C5.2 126.01 29.153 61.739 29.395 47.013S34.044 2.081 46.886 2.182 86.295 14.446 90.642 17.7s8.367 17.325 8.367 25.1c0 3.84.061 26.971 0 50.472-.059 22.626 7.3 45.585 7.705 46.518-20.288 6.733-99.607 3.323-104.986-6.866z" class="prefix__cls-22" data-name="Mask Path" transform="translate(-1.728 -2.181)"/>
                    </g>
                </g>
                <path id="prefix__shirt_sleeve" d="M8.631 21.586c3.662-3.1 8.8-9.287 11.691-12.958S39.219 21.682 36.1 25.877s-9.4 11.979-12.455 14.25S4.968 24.685 8.631 21.586z" class="prefix__cls-39" data-name="shirt sleeve" transform="translate(138.197 -2.553)"/>
                <g id="prefix__sleeve" transform="translate(65.537 14.713)">
                    <g id="prefix__Groupe_3444" data-name="Groupe 3444">
                        <path id="prefix__Mask_Path-7" d="M9.907 63.867c7.018 4.54 54.816 17.753 60.128 15.8s38.463-41.957 40.323-46.3S88.852 5 86.061 8.668s-25.909 32.413-28.5 32.413S27.222 17.835 19.1 16.52 4.99 25.1 3.446 30.28 2.89 59.327 9.907 63.867z" data-name="Mask Path" transform="translate(-2.817 -8.289)"/>
                        <g transform="translate(-179.94 -155.06)">
                            <path id="prefix__Mask_Path-8" d="M9.907 63.867c7.018 4.54 54.816 17.753 60.128 15.8s38.463-41.957 40.323-46.3S88.852 5 86.061 8.668s-25.909 32.413-28.5 32.413S27.222 17.835 19.1 16.52 4.99 25.1 3.446 30.28 2.89 59.327 9.907 63.867z" class="prefix__cls-19" data-name="Mask Path" transform="translate(177.13 146.77)"/>
                        </g>
                    </g>
                </g>
            </g>
            <g id="prefix__hair" transform="translate(49.083)">
                <path id="prefix__Tracé_2736" d="M83.273 36.421c9.614-3.107 1.18-16.382 4.586-16.382 1.413 0 7.112-1.091 8.588-4.173 3.272-6.832-4.225-12.924-22.873-11.5C41.712 6.79 40.027 39.833 42.72 56.367s-32.6 66.743-21.476 88.243 33.388 13.267 52.331-5.5 13.955-82.395 8.989-85.428-8.904-14.155.709-17.261z" data-name="Tracé 2736" transform="translate(-19.068 -4.155)" style="fill:#7a6c53"/>
            </g>
        </g>
    </g>
</svg>
