<svg xmlns="http://www.w3.org/2000/svg" width="82.54" height="25.75" viewBox="0 0 82.54 25.75">
    <g id="prefix__LOGO" transform="translate(-77.776 -2542.504)">
        <path id="prefix__Tracé_177" d="M2.992 1.826A1.715 1.715 0 0 0 4.72 3.554a1.722 1.722 0 0 0 1.757-1.728v-12.04a1.746 1.746 0 0 0-1.757-1.757 1.722 1.722 0 0 0-1.728 1.757zM17.048 3.7c4.234 0 7.2-2.247 7.2-6.02v-.058c0-3.341-2.189-4.868-6.452-5.9-3.888-.922-4.81-1.613-4.81-3.168v-.058c0-1.325 1.21-2.391 3.284-2.391a8.386 8.386 0 0 1 4.637 1.527 1.713 1.713 0 0 0 .922.259 1.647 1.647 0 0 0 1.671-1.647 1.6 1.6 0 0 0-.778-1.411 11.093 11.093 0 0 0-6.394-1.872c-4 0-6.884 2.391-6.884 5.847v.058c0 3.716 2.419 4.983 6.711 6.02 3.744.864 4.551 1.642 4.551 3.082v.058c0 1.5-1.383 2.535-3.572 2.535a8.743 8.743 0 0 1-5.645-2.074 1.642 1.642 0 0 0-1.037-.317A1.647 1.647 0 0 0 8.781-.19a1.661 1.661 0 0 0 .691 1.354A12.552 12.552 0 0 0 17.048 3.7zm9.534 2.736a1.743 1.743 0 0 0 3.485 0V1.048a6.212 6.212 0 0 0 5.185 2.679c3.6 0 7.057-2.852 7.057-7.892v-.058c0-5.069-3.485-7.892-7.057-7.892a6.088 6.088 0 0 0-5.185 2.852v-.951a1.746 1.746 0 0 0-1.757-1.757 1.722 1.722 0 0 0-1.728 1.757zM34.416.7a4.585 4.585 0 0 1-4.436-4.865v-.058a4.585 4.585 0 0 1 4.436-4.867c2.362 0 4.349 1.93 4.349 4.868v.058C38.765-1.17 36.807.7 34.416.7zM51.7 3.756a7.951 7.951 0 0 0 8.151-7.921v-.058a7.878 7.878 0 0 0-8.094-7.892 7.95 7.95 0 0 0-8.122 7.95v.058A7.865 7.865 0 0 0 51.7 3.756zM51.756.7a4.687 4.687 0 0 1-4.637-4.868v-.058A4.564 4.564 0 0 1 51.7-9.062a4.7 4.7 0 0 1 4.666 4.9v.058A4.563 4.563 0 0 1 51.756.7zm10.2 1.123a1.715 1.715 0 0 0 1.724 1.731 1.74 1.74 0 0 0 1.757-1.728v-4.493c0-3.6 1.7-5.5 4.176-5.933A1.635 1.635 0 0 0 71-10.271 1.618 1.618 0 0 0 69.268-12c-1.527 0-3.024 1.44-3.831 3.341v-1.555a1.746 1.746 0 0 0-1.757-1.757 1.722 1.722 0 0 0-1.728 1.757zm10.657 0a1.743 1.743 0 0 0 3.485 0v-12.04a1.746 1.746 0 0 0-1.757-1.757 1.722 1.722 0 0 0-1.728 1.757zM81.9 3.669a6.933 6.933 0 0 0 2.391-.4 1.5 1.5 0 0 0 .922-1.354A1.469 1.469 0 0 0 83.746.472a8.24 8.24 0 0 1-.864.086 1.659 1.659 0 0 1-1.872-1.9V-8.8h2.736a1.512 1.512 0 0 0 1.527-1.5 1.512 1.512 0 0 0-1.527-1.5H81.01v-2.59a1.733 1.733 0 0 0-1.728-1.728 1.74 1.74 0 0 0-1.757 1.728V-.8c0 3.346 1.814 4.469 4.375 4.469z" data-name="Tracé 177" transform="translate(75.043 2560.091)" style="fill:#fff"/>
        <path id="prefix__Tracé_178" d="M1.776-15.624A1.8 1.8 0 0 0 3.763-13.9a1.8 1.8 0 0 0 1.987-1.728v-.172a1.783 1.783 0 0 0-1.987-1.7 1.783 1.783 0 0 0-1.987 1.7zm69.617 0A1.8 1.8 0 0 0 73.38-13.9a1.8 1.8 0 0 0 1.987-1.728v-.172a1.783 1.783 0 0 0-1.987-1.7 1.783 1.783 0 0 0-1.987 1.7z" data-name="Tracé 178" transform="translate(76 2560)" style="fill:#26beb5"/>
    </g>
</svg>
