<svg xmlns="http://www.w3.org/2000/svg" width="31.14" height="31.14" viewBox="0 0 31.14 31.14">
    <path id="prefix__Icon_awesome-phone-alt" d="M30.252 22.005l-6.812-2.919a1.46 1.46 0 0 0-1.7.42l-3.02 3.685A22.544 22.544 0 0 1 7.943 12.414L11.629 9.4a1.456 1.456 0 0 0 .42-1.7L9.129.883A1.469 1.469 0 0 0 7.457.037L1.131 1.5A1.46 1.46 0 0 0 0 2.919a28.218 28.218 0 0 0 28.221 28.222 1.46 1.46 0 0 0 1.423-1.131l1.46-6.325a1.477 1.477 0 0 0-.852-1.679z" data-name="Icon awesome-phone-alt" style="fill:#fff"/>
</svg>
