<svg xmlns="http://www.w3.org/2000/svg" width="54.297" height="44.139" viewBox="0 0 54.297 44.139"><defs><style>.a,.b{fill:#ffe5d9;}.b{stroke:#ffe5d9;stroke-width:0.4px;}.c{fill:#ff8760;}</style></defs><g transform="translate(-0.415 -21.659)"><path class="a" d="M12.789,2.7c2.392,0,.507-2.917,3.025-1.35l1.907,3.079,4.4-4.986,6.3-1.708,9.1-2.251c1.135.915.345,2.064,1.32,3.96.33.625-13.874,11.9-13.542,13.292a12.59,12.59,0,0,1,.283,2.753A12.789,12.789,0,1,1,12.789,2.7Z" transform="translate(8.492 31.754)"/><path class="b" d="M3.02,17.04h.664a14.012,14.012,0,0,0,27.7-3.02c0-.151,0-.3-.007-.453l16.2-7.385a.75.75,0,0,0,.621-.738L47.962.749A.749.749,0,0,0,47.212,0H30.156a.748.748,0,0,0-.677.429l-1.345,2.84H25.482V.749A.749.749,0,0,0,24.732,0H17.367A14.038,14.038,0,0,0,3.686,10.992H3.02a3.024,3.024,0,0,0,0,6.048ZM17.368,1.5h6.615V4.018a.749.749,0,0,0,.749.749h3.876a.748.748,0,0,0,.677-.429L30.63,1.5H46.463L46.7,4.813,30.454,12.205a.75.75,0,0,0-.618.805c.029.332.044.671.044,1.01A12.517,12.517,0,1,1,17.368,1.5ZM3.02,12.491h.411c-.041.379-.084,1.031-.084,1.529a14.092,14.092,0,0,0,.078,1.47c0,.017,0,.035,0,.052H3.02a1.525,1.525,0,0,1,0-3.05Z" transform="matrix(0.966, -0.259, 0.259, 0.966, 0.659, 38.476)"/><ellipse class="c" cx="8" cy="8.5" rx="8" ry="8.5" transform="translate(13 38.99)"/><path class="b" d="M21.859,45.129a9.106,9.106,0,1,0-9.108-9.1A9.113,9.113,0,0,0,21.859,45.129Zm0-16.745a7.639,7.639,0,1,1-7.642,7.642A7.648,7.648,0,0,1,21.859,28.385Z" transform="translate(-0.78 11.363)"/><g transform="matrix(0.966, -0.259, 0.259, 0.966, 17.539, 23.745)"><path class="c" d="M.965,0A.964.964,0,0,0,0,.965v3.1a.965.965,0,1,0,1.929,0V.965A.964.964,0,0,0,.965,0Z" transform="translate(6.126 0)"/><path class="c" d="M2.475.283.283,2.475A.964.964,0,1,0,1.647,3.839L3.839,1.647A.964.964,0,0,0,2.475.283Z" transform="translate(10.061 2.537)"/><path class="c" d="M.283.283a.964.964,0,0,0,0,1.364L2.475,3.839A.964.964,0,0,0,3.839,2.475L1.647.283A.964.964,0,0,0,.283.283Z" transform="translate(0 2.537)"/></g></g></svg>