<svg xmlns="http://www.w3.org/2000/svg" width="33.785" height="40.948" viewBox="0 0 33.785 40.948"><defs><style>.a,.c{fill:#26beb5;}.a{opacity:0.19;}.b{fill:#d6f3f1;stroke:#d6f3f1;stroke-width:0.25px;}.c{stroke:#26beb5;stroke-linecap:round;stroke-linejoin:round;}</style></defs><g transform="translate(-12.218 -11.061)"><path class="a" d="M14.308,17.906l5.808-4.327,4.9-.8h8.313l3.986.8,6.149,2.961L44.6,20.184V30.319L40.842,40.682l-8.769,8.427-3.416,1.367-5.011-2.847-3.53-3.075L17.61,40.682l-2.05-3.416-1.253-3.3L13.4,28.155v-4.9Z" transform="translate(0.15 0.227)"/><path class="b" d="M121.837,70.006l-.05-.451-.337-.3a23.9,23.9,0,0,0-31.372,0l-.337.3-.05.451c-.461,4.177-.695,7.037-.695,8.5a27.653,27.653,0,0,0,16.285,25.354l.483.209.483-.209a27.654,27.654,0,0,0,16.284-25.354C122.531,77.043,122.3,74.183,121.837,70.006Zm-16.073,31.455h0A25.284,25.284,0,0,1,91.38,78.506c0-1.3.218-3.99.63-7.78a21.552,21.552,0,0,1,27.507,0c.413,3.791.63,6.475.63,7.78a25.284,25.284,0,0,1-14.384,22.954Zm0,0" transform="translate(-76.653 -52.197)"/><path class="c" d="M10.606,3l2.35,4.761,5.256.768-3.8,3.7.9,5.233-4.7-2.472-4.7,2.472.9-5.233L3,8.529l5.256-.768Z" transform="translate(18.517 20.125)"/></g></svg>