<?xml version="1.0" encoding="UTF-8"?>
<svg width="239px" height="234px" viewBox="0 0 239 234" version="1.1" xmlns="http://www.w3.org/2000/svg" xmlns:xlink="http://www.w3.org/1999/xlink">
    <!-- Generator: Sketch 47.1 (45422) - http://www.bohemiancoding.com/sketch -->
    <title>logo-compact-blue</title>
    <desc>Created with Sketch.</desc>
    <defs></defs>
    <g id="Page-1" stroke="none" stroke-width="1" fill="none" fill-rule="evenodd">
        <g id="Artboard" transform="translate(-10475.000000, -731.000000)" fill="#C5D928">
            <g id="logo-compact-blue" transform="translate(10475.000000, 731.000000)">
                <path d="M230.840208,73.3092653 C248.275966,117.39733 237.638003,169.45977 200.187466,203.267773 C151.622737,247.078422 76.3905446,243.636905 32.1237427,195.574738 C21.8314079,184.366906 14.1062204,171.739285 8.94554185,158.411583 C7.51421869,153.810679 7.15012174,150.240923 11.937469,149.542151 C25.9129875,150.548435 37.9044414,148.43249 47.4646248,145.710682 C48.2666935,158.049111 50.7507317,169.407428 54.6489437,179.00442 C65.4729128,205.650664 92.3277014,215.356267 120.130989,205.141634 C153.840298,192.767873 166.019078,158.912762 172.000293,143.140666 C179.447131,123.520091 188.670921,95.1085965 206.469457,80.8871467 C213.409726,75.3244505 219.051909,72.0072463 223.724487,70.1700255 C225.439436,69.7382001 229.447141,69.9462614 230.708289,72.9873591 C230.759737,73.101204 230.80327,73.208506 230.840208,73.3092653 Z" id="Fill-1"></path>
                <path d="M4.26900158,133.404566 C16.5063764,137.869116 33.4134492,136.875685 46.0934245,133.54985 C46.8995895,111.106682 53.0591121,86.5667059 66.107921,64.0109748 C77.4745849,44.3975801 92.0962061,31.149213 114.969164,23.1755861 C134.431727,16.3891028 149.212737,24.2868154 153.703287,35.3245036 C161.58579,54.7428769 154.296056,77.2815927 134.687276,98.0271586 C116.162604,116.662829 95.1496221,129.20048 79.3780302,135.570743 C79.2173241,139.979012 81.0206574,151.53763 86.5742389,165.236248 C92.7574722,180.487184 107.464715,185.772395 119.317449,181.652077 C138.786599,174.864285 150.054468,158.60552 157.395576,140.570621 C162.164069,128.827452 170.660416,101.732565 183.734253,83.1296172 C192.264849,71.0094948 201.708309,60.6628892 211.971106,54.6276964 C211.977693,54.6146078 211.984279,54.5989013 212.005355,54.5779594 C213.140836,53.7285038 215.544841,49.5911704 212.562557,45.514045 C210.66965,43.1004914 208.683217,40.7406015 206.572962,38.4422284 C162.364293,-9.64298306 87.2249669,-13.0826895 38.7417787,30.7460815 C10.4219378,56.3580206 -2.5267591,92.429128 0.406785973,127.586645 C0.928422188,130.768505 2.47357188,132.476578 4.26900158,133.404566" id="Fill-3"></path>
                <path d="M116.151424,92.2420293 C122.657301,82.1617484 126.480505,67.8295831 122.16644,57.1868215 C119.399769,50.3561391 113.256132,44.6947903 103.967833,47.9404737 C82.880496,55.2879596 76.5478637,99.735682 79.8067085,122 C87.3874928,119.352034 105.813156,107.114489 116.151424,92.2420293" id="Fill-6"></path>
            </g>
        </g>
    </g>
</svg>