<svg xmlns="http://www.w3.org/2000/svg" width="28.261" height="34.246" viewBox="0 0 28.261 34.246">
  <g id="clubs" transform="translate(-12.218 -11.061)">
    <path id="Tracé_2711" data-name="Tracé 2711" d="M14.158,17.062l4.851-3.615,4.09-.666h6.944l3.329.666,5.137,2.473.951,3.044V27.43l-3.139,8.656L29,43.125l-2.854,1.141-4.185-2.378L19.009,39.32l-2.093-3.234L15.2,33.233l-1.047-2.758L13.4,25.623v-4.09Z" transform="translate(-0.048 -0.073)" fill="#26beb5" opacity="0.19"/>
    <path id="Tracé_2707" data-name="Tracé 2707" d="M116.427,68.915l-.042-.377-.282-.254a19.962,19.962,0,0,0-26.2,0l-.282.254-.042.377c-.385,3.489-.58,5.878-.58,7.1a23.1,23.1,0,0,0,13.6,21.178l.4.175.4-.175a23.1,23.1,0,0,0,13.6-21.178C117.007,74.793,116.812,72.4,116.427,68.915ZM103,95.189h0A21.119,21.119,0,0,1,90.987,76.015c0-1.09.182-3.333.526-6.5a18,18,0,0,1,22.976,0c.345,3.166.526,5.409.526,6.5A21.12,21.12,0,0,1,103,95.189Zm0,0" transform="translate(-76.653 -52.197)" fill="#d6f3f1" stroke="#d6f3f1" stroke-width="0.25"/>
    <path id="Icon_feather-star" data-name="Icon feather-star" d="M9.353,3l1.963,3.977,4.39.642-3.176,3.094.75,4.371L9.353,13.019,5.427,15.083l.75-4.371L3,7.619l4.39-.642Z" transform="translate(17.006 18.159)" fill="#26beb5" stroke="#26beb5" stroke-linecap="round" stroke-linejoin="round" stroke-width="1"/>
  </g>
</svg>
