<svg xmlns="http://www.w3.org/2000/svg" width="34.656" height="28.116" viewBox="0 0 34.656 28.116">
  <g id="entraîneurs" transform="translate(-0.415 -21.081)">
    <path id="Tracé_2742" data-name="Tracé 2742" d="M8.121.068c1.519,0,.322-1.852,1.921-.857l1.211,1.955L14.046-2l4-1.085,5.776-1.429c.721.581.219,1.311.838,2.514.21.4-8.81,7.557-8.6,8.44a7.994,7.994,0,0,1,.179,1.748A8.121,8.121,0,1,1,8.121.068Z" transform="translate(5.633 29.138)" fill="#ffe5d9"/>
    <path id="Tracé_2695" data-name="Tracé 2695" d="M1.918,10.82h.422A8.9,8.9,0,0,0,19.925,8.9c0-.1,0-.192,0-.288L30.208,3.925a.476.476,0,0,0,.394-.469L30.455.476A.476.476,0,0,0,29.979,0H19.148a.475.475,0,0,0-.43.272l-.854,1.8H16.18V.476A.476.476,0,0,0,15.7,0H11.028A8.914,8.914,0,0,0,2.34,6.98H1.918a1.92,1.92,0,0,0,0,3.84ZM11.028.952h4.2v1.6a.476.476,0,0,0,.476.476h2.461a.475.475,0,0,0,.43-.272l.854-1.8H29.5l.147,2.1L19.338,7.75a.476.476,0,0,0-.392.511c.019.211.028.426.028.641A7.948,7.948,0,1,1,11.028.952Zm-9.11,6.98h.261c-.026.241-.053.655-.053.971a8.948,8.948,0,0,0,.05.933c0,.011,0,.022,0,.033H1.918a.968.968,0,0,1,0-1.937Z" transform="matrix(0.966, -0.259, 0.259, 0.966, 0.659, 31.759)" fill="#ffe5d9" stroke="#ffe5d9" stroke-width="0.4"/>
    <circle id="Ellipse_137" data-name="Ellipse 137" cx="5.5" cy="5.5" r="5.5" transform="translate(8 32.138)" fill="#ff8760"/>
    <path id="Tracé_2696" data-name="Tracé 2696" d="M18.534,38.482a5.782,5.782,0,1,0-5.784-5.78A5.787,5.787,0,0,0,18.534,38.482Zm0-10.633A4.851,4.851,0,1,1,13.682,32.7,4.856,4.856,0,0,1,18.534,27.849Z" transform="translate(-4.909 4.717)" fill="#ffe5d9" stroke="#ffe5d9" stroke-width="0.4"/>
    <g id="Groupe_295" data-name="Groupe 295" transform="matrix(0.966, -0.259, 0.259, 0.966, 11.377, 22.405)">
      <path id="Tracé_2697" data-name="Tracé 2697" d="M.612,0A.612.612,0,0,0,0,.612V2.581a.612.612,0,1,0,1.225,0V.612A.612.612,0,0,0,.612,0Z" transform="translate(3.89 0)" fill="#ff8760"/>
      <path id="Tracé_2698" data-name="Tracé 2698" d="M1.571.179.179,1.571a.612.612,0,0,0,.866.866L2.437,1.046A.612.612,0,0,0,1.571.179Z" transform="translate(6.389 1.611)" fill="#ff8760"/>
      <path id="Tracé_2699" data-name="Tracé 2699" d="M.179.179a.612.612,0,0,0,0,.866L1.571,2.437a.612.612,0,0,0,.866-.866L1.046.179A.612.612,0,0,0,.179.179Z" transform="translate(0 1.611)" fill="#ff8760"/>
    </g>
  </g>
</svg>
